SplineFontDB: 3.2
FontName: hifi-glyphs
FullName: hifi-glyphs
FamilyName: hifi-glyphs
Weight: Book
Copyright: 
Version: 1.0
ItalicAngle: 0
UnderlinePosition: 0
UnderlineWidth: 0
Ascent: 480
Descent: 32
InvalidEm: 0
sfntRevision: 0x00010000
LayerCount: 2
Layer: 0 1 "Back" 1
Layer: 1 1 "Fore" 0
XUID: [1021 190 -1080315942 15212197]
StyleMap: 0x0040
FSType: 8
OS2Version: 1
OS2_WeightWidthSlopeOnly: 0
OS2_UseTypoMetrics: 0
CreationTime: 1551811700
ModificationTime: 1593088009
PfmFamily: 17
TTFWeight: 400
TTFWidth: 5
LineGap: 46
VLineGap: 0
Panose: 2 0 5 9 0 0 0 0 0 0
OS2TypoAscent: 480
OS2TypoAOffset: 0
OS2TypoDescent: -32
OS2TypoDOffset: 0
OS2TypoLinegap: 46
OS2WinAscent: 512
OS2WinAOffset: 0
OS2WinDescent: 0
OS2WinDOffset: 0
HheadAscent: 512
HheadAOffset: 0
HheadDescent: 0
HheadDOffset: 0
OS2SubXSize: 332
OS2SubYSize: 358
OS2SubXOff: 0
OS2SubYOff: 71
OS2SupXSize: 332
OS2SupYSize: 358
OS2SupXOff: 0
OS2SupYOff: 245
OS2StrikeYSize: 25
OS2StrikeYPos: 132
OS2Vendor: 'PfEd'
OS2CodePages: 00000001.00000000
OS2UnicodeRanges: 00000001.10000000.00000000.00000000
MarkAttachClasses: 1
DEI: 91125
ShortTable: maxp 16
  1
  0
  155
  347
  28
  0
  0
  2
  0
  1
  1
  0
  64
  0
  0
  0
EndShort
LangName: 1033 "" "" "" "FontForge 2.0 : hifi-glyphs : 5-3-2019" "" "Version 1.0"
GaspTable: 1 65535 2 0
Encoding: UnicodeBmp
UnicodeInterp: none
NameList: AGL For New Fonts
DisplaySize: -48
AntiAlias: 1
FitToEm: 0
WinInfo: 33 33 8
BeginPrivate: 0
EndPrivate
TeXData: 1 0 0 346030 173015 115343 915456 1048576 115343 783286 444596 497025 792723 393216 433062 380633 303038 157286 324010 404750 52429 2506097 1059062 262144
BeginChars: 65538 155

StartChar: hmd
Encoding: 98 98 3
Width: 512
GlyphClass: 2
Flags: W
LayerCount: 2
Fore
SplineSet
381 139 m 2,0,-1
 311 139 l 2,1,2
 292 139 292 139 271 172 c 0,3,4
 260 188 260 188 256 190 c 1,5,-1
 241 172 l 2,6,7
 217 139 217 139 198 139 c 2,8,-1
 131 139 l 2,9,10
 91 139 91 139 62.5 166.5 c 128,-1,11
 34 194 34 194 34 234 c 2,12,-1
 34 279 l 2,13,14
 34 319 34 319 62.5 347 c 128,-1,15
 91 375 91 375 131 375 c 2,16,-1
 381 375 l 2,17,18
 421 375 421 375 449 347 c 128,-1,19
 477 319 477 319 477 279 c 2,20,-1
 477 234 l 2,21,22
 477 195 477 195 449 167 c 128,-1,23
 421 139 421 139 381 139 c 2,0,-1
256 216 m 2,24,25
 272 216 272 216 292 186 c 0,26,27
 308 164 308 164 311 164 c 2,28,-1
 381 164 l 2,29,30
 410 164 410 164 431 184.5 c 128,-1,31
 452 205 452 205 452 234 c 2,32,-1
 452 279 l 2,33,34
 452 308 452 308 431 328.5 c 128,-1,35
 410 349 410 349 381 349 c 2,36,-1
 131 349 l 2,37,38
 102 349 102 349 81 328.5 c 128,-1,39
 60 308 60 308 60 279 c 2,40,-1
 60 234 l 2,41,42
 60 205 60 205 81 184.5 c 128,-1,43
 102 164 102 164 131 164 c 2,44,-1
 198 164 l 2,45,46
 205 164 205 164 220 187 c 0,47,48
 241 216 241 216 255 216 c 2,49,-1
 256 216 l 2,24,25
EndSplineSet
Validated: 1
EndChar

StartChar: 2d-screen
Encoding: 99 99 4
Width: 512
GlyphClass: 2
Flags: W
LayerCount: 2
Fore
SplineSet
448 416 m 2,0,1
 465.600097656 416 465.600097656 416 478.133544922 403.466552734 c 128,-1,2
 490.666992188 390.933105469 490.666992188 390.933105469 490.666992188 373.333007812 c 2,3,-1
 490.453125 117.333007812 l 2,4,5
 490.453125 99.7125817646 490.453125 99.7125817646 478.016517086 87.1897869761 c 128,-1,6
 465.579909173 74.6669921875 465.579909173 74.6669921875 448 74.6669921875 c 2,7,-1
 341.333007812 74.6669921875 l 1,8,-1
 341.333007812 32 l 1,9,-1
 170.666992188 32 l 1,10,-1
 170.666992188 74.6669921875 l 1,11,-1
 64 74.6669921875 l 2,12,13
 46.399809736 74.6669921875 46.399809736 74.6669921875 33.8664087743 87.1999974743 c 128,-1,14
 21.3330078125 99.733002761 21.3330078125 99.733002761 21.3330078125 117.333007812 c 2,15,-1
 21.3330078125 373.333007812 l 2,16,17
 21.3330078125 390.933105469 21.3330078125 390.933105469 33.8664550781 403.466552734 c 128,-1,18
 46.3999023438 416 46.3999023438 416 64 416 c 2,19,-1
 448 416 l 2,0,1
448 117.333007812 m 1,20,-1
 448 373.333007812 l 1,21,-1
 64 373.333007812 l 1,22,-1
 64 117.333007812 l 1,23,-1
 448 117.333007812 l 1,20,-1
EndSplineSet
Validated: 513
EndChar

StartChar: keyboard
Encoding: 100 100 5
Width: 512
GlyphClass: 2
Flags: W
LayerCount: 2
Fore
SplineSet
426.666992188 373.333007812 m 2,0,1
 444.267089844 373.333007812 444.267089844 373.333007812 456.800048828 360.800048828 c 128,-1,2
 469.333007812 348.267089844 469.333007812 348.267089844 469.333007812 330.666992188 c 2,3,-1
 469.333007812 117.333007812 l 2,4,5
 469.333007812 99.7329101562 469.333007812 99.7329101562 456.800048828 87.1999511719 c 128,-1,6
 444.267089844 74.6669921875 444.267089844 74.6669921875 426.666992188 74.6669921875 c 2,7,-1
 85.3330078125 74.6669921875 l 2,8,9
 67.7329101562 74.6669921875 67.7329101562 74.6669921875 55.1999511719 87.1999511719 c 128,-1,10
 42.6669921875 99.7329101562 42.6669921875 99.7329101562 42.6669921875 117.333007812 c 2,11,-1
 42.8798828125 330.666992188 l 2,12,13
 42.8798828125 348.287418235 42.8798828125 348.287418235 55.3164907261 360.810213024 c 128,-1,14
 67.7530986397 373.333007812 67.7530986397 373.333007812 85.3330078125 373.333007812 c 2,15,-1
 426.666992188 373.333007812 l 2,0,1
234.666992188 309.333007812 m 1,16,-1
 234.666992188 266.666992188 l 1,17,-1
 277.333007812 266.666992188 l 1,18,-1
 277.333007812 309.333007812 l 1,19,-1
 234.666992188 309.333007812 l 1,16,-1
234.666992188 245.333007812 m 1,20,-1
 234.666992188 202.666992188 l 1,21,-1
 277.333007812 202.666992188 l 1,22,-1
 277.333007812 245.333007812 l 1,23,-1
 234.666992188 245.333007812 l 1,20,-1
170.666992188 309.333007812 m 1,24,-1
 170.666992188 266.666992188 l 1,25,-1
 213.333007812 266.666992188 l 1,26,-1
 213.333007812 309.333007812 l 1,27,-1
 170.666992188 309.333007812 l 1,24,-1
170.666992188 245.333007812 m 1,28,-1
 170.666992188 202.666992188 l 1,29,-1
 213.333007812 202.666992188 l 1,30,-1
 213.333007812 245.333007812 l 1,31,-1
 170.666992188 245.333007812 l 1,28,-1
149.333007812 202.666992188 m 1,32,-1
 149.333007812 245.333007812 l 1,33,-1
 106.666992188 245.333007812 l 1,34,-1
 106.666992188 202.666992188 l 1,35,-1
 149.333007812 202.666992188 l 1,32,-1
149.333007812 266.666992188 m 1,36,-1
 149.333007812 309.333007812 l 1,37,-1
 106.666992188 309.333007812 l 1,38,-1
 106.666992188 266.666992188 l 1,39,-1
 149.333007812 266.666992188 l 1,36,-1
341.333007812 117.333007812 m 1,40,-1
 341.333007812 160 l 1,41,-1
 170.666992188 160 l 1,42,-1
 170.666992188 117.333007812 l 1,43,-1
 341.333007812 117.333007812 l 1,40,-1
341.333007812 202.666992188 m 1,44,-1
 341.333007812 245.333007812 l 1,45,-1
 298.666992188 245.333007812 l 1,46,-1
 298.666992188 202.666992188 l 1,47,-1
 341.333007812 202.666992188 l 1,44,-1
341.333007812 266.666992188 m 1,48,-1
 341.333007812 309.333007812 l 1,49,-1
 298.666992188 309.333007812 l 1,50,-1
 298.666992188 266.666992188 l 1,51,-1
 341.333007812 266.666992188 l 1,48,-1
405.333007812 202.666992188 m 1,52,-1
 405.333007812 245.333007812 l 1,53,-1
 362.666992188 245.333007812 l 1,54,-1
 362.666992188 202.666992188 l 1,55,-1
 405.333007812 202.666992188 l 1,52,-1
405.333007812 266.666992188 m 1,56,-1
 405.333007812 309.333007812 l 1,57,-1
 362.666992188 309.333007812 l 1,58,-1
 362.666992188 266.666992188 l 1,59,-1
 405.333007812 266.666992188 l 1,56,-1
EndSplineSet
Validated: 1
EndChar

StartChar: hand-controllers
Encoding: 101 101 6
Width: 512
GlyphClass: 2
Flags: W
LayerCount: 2
Fore
SplineSet
141 268 m 2,0,-1
 138 268 l 2,1,2
 125 268 125 268 125 281 c 128,-1,3
 125 294 125 294 138 294 c 2,4,-1
 141 294 l 2,5,6
 154 294 154 294 154 281 c 128,-1,7
 154 268 154 268 141 268 c 2,0,-1
169 294 m 2,8,-1
 166 294 l 2,9,10
 153 294 153 294 153 307 c 128,-1,11
 153 320 153 320 166 320 c 2,12,-1
 169 320 l 2,13,14
 182 320 182 320 182 307 c 128,-1,15
 182 294 182 294 169 294 c 2,8,-1
157 125 m 2,16,-1
 146 125 l 2,17,18
 123 125 123 125 109.5 141 c 128,-1,19
 96 157 96 157 96 185 c 2,20,-1
 86 328 l 2,21,22
 86 353 86 353 103.5 371 c 128,-1,23
 121 389 121 389 146 389 c 2,24,-1
 157 389 l 2,25,26
 182 389 182 389 199.5 371.5 c 128,-1,27
 217 354 217 354 217 329 c 2,28,-1
 217 328 l 1,29,-1
 207 184 l 2,30,31
 207 157 207 157 193.5 141 c 128,-1,32
 180 125 180 125 157 125 c 2,16,-1
146 363 m 2,33,34
 132 363 132 363 122 353 c 128,-1,35
 112 343 112 343 112 329 c 2,36,-1
 122 186 l 2,37,38
 122 151 122 151 146 151 c 2,39,-1
 157 151 l 2,40,41
 181 151 181 151 181 185 c 2,42,-1
 191 329 l 2,43,44
 190 343 190 343 180 353 c 128,-1,45
 170 363 170 363 157 363 c 2,46,-1
 146 363 l 2,33,34
349 294 m 128,-1,48
 336 294 336 294 336 307 c 2,49,-1
 336 309 l 2,50,51
 336 322 336 322 349 322 c 128,-1,52
 362 322 362 322 362 309 c 2,53,-1
 362 307 l 2,54,47
 362 294 362 294 349 294 c 128,-1,48
376 265 m 128,-1,56
 363 265 363 265 363 278 c 2,57,-1
 363 281 l 2,58,59
 363 294 363 294 376 294 c 128,-1,60
 389 294 389 294 389 281 c 2,61,-1
 389 278 l 2,62,55
 389 265 389 265 376 265 c 128,-1,56
365 125 m 2,63,-1
 355 125 l 2,64,65
 332 125 332 125 318 141 c 128,-1,66
 304 157 304 157 304 185 c 2,67,-1
 295 328 l 2,68,69
 295 353 295 353 312.5 371 c 128,-1,70
 330 389 330 389 355 389 c 2,71,-1
 365 389 l 2,72,73
 390 389 390 389 407.5 371.5 c 128,-1,74
 425 354 425 354 425 329 c 2,75,-1
 425 328 l 1,76,-1
 416 184 l 2,77,78
 416 157 416 157 402 141 c 128,-1,79
 388 125 388 125 365 125 c 2,63,-1
355 363 m 2,80,81
 341 363 341 363 331 353 c 128,-1,82
 321 343 321 343 321 329 c 2,83,-1
 330 186 l 2,84,85
 330 151 330 151 355 151 c 2,86,-1
 366 151 l 2,87,88
 390 151 390 151 390 185 c 2,89,-1
 399 329 l 2,90,91
 399 343 399 343 389.5 353 c 128,-1,92
 380 363 380 363 366 363 c 2,93,-1
 355 363 l 2,80,81
EndSplineSet
Validated: 513
EndChar

StartChar: headphones-mic
Encoding: 102 102 7
Width: 512
GlyphClass: 2
Flags: W
LayerCount: 2
Fore
SplineSet
256 458.666992188 m 128,-1,1
 335.519775391 458.666992188 335.519775391 458.666992188 391.759887695 402.426879883 c 128,-1,2
 448 346.186767578 448 346.186767578 448 266.666992188 c 2,3,-1
 448 53.3330078125 l 2,4,5
 448 26.7731933594 448 26.7731933594 429.279907227 8.05310058594 c 128,-1,6
 410.559814453 -10.6669921875 410.559814453 -10.6669921875 384 -10.6669921875 c 2,7,-1
 256 -10.6669921875 l 1,8,-1
 256 32 l 1,9,-1
 405.333007812 32 l 1,10,-1
 405.333007812 53.3330078125 l 1,11,-1
 320 53.3330078125 l 1,12,-1
 320 224 l 1,13,-1
 405.333007812 224 l 1,14,-1
 405.333007812 266.666992188 l 2,15,16
 405.333007812 328.586669922 405.333007812 328.586669922 361.626342773 372.293334961 c 128,-1,17
 317.919677734 416 317.919677734 416 256 416 c 128,-1,18
 194.080322266 416 194.080322266 416 150.373657227 372.293334961 c 128,-1,19
 106.666992188 328.586669922 106.666992188 328.586669922 106.666992188 266.666992188 c 2,20,-1
 106.666992188 224 l 1,21,-1
 192 224 l 1,22,-1
 192 53.3330078125 l 1,23,-1
 128 53.3330078125 l 2,24,25
 101.440185547 53.3330078125 101.440185547 53.3330078125 82.7200927734 72.0531005859 c 128,-1,26
 64 90.7731933594 64 90.7731933594 64 117.333007812 c 2,27,-1
 64 266.666992188 l 2,28,29
 64 346.186767578 64 346.186767578 120.240112305 402.426879883 c 128,-1,0
 176.480224609 458.666992188 176.480224609 458.666992188 256 458.666992188 c 128,-1,1
EndSplineSet
Validated: 513
EndChar

StartChar: gamepad
Encoding: 103 103 8
Width: 512
GlyphClass: 2
Flags: W
LayerCount: 2
Fore
SplineSet
460.373046875 136.747070312 m 2,0,1
 463.893617457 112.103076238 463.893617457 112.103076238 447.624788529 93.3850342126 c 128,-1,2
 431.355959601 74.6669921875 431.355959601 74.6669921875 406.400390625 74.6669921875 c 0,3,4
 384 74.6669921875 384 74.6669921875 368 90.6669921875 c 2,5,-1
 320 138.666992188 l 1,6,-1
 192 138.666992188 l 1,7,-1
 143.787109375 90.6669921875 l 2,8,9
 127.787109375 74.6669921875 127.787109375 74.6669921875 105.38671875 74.6669921875 c 0,10,11
 80.5737815749 74.6669921875 80.5737815749 74.6669921875 64.341286628 93.3934661966 c 128,-1,12
 48.1087916812 112.119940206 48.1087916812 112.119940206 51.626953125 136.747070312 c 2,13,-1
 74.8798828125 300.16015625 l 2,14,15
 79.3578174991 331.663821321 79.3578174991 331.663821321 103.43063427 352.498414567 c 128,-1,16
 127.503451042 373.333007812 127.503451042 373.333007812 159.360351562 373.333007812 c 2,17,-1
 352.639648438 373.333007812 l 2,18,19
 373.584348191 373.333007812 373.584348191 373.333007812 391.892429211 363.868256253 c 128,-1,20
 410.200510231 354.403504693 410.200510231 354.403504693 422.187648914 337.642485935 c 128,-1,21
 434.174787597 320.881467176 434.174787597 320.881467176 437.120117188 300.16015625 c 2,22,-1
 460.373046875 136.747070312 l 2,0,1
234.666992188 245.333007812 m 1,23,-1
 234.666992188 266.666992188 l 1,24,-1
 192 266.666992188 l 1,25,-1
 192 309.333007812 l 1,26,-1
 170.666992188 309.333007812 l 1,27,-1
 170.666992188 266.666992188 l 1,28,-1
 128 266.666992188 l 1,29,-1
 128 245.333007812 l 1,30,-1
 170.666992188 245.333007812 l 1,31,-1
 170.666992188 202.666992188 l 1,32,-1
 192 202.666992188 l 1,33,-1
 192 245.333007812 l 1,34,-1
 234.666992188 245.333007812 l 1,23,-1
320 266.666992188 m 128,-1,36
 328.800048828 266.666992188 328.800048828 266.666992188 335.06652832 272.93347168 c 128,-1,37
 341.333007812 279.199951172 341.333007812 279.199951172 341.333007812 288 c 128,-1,38
 341.333007812 296.800048828 341.333007812 296.800048828 335.06652832 303.06652832 c 128,-1,39
 328.800048828 309.333007812 328.800048828 309.333007812 320 309.333007812 c 128,-1,40
 311.199951172 309.333007812 311.199951172 309.333007812 304.93347168 303.06652832 c 128,-1,41
 298.666992188 296.800048828 298.666992188 296.800048828 298.666992188 288 c 128,-1,42
 298.666992188 279.199951172 298.666992188 279.199951172 304.93347168 272.93347168 c 128,-1,35
 311.199951172 266.666992188 311.199951172 266.666992188 320 266.666992188 c 128,-1,36
362.666992188 202.666992188 m 128,-1,44
 371.467041016 202.666992188 371.467041016 202.666992188 377.733520508 208.93347168 c 128,-1,45
 384 215.199951172 384 215.199951172 384 224 c 128,-1,46
 384 232.800048828 384 232.800048828 377.733520508 239.06652832 c 128,-1,47
 371.467041016 245.333007812 371.467041016 245.333007812 362.666992188 245.333007812 c 128,-1,48
 353.866850752 245.333007812 353.866850752 245.333007812 347.599929282 239.066482019 c 128,-1,49
 341.333007812 232.799956226 341.333007812 232.799956226 341.333007812 224 c 128,-1,50
 341.333007812 215.200043774 341.333007812 215.200043774 347.599929282 208.933517981 c 128,-1,43
 353.866850752 202.666992188 353.866850752 202.666992188 362.666992188 202.666992188 c 128,-1,44
EndSplineSet
Validated: 33
EndChar

StartChar: headphones
Encoding: 104 104 9
Width: 512
GlyphClass: 2
Flags: W
LayerCount: 2
Fore
SplineSet
256 458.666992188 m 128,-1,1
 335.519775391 458.666992188 335.519775391 458.666992188 391.759887695 402.426879883 c 128,-1,2
 448 346.186767578 448 346.186767578 448 266.666992188 c 2,3,-1
 448 117.333007812 l 2,4,5
 448 90.7731933594 448 90.7731933594 429.279907227 72.0531005859 c 128,-1,6
 410.559814453 53.3330078125 410.559814453 53.3330078125 384 53.3330078125 c 2,7,-1
 320 53.3330078125 l 1,8,-1
 320 224 l 1,9,-1
 405.333007812 224 l 1,10,-1
 405.333007812 266.666992188 l 2,11,12
 405.333007812 328.586669922 405.333007812 328.586669922 361.626342773 372.293334961 c 128,-1,13
 317.919677734 416 317.919677734 416 256 416 c 128,-1,14
 194.080322266 416 194.080322266 416 150.373657227 372.293334961 c 128,-1,15
 106.666992188 328.586669922 106.666992188 328.586669922 106.666992188 266.666992188 c 2,16,-1
 106.666992188 224 l 1,17,-1
 192 224 l 1,18,-1
 192 53.3330078125 l 1,19,-1
 128 53.3330078125 l 2,20,21
 101.440185547 53.3330078125 101.440185547 53.3330078125 82.7200927734 72.0531005859 c 128,-1,22
 64 90.7731933594 64 90.7731933594 64 117.333007812 c 2,23,-1
 64 266.666992188 l 2,24,25
 64 346.186767578 64 346.186767578 120.240112305 402.426879883 c 128,-1,0
 176.480224609 458.666992188 176.480224609 458.666992188 256 458.666992188 c 128,-1,1
EndSplineSet
Validated: 1
EndChar

StartChar: upload
Encoding: 106 106 10
Width: 512
GlyphClass: 2
Flags: W
LayerCount: 2
Fore
SplineSet
412.799804688 265.813476562 m 1,0,1
 454.57430965 262.921519918 454.57430965 262.921519918 483.287154825 232.49450431 c 128,-1,2
 512 202.067488703 512 202.067488703 512 160 c 0,3,4
 512 115.840087891 512 115.840087891 480.746459961 84.5865478516 c 128,-1,5
 449.492919922 53.3330078125 449.492919922 53.3330078125 405.333007812 53.3330078125 c 2,6,-1
 128 53.3330078125 l 2,7,8
 75.0400390625 53.3330078125 75.0400390625 53.3330078125 37.5200195312 90.8530273438 c 128,-1,9
 0 128.373046875 0 128.373046875 0 181.333007812 c 0,10,11
 0 230.562242909 0 230.562242909 32.8813746468 266.949977691 c 128,-1,12
 65.7627492937 303.337712473 65.7627492937 303.337712473 114.133789062 308.48046875 c 1,13,14
 134.476279289 347.538407576 134.476279289 347.538407576 172.477645992 371.102699882 c 128,-1,15
 210.479012695 394.666992188 210.479012695 394.666992188 256 394.666992188 c 0,16,17
 294.159960825 394.666992188 294.159960825 394.666992188 327.587839553 377.859336541 c 128,-1,18
 361.015718282 361.051680894 361.015718282 361.051680894 383.309621384 331.687538459 c 128,-1,19
 405.603524487 302.323396024 405.603524487 302.323396024 412.799804688 265.813476562 c 1,0,1
298.666992188 202.666992188 m 1,20,-1
 362.666992188 202.666992188 l 1,21,-1
 256 309.333007812 l 1,22,-1
 149.333007812 202.666992188 l 1,23,-1
 213.333007812 202.666992188 l 1,24,-1
 213.333007812 117.333007812 l 1,25,-1
 298.666992188 117.333007812 l 1,26,-1
 298.666992188 202.666992188 l 1,20,-1
EndSplineSet
Validated: 1
EndChar

StartChar: script
Encoding: 107 107 11
Width: 512
GlyphClass: 2
Flags: W
LayerCount: 2
Fore
SplineSet
283 80 m 2,0,-1
 133 80 l 2,1,2
 86 80 86 80 60 124 c 0,3,4
 54 133 54 133 50 143.5 c 128,-1,5
 46 154 46 154 44 160 c 2,6,-1
 43 166 l 1,7,-1
 40 181 l 1,8,-1
 131 181 l 1,9,-1
 131 433 l 1,10,-1
 446 433 l 1,11,-1
 446 195 l 2,12,13
 446 189 446 189 447 176 c 128,-1,14
 448 163 448 163 442.5 142 c 128,-1,15
 437 121 437 121 425 108 c 0,16,17
 406 87 406 87 375 87 c 0,18,19
 325 87 325 87 302 128 c 0,20,21
 294 143 294 143 292 157 c 1,22,-1
 72 157 l 1,23,24
 75 147 75 147 81 137 c 0,25,26
 101 105 101 105 133 105 c 2,27,-1
 283 105 l 2,28,29
 296 105 296 105 296 92 c 0,30,31
 296 87 296 87 292 83.5 c 128,-1,32
 288 80 288 80 283 80 c 2,0,-1
156 181 m 1,33,-1
 314 181 l 1,34,-1
 315 169 l 2,35,36
 316 154 316 154 324 139 c 0,37,38
 340 111 340 111 375 111 c 0,39,40
 393 111 393 111 406 124 c 0,41,42
 419 138 419 138 421 166 c 2,43,-1
 421 193 l 1,44,-1
 421 194 l 1,45,-1
 421 408 l 1,46,-1
 156 408 l 1,47,-1
 156 181 l 1,33,-1
381 349 m 2,48,-1
 196 349 l 2,49,50
 182 349 182 349 182 362 c 0,51,52
 182 376 182 376 196 376 c 2,53,-1
 381 376 l 2,54,55
 395 376 395 376 395 362 c 0,56,57
 395 349 395 349 381 349 c 2,48,-1
381 288 m 2,58,-1
 196 288 l 2,59,60
 190 288 190 288 186 292.5 c 128,-1,61
 182 297 182 297 182 302 c 0,62,63
 182 316 182 316 196 316 c 2,64,-1
 381 316 l 2,65,66
 395 316 395 316 395 302 c 0,67,68
 395 297 395 297 391 292.5 c 128,-1,69
 387 288 387 288 381 288 c 2,58,-1
381 228 m 2,70,-1
 196 228 l 2,71,72
 182 228 182 228 182 242 c 0,73,74
 182 255 182 255 196 255 c 2,75,-1
 381 255 l 2,76,77
 395 255 395 255 395 242 c 0,78,79
 395 228 395 228 381 228 c 2,70,-1
EndSplineSet
Validated: 33
EndChar

StartChar: text
Encoding: 108 108 12
Width: 512
GlyphClass: 2
Flags: W
LayerCount: 2
Fore
SplineSet
220 134 m 2,0,-1
 139 366 l 2,1,2
 137 370 137 370 133 370 c 2,3,-1
 123 370 l 2,4,5
 119 370 119 370 117 366 c 2,6,-1
 34 133 l 2,7,8
 33 130 33 130 35 126 c 0,9,10
 38 123 38 123 41 123 c 2,11,-1
 57 123 l 2,12,13
 60 123 60 123 63 128 c 2,14,-1
 90 207 l 1,15,-1
 164 207 l 1,16,-1
 191 128 l 2,17,18
 194 123 194 123 198 123 c 2,19,-1
 214 123 l 2,20,21
 217 123 217 123 219 127 c 0,22,23
 222 128 222 128 220 134 c 2,0,-1
100 236 m 1,24,-1
 126 309 l 2,25,26
 126 310 126 310 127 311.5 c 128,-1,27
 128 313 128 313 128 314 c 1,28,29
 128 312 128 312 130 310 c 2,30,-1
 154 236 l 1,31,-1
 100 236 l 1,24,-1
352 296 m 0,32,33
 337 314 337 314 308 314 c 0,34,35
 283 314 283 314 255 300 c 0,36,37
 250 297 250 297 252 291 c 2,38,-1
 257 277 l 2,39,40
 258 274 258 274 261 273 c 0,41,42
 263 272 263 272 267 274 c 0,43,44
 288 286 288 286 308 286 c 0,45,46
 325 286 325 286 331 276 c 0,47,48
 339 265 339 265 339 243 c 2,49,-1
 339 239 l 1,50,-1
 316 238 l 2,51,52
 280 238 280 238 258 222 c 0,53,54
 237 206 237 206 237 177 c 0,55,56
 237 150 237 150 251 137 c 0,57,58
 267 121 267 121 291 121 c 0,59,60
 309 121 309 121 323 129 c 0,61,62
 332 135 332 135 340 143 c 1,63,-1
 341 130 l 2,64,65
 343 123 343 123 348 123 c 2,66,-1
 358 123 l 2,67,68
 366 123 366 123 366 131 c 2,69,-1
 366 246 l 2,70,71
 366 279 366 279 352 296 c 0,32,33
265 177 m 0,72,73
 265 193 265 193 276 201 c 0,74,75
 290 210 290 210 318 211 c 2,76,-1
 337 212 l 1,77,-1
 337 202 l 2,78,79
 337 176 337 176 325 163 c 256,80,81
 313 150 313 150 292 150 c 0,82,83
 278 150 278 150 272 157 c 0,84,85
 265 163 265 163 265 177 c 0,72,73
451 72 m 0,86,87
 436 72 436 72 436 90 c 2,88,-1
 436 410 l 2,89,90
 436 429 436 429 451 429 c 128,-1,91
 466 429 466 429 466 411 c 0,92,93
 467 389 467 389 467 90 c 0,94,95
 467 72 467 72 451 72 c 0,86,87
EndSplineSet
Validated: 9
EndChar

StartChar: cube
Encoding: 109 109 13
Width: 512
GlyphClass: 2
Flags: W
LayerCount: 2
Fore
SplineSet
452 421 m 2,0,-1
 189 447 l 2,1,2
 183 447 183 447 181 445 c 2,3,-1
 55 357 l 1,4,-1
 54 356 l 2,5,6
 50 352 50 352 50 346 c 2,7,-1
 50 83 l 2,8,9
 50 72 50 72 62 70 c 2,10,-1
 324 44 l 1,11,-1
 325 44 l 2,12,13
 327 44 327 44 333 46 c 2,14,-1
 459 135 l 1,15,-1
 459 136 l 1,16,17
 463 139 463 139 463 145 c 2,18,-1
 463 408 l 2,19,20
 463 419 463 419 452 421 c 2,0,-1
430 147 m 2,21,-1
 428 146 l 1,22,-1
 428 145 l 1,23,-1
 339 83 l 1,24,-1
 339 313 l 1,25,-1
 437 382 l 1,26,-1
 437 160 l 2,27,28
 436 151 436 151 430 147 c 2,21,-1
203 419 m 1,29,-1
 414 398 l 1,30,-1
 322 333 l 1,31,-1
 100 355 l 1,32,-1
 186 416 l 1,33,-1
 187 416 l 1,34,35
 193 420 193 420 198 420 c 0,36,37
 199 420 199 420 201 420 c 2,38,-1
 203 419 l 1,29,-1
313 72 m 1,39,-1
 76 95 l 1,40,-1
 76 331 l 1,41,-1
 313 308 l 1,42,-1
 313 72 l 1,39,-1
EndSplineSet
Validated: 9
EndChar

StartChar: sphere
Encoding: 110 110 14
Width: 512
GlyphClass: 2
Flags: W
LayerCount: 2
Fore
SplineSet
418 415 m 0,0,1
 350 483 350 483 254 483 c 128,-1,2
 158 483 158 483 91 415 c 0,3,4
 23 349 23 349 23 252 c 0,5,6
 23 156 23 156 91 88 c 0,7,8
 158 21 158 21 254 21 c 0,9,10
 351 21 351 21 418 88 c 0,11,12
 486 158 486 158 486 252 c 0,13,14
 484 349 484 349 418 415 c 0,0,1
113 393 m 0,15,16
 159 439 159 439 219 448 c 1,17,18
 209 434 209 434 199 404 c 0,19,20
 179 341 179 341 179 250 c 2,21,-1
 179 240 l 1,22,23
 191 238 191 238 198 237 c 2,24,-1
 204 237 l 1,25,-1
 204 250 l 2,26,27
 204 332 204 332 220.5 388 c 128,-1,28
 237 444 237 444 256 450 c 1,29,-1
 257 451 l 1,30,31
 337 451 337 451 395 393 c 0,32,33
 452 336 452 336 454 256 c 1,34,35
 450 237 450 237 393 220 c 128,-1,36
 336 203 336 203 254 203 c 0,37,38
 173 203 173 203 117 219.5 c 128,-1,39
 61 236 61 236 54 255 c 1,40,41
 56 336 56 336 113 393 c 0,15,16
396 110 m 0,42,43
 335 50 335 50 252 52 c 1,44,45
 227 68 227 68 212 149 c 1,46,-1
 187 150 l 1,47,48
 192 116 192 116 199 96 c 0,49,50
 207 72 207 72 216 56 c 1,51,52
 156 67 156 67 113 110 c 0,53,54
 68 155 68 155 57 217 c 1,55,56
 74 206 74 206 99 199 c 0,57,58
 162 178 162 178 254 178 c 128,-1,59
 346 178 346 178 408 199 c 0,60,61
 431 205 431 205 451 218 c 1,62,63
 440 156 440 156 396 110 c 0,42,43
EndSplineSet
Validated: 41
EndChar

StartChar: zone
Encoding: 111 111 15
Width: 512
GlyphClass: 2
Flags: W
LayerCount: 2
Fore
SplineSet
381 372 m 0,0,1
 376 383 376 383 364 383 c 2,2,-1
 292 383 l 1,3,-1
 292 349 l 1,4,-1
 322 349 l 1,5,-1
 159 186 l 1,6,-1
 159 222 l 1,7,-1
 123 222 l 1,8,-1
 123 143 l 1,9,-1
 124 143 l 1,10,11
 124 141 124 141 126 137 c 0,12,13
 129 126 129 126 142 126 c 2,14,-1
 225 126 l 1,15,-1
 225 161 l 1,16,-1
 184 161 l 1,17,-1
 346 322 l 1,18,-1
 346 297 l 1,19,-1
 381 297 l 1,20,-1
 381 359 l 2,21,22
 383 366 383 366 381 372 c 0,0,1
338 74 m 128,-1,24
 338 83 338 83 344.5 89.5 c 128,-1,25
 351 96 351 96 360 96 c 128,-1,26
 369 96 369 96 375.5 89.5 c 128,-1,27
 382 83 382 83 382 74 c 128,-1,28
 382 65 382 65 375.5 59 c 128,-1,29
 369 53 369 53 360 53 c 128,-1,30
 351 53 351 53 344.5 59 c 128,-1,23
 338 65 338 65 338 74 c 128,-1,24
267 74 m 128,-1,32
 267 83 267 83 273.5 89.5 c 128,-1,33
 280 96 280 96 289 96 c 128,-1,34
 298 96 298 96 304 89.5 c 128,-1,35
 310 83 310 83 310 74 c 128,-1,36
 310 65 310 65 304 59 c 128,-1,37
 298 53 298 53 289 53 c 128,-1,38
 280 53 280 53 273.5 59 c 128,-1,31
 267 65 267 65 267 74 c 128,-1,32
195 74 m 128,-1,40
 195 83 195 83 201.5 89.5 c 128,-1,41
 208 96 208 96 217 96 c 128,-1,42
 226 96 226 96 232.5 89.5 c 128,-1,43
 239 83 239 83 239 74 c 128,-1,44
 239 65 239 65 232.5 59 c 128,-1,45
 226 53 226 53 217 53 c 128,-1,46
 208 53 208 53 201.5 59 c 128,-1,39
 195 65 195 65 195 74 c 128,-1,40
124 74 m 128,-1,48
 124 83 124 83 130.5 89.5 c 128,-1,49
 137 96 137 96 146 96 c 128,-1,50
 155 96 155 96 161 89.5 c 128,-1,51
 167 83 167 83 167 74 c 128,-1,52
 167 65 167 65 161 59 c 128,-1,53
 155 53 155 53 146 53 c 128,-1,54
 137 53 137 53 130.5 59 c 128,-1,47
 124 65 124 65 124 74 c 128,-1,48
74 53 m 128,-1,56
 65 53 65 53 59 59 c 0,57,58
 52 66 52 66 52 74 c 0,59,60
 52 83 52 83 59 90 c 0,61,62
 65 96 65 96 74 96 c 128,-1,63
 83 96 83 96 89 90 c 0,64,65
 96 83 96 83 96 74 c 128,-1,66
 96 65 96 65 89 59 c 0,67,55
 83 53 83 53 74 53 c 128,-1,56
52 146 m 128,-1,69
 52 155 52 155 58.5 161.5 c 128,-1,70
 65 168 65 168 74 168 c 128,-1,71
 83 168 83 168 89.5 161.5 c 128,-1,72
 96 155 96 155 96 146 c 128,-1,73
 96 137 96 137 89.5 130.5 c 128,-1,74
 83 124 83 124 74 124 c 128,-1,75
 65 124 65 124 58.5 130.5 c 128,-1,68
 52 137 52 137 52 146 c 128,-1,69
52 217 m 128,-1,77
 52 226 52 226 58.5 232.5 c 128,-1,78
 65 239 65 239 74 239 c 128,-1,79
 83 239 83 239 89.5 232.5 c 128,-1,80
 96 226 96 226 96 217 c 128,-1,81
 96 208 96 208 89.5 202 c 128,-1,82
 83 196 83 196 74 196 c 128,-1,83
 65 196 65 196 58.5 202 c 128,-1,76
 52 208 52 208 52 217 c 128,-1,77
52 289 m 128,-1,85
 52 298 52 298 58.5 304.5 c 128,-1,86
 65 311 65 311 74 311 c 128,-1,87
 83 311 83 311 89.5 304.5 c 128,-1,88
 96 298 96 298 96 289 c 128,-1,89
 96 280 96 280 89.5 273.5 c 128,-1,90
 83 267 83 267 74 267 c 128,-1,91
 65 267 65 267 58.5 273.5 c 128,-1,84
 52 280 52 280 52 289 c 128,-1,85
52 360 m 128,-1,93
 52 369 52 369 58.5 375.5 c 128,-1,94
 65 382 65 382 74 382 c 128,-1,95
 83 382 83 382 89.5 375.5 c 128,-1,96
 96 369 96 369 96 360 c 128,-1,97
 96 351 96 351 89.5 345 c 128,-1,98
 83 339 83 339 74 339 c 128,-1,99
 65 339 65 339 58.5 345 c 128,-1,92
 52 351 52 351 52 360 c 128,-1,93
338 432 m 128,-1,101
 338 441 338 441 344.5 447.5 c 128,-1,102
 351 454 351 454 360 454 c 128,-1,103
 369 454 369 454 375.5 447.5 c 128,-1,104
 382 441 382 441 382 432 c 128,-1,105
 382 423 382 423 375.5 416.5 c 128,-1,106
 369 410 369 410 360 410 c 128,-1,107
 351 410 351 410 344.5 416.5 c 128,-1,100
 338 423 338 423 338 432 c 128,-1,101
267 432 m 128,-1,109
 267 441 267 441 273.5 447.5 c 128,-1,110
 280 454 280 454 289 454 c 128,-1,111
 298 454 298 454 304 447.5 c 128,-1,112
 310 441 310 441 310 432 c 128,-1,113
 310 423 310 423 304 416.5 c 128,-1,114
 298 410 298 410 289 410 c 128,-1,115
 280 410 280 410 273.5 416.5 c 128,-1,108
 267 423 267 423 267 432 c 128,-1,109
195 432 m 128,-1,117
 195 441 195 441 201.5 447.5 c 128,-1,118
 208 454 208 454 217 454 c 128,-1,119
 226 454 226 454 232.5 447.5 c 128,-1,120
 239 441 239 441 239 432 c 128,-1,121
 239 423 239 423 232.5 416.5 c 128,-1,122
 226 410 226 410 217 410 c 128,-1,123
 208 410 208 410 201.5 416.5 c 128,-1,116
 195 423 195 423 195 432 c 128,-1,117
124 432 m 128,-1,125
 124 441 124 441 130.5 447.5 c 128,-1,126
 137 454 137 454 146 454 c 128,-1,127
 155 454 155 454 161 447.5 c 128,-1,128
 167 441 167 441 167 432 c 128,-1,129
 167 423 167 423 161 416.5 c 128,-1,130
 155 410 155 410 146 410 c 128,-1,131
 137 410 137 410 130.5 416.5 c 128,-1,124
 124 423 124 423 124 432 c 128,-1,125
432 410 m 0,132,133
 423 410 423 410 416 417 c 0,134,135
 410 423 410 423 410 432 c 128,-1,136
 410 441 410 441 416 447 c 0,137,138
 423 454 423 454 432 454 c 0,139,140
 440 454 440 454 447 447 c 0,141,142
 453 441 453 441 453 432 c 128,-1,143
 453 423 453 423 447 417 c 0,144,145
 440 410 440 410 432 410 c 0,132,133
410 146 m 128,-1,147
 410 155 410 155 416.5 161.5 c 128,-1,148
 423 168 423 168 432 168 c 128,-1,149
 441 168 441 168 447 161.5 c 128,-1,150
 453 155 453 155 453 146 c 128,-1,151
 453 137 453 137 447 130.5 c 128,-1,152
 441 124 441 124 432 124 c 128,-1,153
 423 124 423 124 416.5 130.5 c 128,-1,146
 410 137 410 137 410 146 c 128,-1,147
410 217 m 128,-1,155
 410 226 410 226 416.5 232.5 c 128,-1,156
 423 239 423 239 432 239 c 128,-1,157
 441 239 441 239 447 232.5 c 128,-1,158
 453 226 453 226 453 217 c 128,-1,159
 453 208 453 208 447 202 c 128,-1,160
 441 196 441 196 432 196 c 128,-1,161
 423 196 423 196 416.5 202 c 128,-1,154
 410 208 410 208 410 217 c 128,-1,155
410 289 m 128,-1,163
 410 298 410 298 416.5 304.5 c 128,-1,164
 423 311 423 311 432 311 c 128,-1,165
 441 311 441 311 447 304.5 c 128,-1,166
 453 298 453 298 453 289 c 128,-1,167
 453 280 453 280 447 273.5 c 128,-1,168
 441 267 441 267 432 267 c 128,-1,169
 423 267 423 267 416.5 273.5 c 128,-1,162
 410 280 410 280 410 289 c 128,-1,163
410 360 m 128,-1,171
 410 369 410 369 416.5 375.5 c 128,-1,172
 423 382 423 382 432 382 c 128,-1,173
 441 382 441 382 447 375.5 c 128,-1,174
 453 369 453 369 453 360 c 128,-1,175
 453 351 453 351 447 345 c 128,-1,176
 441 339 441 339 432 339 c 128,-1,177
 423 339 423 339 416.5 345 c 128,-1,170
 410 351 410 351 410 360 c 128,-1,171
EndSplineSet
Validated: 9
EndChar

StartChar: light
Encoding: 112 112 16
Width: 512
GlyphClass: 2
Flags: W
LayerCount: 2
Fore
SplineSet
298 259 m 128,-1,1
 298 243 298 243 286.5 232 c 128,-1,2
 275 221 275 221 259 221 c 128,-1,3
 243 221 243 221 232 232 c 128,-1,4
 221 243 221 243 221 259 c 128,-1,5
 221 275 221 275 232 286.5 c 128,-1,6
 243 298 243 298 259 298 c 128,-1,7
 275 298 275 298 286.5 286.5 c 128,-1,0
 298 275 298 275 298 259 c 128,-1,1
259 150 m 128,-1,9
 214 150 214 150 182 182 c 128,-1,10
 150 214 150 214 150 259 c 0,11,12
 150 305 150 305 182 337 c 128,-1,13
 214 369 214 369 259 369 c 0,14,15
 305 369 305 369 337 337 c 128,-1,16
 369 305 369 305 369 259 c 0,17,18
 369 214 369 214 336.5 182 c 128,-1,8
 304 150 304 150 259 150 c 128,-1,9
259 340 m 0,19,20
 226 340 226 340 202.5 316.5 c 128,-1,21
 179 293 179 293 179 259 c 0,22,23
 179 226 179 226 202.5 202.5 c 128,-1,24
 226 179 226 179 259 179 c 0,25,26
 293 179 293 179 316.5 202.5 c 128,-1,27
 340 226 340 226 340 259 c 0,28,29
 340 293 340 293 316.5 316.5 c 128,-1,30
 293 340 293 340 259 340 c 0,19,20
414 243 m 0,31,32
 400 243 400 243 400 258 c 0,33,34
 400 272 400 272 414 272 c 2,35,-1
 466 272 l 2,36,37
 480 272 480 272 480 258 c 128,-1,38
 480 244 480 244 466 244 c 0,39,40
 431 244 431 244 414 243 c 0,31,32
106 243 m 0,41,42
 89 244 89 244 54 244 c 0,43,44
 40 244 40 244 40 258 c 0,45,46
 40 264 40 264 44.5 268 c 128,-1,47
 49 272 49 272 54 272 c 2,48,-1
 55 272 l 1,49,-1
 106 272 l 2,50,51
 112 272 112 272 116 267.5 c 128,-1,52
 120 263 120 263 120 258 c 0,53,54
 120 243 120 243 106 243 c 0,41,42
369 352 m 128,-1,56
 364 352 364 352 359 357 c 0,57,58
 350 366 350 366 359 377 c 2,59,-1
 395 413 l 2,60,61
 405 423 405 423 416 414 c 0,62,63
 425 404 425 404 416 393 c 0,64,65
 410 387 410 387 397.5 375 c 128,-1,66
 385 363 385 363 379 357 c 0,67,55
 374 352 374 352 369 352 c 128,-1,56
114 98 m 0,68,69
 109 98 109 98 104 103 c 0,70,71
 95 112 95 112 104 123 c 0,72,73
 117 135 117 135 141 159 c 0,74,75
 152 168 152 168 161 159 c 0,76,77
 172 148 172 148 161 139 c 0,78,79
 143 120 143 120 124 102 c 0,80,81
 120 98 120 98 114 98 c 0,68,69
260 398 m 0,82,83
 246 398 246 398 246 412 c 2,84,-1
 246 464 l 2,85,86
 246 469 246 469 250 473.5 c 128,-1,87
 254 478 254 478 260 478 c 0,88,89
 274 478 274 478 274 464 c 0,90,91
 274 455 274 455 274.5 437.5 c 128,-1,92
 275 420 275 420 275 412 c 0,93,94
 275 398 275 398 260 398 c 0,82,83
260 38 m 128,-1,96
 246 38 246 38 246 52 c 2,97,-1
 246 104 l 2,98,99
 246 118 246 118 260 118 c 0,100,101
 266 118 266 118 270.5 113.5 c 128,-1,102
 275 109 275 109 275 104 c 0,103,104
 275 95 275 95 274.5 77.5 c 128,-1,105
 274 60 274 60 274 52 c 0,106,95
 274 38 274 38 260 38 c 128,-1,96
151 353 m 0,107,108
 145 353 145 353 141 357 c 2,109,-1
 105 393 l 2,110,111
 94 404 94 404 104 413 c 0,112,113
 114 424 114 424 125 413 c 2,114,-1
 161 377 l 2,115,116
 172 366 172 366 161 357 c 0,117,118
 158 353 158 353 151 353 c 0,107,108
405 98 m 0,119,120
 399 98 399 98 395 102 c 0,121,122
 389 108 389 108 377 120.5 c 128,-1,123
 365 133 365 133 359 139 c 0,124,125
 350 150 350 150 359 159 c 0,126,127
 370 170 370 170 379 159 c 2,128,-1
 416 122 l 2,129,130
 426 112 426 112 415 102 c 0,131,132
 412 98 412 98 405 98 c 0,119,120
EndSplineSet
Validated: 33
EndChar

StartChar: web
Encoding: 113 113 17
Width: 512
GlyphClass: 2
Flags: W
LayerCount: 2
Fore
SplineSet
438 390 m 2,0,1
 438 405 438 405 424 405 c 2,2,-1
 91 405 l 2,3,4
 85 405 85 405 80.5 400.5 c 128,-1,5
 76 396 76 396 76 390 c 2,6,-1
 76 92 l 2,7,8
 76 78 76 78 91 78 c 2,9,-1
 424 78 l 2,10,11
 438 78 438 78 438 92 c 2,12,-1
 438 390 l 2,0,1
219 382 m 2,13,-1
 391 382 l 2,14,15
 397 382 397 382 401.5 377.5 c 128,-1,16
 406 373 406 373 406 366 c 128,-1,17
 406 359 406 359 401.5 354.5 c 128,-1,18
 397 350 397 350 391 350 c 2,19,-1
 219 350 l 2,20,21
 213 350 213 350 208.5 354.5 c 128,-1,22
 204 359 204 359 204 366 c 128,-1,23
 204 373 204 373 208.5 377.5 c 128,-1,24
 213 382 213 382 219 382 c 2,13,-1
172 383 m 0,25,26
 188 383 188 383 188 367 c 0,27,28
 188 350 188 350 172 350 c 0,29,30
 155 350 155 350 155 367 c 0,31,32
 155 383 155 383 172 383 c 0,25,26
121 383 m 128,-1,34
 128 383 128 383 133 378.5 c 128,-1,35
 138 374 138 374 138 367 c 128,-1,36
 138 360 138 360 133 355 c 128,-1,37
 128 350 128 350 121 350 c 128,-1,38
 114 350 114 350 109 355 c 128,-1,39
 104 360 104 360 104 367 c 128,-1,40
 104 374 104 374 109 378.5 c 128,-1,33
 114 383 114 383 121 383 c 128,-1,34
412 107 m 1,41,-1
 104 107 l 1,42,-1
 104 326 l 1,43,-1
 412 326 l 1,44,-1
 412 107 l 1,41,-1
162 191 m 1,45,-1
 147 191 l 1,46,-1
 127 251 l 1,47,-1
 140 251 l 1,48,-1
 154 206 l 1,49,-1
 169 251 l 1,50,-1
 182 251 l 1,51,-1
 197 206 l 1,52,-1
 211 251 l 1,53,-1
 224 251 l 1,54,-1
 204 191 l 1,55,-1
 190 191 l 1,56,-1
 176 232 l 1,57,-1
 162 191 l 1,45,-1
299 216 m 1,58,-1
 253 216 l 1,59,60
 253 210 253 210 259 205 c 0,61,62
 265 201 265 201 271 201 c 0,63,64
 281 201 281 201 288 208 c 1,65,-1
 295 200 l 1,66,67
 286 191 286 191 270 191 c 0,68,69
 257 191 257 191 249 199 c 0,70,71
 240 206 240 206 240 221 c 128,-1,72
 240 236 240 236 249 243 c 0,73,74
 258 252 258 252 270 252 c 0,75,76
 281 252 281 252 291 244 c 0,77,78
 299 237 299 237 299 224 c 2,79,-1
 299 216 l 1,58,-1
253 225 m 1,80,-1
 287 225 l 1,81,82
 287 232 287 232 282 237 c 0,83,84
 278 241 278 241 271 241 c 0,85,86
 263 241 263 241 258 237 c 0,87,88
 253 232 253 232 253 225 c 1,80,-1
354 252 m 0,89,90
 365 252 365 252 374 243 c 0,91,92
 383 235 383 235 383 221 c 0,93,94
 383 208 383 208 374 199 c 0,95,96
 367 191 367 191 355 191 c 128,-1,97
 343 191 343 191 334 200 c 1,98,-1
 334 191 l 1,99,-1
 322 191 l 1,100,-1
 322 274 l 1,101,-1
 334 274 l 1,102,-1
 334 240 l 1,103,104
 342 252 342 252 354 252 c 0,89,90
334 221 m 128,-1,106
 334 214 334 214 339 207 c 0,107,108
 344 202 344 202 352 202 c 128,-1,109
 360 202 360 202 365 207 c 0,110,111
 370 214 370 214 370 221 c 128,-1,112
 370 228 370 228 365 235 c 0,113,114
 359 241 359 241 352 241 c 128,-1,115
 345 241 345 241 339 235 c 0,116,105
 334 228 334 228 334 221 c 128,-1,106
EndSplineSet
Validated: 9
EndChar

StartChar: web-2
Encoding: 114 114 18
Width: 512
GlyphClass: 2
Flags: W
LayerCount: 2
Fore
SplineSet
438 390 m 2,0,1
 438 405 438 405 424 405 c 2,2,-1
 91 405 l 2,3,4
 85 405 85 405 80.5 400.5 c 128,-1,5
 76 396 76 396 76 390 c 2,6,-1
 76 92 l 2,7,8
 76 78 76 78 91 78 c 2,9,-1
 424 78 l 2,10,11
 438 78 438 78 438 92 c 2,12,-1
 438 390 l 2,0,1
219 382 m 2,13,-1
 391 382 l 2,14,15
 397 382 397 382 401.5 377.5 c 128,-1,16
 406 373 406 373 406 366 c 128,-1,17
 406 359 406 359 401.5 354.5 c 128,-1,18
 397 350 397 350 391 350 c 2,19,-1
 219 350 l 2,20,21
 213 350 213 350 208.5 354.5 c 128,-1,22
 204 359 204 359 204 366 c 128,-1,23
 204 373 204 373 208.5 377.5 c 128,-1,24
 213 382 213 382 219 382 c 2,13,-1
172 383 m 0,25,26
 188 383 188 383 188 367 c 0,27,28
 188 350 188 350 172 350 c 0,29,30
 155 350 155 350 155 367 c 0,31,32
 155 383 155 383 172 383 c 0,25,26
121 383 m 128,-1,34
 128 383 128 383 133 378.5 c 128,-1,35
 138 374 138 374 138 367 c 128,-1,36
 138 360 138 360 133 355 c 128,-1,37
 128 350 128 350 121 350 c 128,-1,38
 114 350 114 350 109 355 c 128,-1,39
 104 360 104 360 104 367 c 128,-1,40
 104 374 104 374 109 378.5 c 128,-1,33
 114 383 114 383 121 383 c 128,-1,34
412 107 m 1,41,-1
 104 107 l 1,42,-1
 104 326 l 1,43,-1
 412 326 l 1,44,-1
 412 107 l 1,41,-1
EndSplineSet
Validated: 521
EndChar

StartChar: edit
Encoding: 115 115 19
Width: 512
GlyphClass: 2
Flags: W
LayerCount: 2
Fore
SplineSet
196 214 m 1,0,-1
 115 133 l 1,1,-1
 96 152 l 1,2,-1
 177 233 l 1,3,-1
 155 254 l 1,4,5
 145 244 145 244 126 225 c 128,-1,6
 107 206 107 206 92 190.5 c 128,-1,7
 77 175 77 175 63 162 c 0,8,9
 52 151 52 151 51 140 c 0,10,11
 49 120 49 120 40 64 c 1,12,-1
 46 64 l 1,13,-1
 118 79 l 2,14,15
 126 80 126 80 131 86 c 2,16,-1
 227 182 l 1,17,-1
 196 214 l 1,0,-1
322 421 m 1,18,19
 343 442 343 442 355 453 c 0,20,21
 362 460 362 460 369 453 c 2,22,-1
 426 396 l 2,23,24
 432 388 432 388 426 381 c 0,25,26
 404 359 404 359 392 348 c 1,27,28
 346 396 346 396 322 421 c 1,18,19
345 240 m 0,29,30
 338 239 338 239 334 243 c 2,31,-1
 311 266 l 1,32,-1
 366 321 l 1,33,-1
 370 325 l 1,34,35
 358 338 358 338 334.5 362 c 128,-1,36
 311 386 311 386 299 399 c 1,37,38
 298 398 298 398 296.5 396 c 128,-1,39
 295 394 295 394 294 393 c 2,40,-1
 239 338 l 1,41,-1
 138 439 l 2,42,43
 133 444 133 444 130 446 c 0,44,45
 117 457 117 457 100.5 455.5 c 128,-1,46
 84 454 84 454 73 441 c 128,-1,47
 62 428 62 428 62.5 411.5 c 128,-1,48
 63 395 63 395 75 383 c 2,49,-1
 226 232 l 2,50,51
 235 224 235 224 251 207.5 c 128,-1,52
 267 191 267 191 276 183 c 0,53,54
 279 178 279 178 278 175 c 0,55,56
 274 159 274 159 274 152 c 0,57,58
 271 116 271 116 291.5 87.5 c 128,-1,59
 312 59 312 59 347 50 c 0,60,61
 377 42 377 42 405 54 c 1,62,63
 404 56 404 56 400 58 c 2,64,-1
 358 100 l 2,65,66
 341 119 341 119 356 136 c 2,67,-1
 380 160 l 2,68,69
 398 176 398 176 415 160 c 2,70,-1
 421 154 l 2,71,72
 436 140 436 140 464 112 c 0,73,74
 465 112 465 112 466 113 c 0,75,76
 467 117 467 117 468.5 125 c 128,-1,77
 470 133 470 133 470 137 c 0,78,79
 475 189 475 189 435 222 c 128,-1,80
 395 255 395 255 345 240 c 0,29,30
102 402 m 0,81,82
 97 402 97 402 92.5 406 c 128,-1,83
 88 410 88 410 88 416 c 0,84,85
 88 430 88 430 102 430 c 0,86,87
 117 430 117 430 117 416 c 0,88,89
 117 411 117 411 112.5 406.5 c 128,-1,90
 108 402 108 402 102 402 c 0,81,82
300 356 m 1,91,92
 302 354 302 354 306 350.5 c 128,-1,93
 310 347 310 347 313 343.5 c 128,-1,94
 316 340 316 340 319 337 c 1,95,-1
 280 298 l 1,96,97
 273 304 273 304 260 317 c 1,98,99
 274 330 274 330 300 356 c 1,91,92
EndSplineSet
Validated: 41
EndChar

StartChar: directory
Encoding: 117 117 20
Width: 512
GlyphClass: 2
Flags: W
LayerCount: 2
Fore
SplineSet
432 451 m 1,0,-1
 333 413 l 2,1,2
 332 413 332 413 330 412 c 2,3,-1
 329 412 l 2,4,5
 323 414 323 414 321 414 c 2,6,-1
 205 452 l 2,7,8
 190 458 190 458 175 451 c 2,9,-1
 84 416 l 2,10,11
 52 407 52 407 52 385 c 2,12,-1
 52 82 l 2,13,14
 52 71 52 71 61.5 63 c 128,-1,15
 71 55 71 55 84 55 c 1,16,-1
 183 93 l 2,17,18
 189 95 189 95 192 97 c 0,19,20
 194 95 194 95 196 95 c 0,21,22
 199 94 199 94 203 92 c 0,23,24
 204 92 204 92 204 91 c 1,25,-1
 205 91 l 1,26,-1
 321 53 l 2,27,28
 332 52 332 52 342 56 c 2,29,-1
 432 90 l 2,30,31
 464 105 464 105 464 121 c 2,32,-1
 464 425 l 2,33,34
 464 436 464 436 454.5 443.5 c 128,-1,35
 445 451 445 451 432 451 c 1,0,-1
81 80 m 2,36,37
 80 80 80 80 80 82 c 2,38,-1
 80 385 l 2,39,40
 80 389 80 389 94 394 c 1,41,-1
 95 394 l 1,42,-1
 96 395 l 1,43,-1
 185 429 l 1,44,-1
 185 427 l 1,45,-1
 185 124 l 2,46,47
 185 121 185 121 169 114 c 2,48,-1
 81 80 l 2,36,37
437 122 m 2,49,50
 435 119 435 119 420 111 c 2,51,-1
 330 77 l 1,52,53
 330 78 330 78 329.5 78 c 128,-1,54
 329 78 329 78 329 79 c 2,55,-1
 329 383 l 2,56,57
 329 386 329 386 343 391 c 1,58,-1
 344 391 l 1,59,-1
 345 392 l 1,60,-1
 436 426 l 1,61,-1
 437 425 l 1,62,-1
 437 122 l 2,49,50
EndSplineSet
Validated: 41
EndChar

StartChar: menu
Encoding: 118 118 21
Width: 512
GlyphClass: 2
Flags: W
LayerCount: 2
Fore
SplineSet
64 96 m 1,0,-1
 64 138.666992188 l 1,1,-1
 448 138.666992188 l 1,2,-1
 448 96 l 1,3,-1
 64 96 l 1,0,-1
64 202.666992188 m 1,4,-1
 64 245.333007812 l 1,5,-1
 448 245.333007812 l 1,6,-1
 448 202.666992188 l 1,7,-1
 64 202.666992188 l 1,4,-1
64 352 m 1,8,-1
 448 352 l 1,9,-1
 448 309.333007812 l 1,10,-1
 64 309.333007812 l 1,11,-1
 64 352 l 1,8,-1
EndSplineSet
Validated: 1
EndChar

StartChar: close
Encoding: 119 119 22
Width: 512
GlyphClass: 2
Flags: W
LayerCount: 2
Fore
SplineSet
405.333007812 343.252929688 m 1,0,-1
 286.080078125 224 l 1,1,-1
 405.333007812 104.747070312 l 1,2,-1
 375.252929688 74.6669921875 l 1,3,-1
 256 193.919921875 l 1,4,-1
 136.747070312 74.6669921875 l 1,5,-1
 106.666992188 104.747070312 l 1,6,-1
 225.919921875 224 l 1,7,-1
 106.666992188 343.252929688 l 1,8,-1
 136.747070312 373.333007812 l 1,9,-1
 256 254.080078125 l 1,10,-1
 375.252929688 373.333007812 l 1,11,-1
 405.333007812 343.252929688 l 1,0,-1
EndSplineSet
Validated: 1
EndChar

StartChar: close-inverted
Encoding: 120 120 23
Width: 512
GlyphClass: 2
Flags: W
LayerCount: 2
Fore
SplineSet
405.333007812 343.252929688 m 1,0,-1
 286.080078125 224 l 1,1,-1
 405.333007812 104.747070312 l 1,2,-1
 375.252929688 74.6669921875 l 1,3,-1
 256 193.919921875 l 1,4,-1
 136.747070312 74.6669921875 l 1,5,-1
 106.666992188 104.747070312 l 1,6,-1
 225.919921875 224 l 1,7,-1
 106.666992188 343.252929688 l 1,8,-1
 136.747070312 373.333007812 l 1,9,-1
 256 254.080078125 l 1,10,-1
 375.252929688 373.333007812 l 1,11,-1
 405.333007812 343.252929688 l 1,0,-1
EndSplineSet
Validated: 513
EndChar

StartChar: pin
Encoding: 121 121 24
Width: 512
GlyphClass: 2
Flags: W
LayerCount: 2
Fore
SplineSet
304 144 m 0,0,1
 305 167 305 167 296 189 c 1,2,-1
 393 304 l 1,3,-1
 418 296 l 2,4,5
 442 289 442 289 454 310 c 0,6,7
 468 332 468 332 449 349 c 2,8,-1
 333 465 l 2,9,10
 316 484 316 484 294 470 c 0,11,12
 273 456 273 456 281 433 c 2,13,-1
 289 408 l 1,14,-1
 174 306 l 1,15,16
 118 324 118 324 76 282 c 0,17,18
 67 273 67 273 67 259.5 c 128,-1,19
 67 246 67 246 76 237 c 2,20,-1
 141 172 l 1,21,-1
 58 90 l 2,22,23
 47 78 47 78 58 67 c 128,-1,24
 69 56 69 56 81 67 c 2,25,-1
 163 150 l 1,26,-1
 229 84 l 2,27,28
 239 74 239 74 252 74 c 128,-1,29
 265 74 265 74 274 84 c 0,30,31
 301 111 301 111 304 144 c 0,0,1
99 259 m 1,32,33
 115 276 115 276 137.5 278.5 c 128,-1,34
 160 281 160 281 180 268 c 1,35,-1
 325 398 l 1,36,-1
 311 443 l 1,37,-1
 427 327 l 1,38,-1
 382 340 l 1,39,-1
 256 191 l 1,40,41
 274 169 274 169 272 146.5 c 128,-1,42
 270 124 270 124 252 106 c 1,43,-1
 99 259 l 1,32,33
EndSplineSet
Validated: 41
EndChar

StartChar: pin-inverted
Encoding: 122 122 25
Width: 512
GlyphClass: 2
Flags: W
LayerCount: 2
Fore
SplineSet
297 160 m 0,0,1
 300 181 300 181 291 199 c 1,2,-1
 383 305 l 1,3,-1
 404 300 l 2,4,5
 425 294 425 294 437 313 c 0,6,7
 450 332 450 332 434 348 c 2,8,-1
 336 447 l 2,9,10
 319 462 319 462 301 449 c 0,11,12
 281 436 281 436 288 416 c 2,13,-1
 294 394 l 1,14,-1
 188 298 l 1,15,16
 139 313 139 313 100 274 c 0,17,18
 91 265 91 265 90.5 253 c 128,-1,19
 90 241 90 241 98 233 c 2,20,-1
 153 178 l 1,21,-1
 76 102 l 2,22,23
 66 91 66 91 75 82 c 0,24,25
 85 72 85 72 95 83 c 2,26,-1
 172 159 l 1,27,-1
 228 103 l 2,28,29
 248 84 248 84 269 105 c 0,30,31
 292 128 292 128 297 160 c 0,0,1
EndSplineSet
Validated: 553
EndChar

StartChar: resize-handle
Encoding: 65 65 26
Width: 512
GlyphClass: 2
Flags: W
LayerCount: 2
Fore
SplineSet
262 175 m 2,0,-1
 332 246 l 2,1,2
 344 258 344 258 357 246 c 128,-1,3
 370 234 370 234 357 221 c 2,4,-1
 287 150 l 2,5,6
 274 138 274 138 262 150 c 128,-1,7
 250 162 250 162 262 175 c 2,0,-1
161 175 m 1,8,-1
 336 350 l 2,9,10
 348 362 348 362 361 350 c 128,-1,11
 374 338 374 338 361 325 c 2,12,-1
 186 150 l 2,13,14
 174 138 174 138 161 150 c 128,-1,15
 148 162 148 162 161 175 c 1,16,-1
 161 175 l 1,8,-1
EndSplineSet
Validated: 549
EndChar

StartChar: diclosure-expand
Encoding: 66 66 27
Width: 512
GlyphClass: 2
Flags: W
LayerCount: 2
Fore
SplineSet
239 187 m 128,-1,1
 234 187 234 187 231 190 c 0,2,3
 222 198 222 198 231 207 c 2,4,-1
 273 249 l 1,5,-1
 230 293 l 2,6,7
 221 301 221 301 230 310 c 0,8,9
 238 318 238 318 247 310 c 2,10,-1
 307 249 l 1,11,-1
 247 190 l 2,12,0
 244 187 244 187 239 187 c 128,-1,1
EndSplineSet
Validated: 545
EndChar

StartChar: reload-small
Encoding: 97 97 28
Width: 563
GlyphClass: 2
Flags: W
LayerCount: 2
Fore
SplineSet
357.264648438 325.248046875 m 1,0,-1
 399.377929688 367.360351562 l 1,1,-1
 399.377929688 241.919921875 l 1,2,-1
 273.936523438 241.919921875 l 1,3,-1
 331.639648438 299.622070312 l 1,4,5
 300.03515625 331.51953125 300.03515625 331.51953125 256.017578125 331.51953125 c 0,6,7
 211.49609375 331.51953125 211.49609375 331.51953125 179.99609375 300.01953125 c 128,-1,8
 148.49609375 268.51953125 148.49609375 268.51953125 148.49609375 224 c 128,-1,9
 148.49609375 179.48046875 148.49609375 179.48046875 179.99609375 147.98046875 c 128,-1,10
 211.49609375 116.48046875 211.49609375 116.48046875 256.017578125 116.48046875 c 0,11,12
 290.65625 116.48046875 290.65625 116.48046875 318.375976562 136.450195312 c 128,-1,13
 346.094726562 156.421875 346.094726562 156.421875 357.264648438 188.159179688 c 1,14,-1
 394.5390625 188.159179688 l 1,15,16
 382.435546875 141.247070312 382.435546875 141.247070312 344.016601562 110.943359375 c 128,-1,17
 305.596679688 80.6396484375 305.596679688 80.6396484375 256.017578125 80.6396484375 c 0,18,19
 196.629882812 80.6396484375 196.629882812 80.6396484375 154.733398438 122.609375 c 128,-1,20
 112.8359375 164.578125 112.8359375 164.578125 112.8359375 224 c 128,-1,21
 112.8359375 283.421875 112.8359375 283.421875 154.733398438 325.390625 c 128,-1,22
 196.629882812 367.360351562 196.629882812 367.360351562 256.017578125 367.360351562 c 0,23,24
 315.15234375 367.360351562 315.15234375 367.360351562 357.264648438 325.248046875 c 1,0,-1
EndSplineSet
Validated: 513
EndChar

StartChar: close-small
Encoding: 67 67 29
Width: 501
VWidth: 569
GlyphClass: 2
Flags: W
LayerCount: 2
Fore
SplineSet
342.015625 292.690429688 m 1,0,-1
 273.326171875 224 l 1,1,-1
 342.015625 155.309570312 l 1,2,-1
 324.690429688 137.984375 l 1,3,-1
 256 206.673828125 l 1,4,-1
 187.309570312 137.984375 l 1,5,-1
 169.984375 155.309570312 l 1,6,-1
 238.673828125 224 l 1,7,-1
 169.984375 292.690429688 l 1,8,-1
 187.309570312 310.015625 l 1,9,-1
 256 241.326171875 l 1,10,-1
 324.690429688 310.015625 l 1,11,-1
 342.015625 292.690429688 l 1,0,-1
EndSplineSet
Validated: 513
EndChar

StartChar: minimize
Encoding: 73 73 30
Width: 512
GlyphClass: 2
Flags: W
LayerCount: 2
Fore
SplineSet
405.333007812 202.666992188 m 1,0,-1
 106.666992188 202.666992188 l 1,1,-1
 106.666992188 245.333007812 l 1,2,-1
 405.333007812 245.333007812 l 1,3,-1
 405.333007812 202.666992188 l 1,0,-1
EndSplineSet
Validated: 1
EndChar

StartChar: maximize
Encoding: 74 74 31
Width: 512
GlyphClass: 2
Flags: W
LayerCount: 2
Fore
SplineSet
405.333007812 202.666992188 m 1,0,-1
 277.333007812 202.666992188 l 1,1,-1
 277.333007812 74.6669921875 l 1,2,-1
 234.666992188 74.6669921875 l 1,3,-1
 234.666992188 202.666992188 l 1,4,-1
 106.666992188 202.666992188 l 1,5,-1
 106.666992188 245.333007812 l 1,6,-1
 234.666992188 245.333007812 l 1,7,-1
 234.666992188 373.333007812 l 1,8,-1
 277.333007812 373.333007812 l 1,9,-1
 277.333007812 245.333007812 l 1,10,-1
 405.333007812 245.333007812 l 1,11,-1
 405.333007812 202.666992188 l 1,0,-1
EndSplineSet
Validated: 1
EndChar

StartChar: maximize-inverted
Encoding: 75 75 32
Width: 512
GlyphClass: 2
Flags: W
LayerCount: 2
Fore
SplineSet
256 437.333007812 m 128,-1,1
 344.319824219 437.333007812 344.319824219 437.333007812 406.826416016 374.826416016 c 128,-1,2
 469.333007812 312.319824219 469.333007812 312.319824219 469.333007812 224 c 128,-1,3
 469.333007812 135.680175781 469.333007812 135.680175781 406.826416016 73.1735839844 c 128,-1,4
 344.319824219 10.6669921875 344.319824219 10.6669921875 256 10.6669921875 c 128,-1,5
 167.680175781 10.6669921875 167.680175781 10.6669921875 105.173583984 73.1735839844 c 128,-1,6
 42.6669921875 135.680175781 42.6669921875 135.680175781 42.6669921875 224 c 128,-1,7
 42.6669921875 312.319824219 42.6669921875 312.319824219 105.173583984 374.826416016 c 128,-1,0
 167.680175781 437.333007812 167.680175781 437.333007812 256 437.333007812 c 128,-1,1
362.666992188 202.666992188 m 1,8,-1
 362.666992188 245.333007812 l 1,9,-1
 277.333007812 245.333007812 l 1,10,-1
 277.333007812 330.666992188 l 1,11,-1
 234.666992188 330.666992188 l 1,12,-1
 234.666992188 245.333007812 l 1,13,-1
 149.333007812 245.333007812 l 1,14,-1
 149.333007812 202.666992188 l 1,15,-1
 234.666992188 202.666992188 l 1,16,-1
 234.666992188 117.333007812 l 1,17,-1
 277.333007812 117.333007812 l 1,18,-1
 277.333007812 202.666992188 l 1,19,-1
 362.666992188 202.666992188 l 1,8,-1
EndSplineSet
Validated: 513
EndChar

StartChar: disclosure-button-expand
Encoding: 76 76 33
Width: 512
GlyphClass: 2
Flags: W
LayerCount: 2
Fore
SplineSet
353.919921875 296.747070312 m 1,0,-1
 384 266.666992188 l 1,1,-1
 256 138.666992188 l 1,2,-1
 128 266.666992188 l 1,3,-1
 158.080078125 296.747070312 l 1,4,-1
 256 199.040039062 l 1,5,-1
 353.919921875 296.747070312 l 1,0,-1
EndSplineSet
Validated: 513
EndChar

StartChar: disclosure-button-collapse
Encoding: 77 77 34
Width: 512
GlyphClass: 2
Flags: W
LayerCount: 2
Fore
SplineSet
256 309.333007812 m 1,0,-1
 384 181.333007812 l 1,1,-1
 353.919921875 151.252929688 l 1,2,-1
 256 248.959960938 l 1,3,-1
 158.080078125 151.252929688 l 1,4,-1
 128 181.333007812 l 1,5,-1
 256 309.333007812 l 1,0,-1
EndSplineSet
Validated: 513
EndChar

StartChar: script-stop
Encoding: 78 78 35
Width: 512
GlyphClass: 2
Flags: W
LayerCount: 2
Fore
SplineSet
298 79 m 2,0,-1
 153 79 l 2,1,2
 108 79 108 79 82 121 c 0,3,4
 76 130 76 130 72 140 c 128,-1,5
 68 150 68 150 66 156 c 2,6,-1
 65 162 l 1,7,-1
 62 178 l 1,8,-1
 329 178 l 1,9,-1
 330 165 l 2,10,11
 331 150 331 150 339 136 c 0,12,13
 353 110 353 110 387 110 c 0,14,15
 406 110 406 110 417 122 c 0,16,17
 436 143 436 143 432 188 c 1,18,-1
 432 189 l 1,19,-1
 432 394 l 1,20,-1
 162 394 l 2,21,22
 157 394 157 394 153 398.5 c 128,-1,23
 149 403 149 403 149 408 c 128,-1,24
 149 413 149 413 153 417.5 c 128,-1,25
 157 422 157 422 162 422 c 2,26,-1
 456 422 l 1,27,-1
 456 190 l 2,28,29
 456 184 456 184 457 171 c 128,-1,30
 458 158 458 158 452.5 137.5 c 128,-1,31
 447 117 447 117 436 104 c 0,32,33
 416 84 416 84 387 84 c 0,34,35
 338 84 338 84 316 125 c 0,36,37
 308 138 308 138 306 152 c 1,38,-1
 95 152 l 1,39,40
 97 144 97 144 104 134 c 0,41,42
 123 103 123 103 153 103 c 2,43,-1
 298 103 l 2,44,45
 311 103 311 103 311 91 c 128,-1,46
 311 79 311 79 298 79 c 2,0,-1
393 337 m 2,47,-1
 281 337 l 2,48,49
 276 337 276 337 271.5 341.5 c 128,-1,50
 267 346 267 346 267 351 c 0,51,52
 267 357 267 357 271.5 361.5 c 128,-1,53
 276 366 276 366 281 366 c 2,54,-1
 393 366 l 2,55,56
 407 366 407 366 407 351 c 0,57,58
 407 337 407 337 393 337 c 2,47,-1
393 279 m 2,59,-1
 250 279 l 2,60,61
 245 279 245 279 240.5 283 c 128,-1,62
 236 287 236 287 236 293 c 128,-1,63
 236 299 236 299 240.5 303 c 128,-1,64
 245 307 245 307 250 307 c 2,65,-1
 393 307 l 2,66,67
 407 307 407 307 407 293 c 128,-1,68
 407 279 407 279 393 279 c 2,59,-1
393 221 m 2,69,-1
 281 221 l 2,70,71
 276 221 276 221 271.5 225 c 128,-1,72
 267 229 267 229 267 235 c 128,-1,73
 267 241 267 241 271.5 245 c 128,-1,74
 276 249 276 249 281 249 c 2,75,-1
 393 249 l 2,76,77
 407 249 407 249 407 235 c 128,-1,78
 407 221 407 221 393 221 c 2,69,-1
189 293 m 1,79,-1
 231 335 l 2,80,81
 244 348 244 348 231 361 c 128,-1,82
 218 374 218 374 206 361 c 2,83,-1
 163 319 l 1,84,-1
 121 361 l 2,85,86
 109 373 109 373 95 361 c 0,87,88
 82 348 82 348 95 335 c 2,89,-1
 138 293 l 1,90,-1
 95 251 l 2,91,92
 82 238 82 238 95 225 c 0,93,94
 109 213 109 213 121 225 c 2,95,-1
 163 267 l 1,96,-1
 206 225 l 2,97,98
 218 212 218 212 231 225 c 128,-1,99
 244 238 244 238 231 251 c 2,100,-1
 189 293 l 1,79,-1
EndSplineSet
Validated: 553
EndChar

StartChar: script-reload
Encoding: 79 79 36
Width: 512
GlyphClass: 2
Flags: W
LayerCount: 2
Fore
SplineSet
236 295 m 0,0,1
 219 297 219 297 217 280 c 0,2,3
 216 261 216 261 201.5 248 c 128,-1,4
 187 235 187 235 167 235 c 0,5,6
 146 235 146 235 131.5 249.5 c 128,-1,7
 117 264 117 264 117 285 c 0,8,9
 117 308 117 308 131 321 c 0,10,11
 138 330 138 330 154 333 c 1,12,13
 147 321 147 321 156 312 c 0,14,15
 161 307 161 307 168 307 c 128,-1,16
 175 307 175 307 180 312 c 2,17,-1
 207 340 l 1,18,-1
 210 346 l 2,19,20
 215 358 215 358 207 364 c 2,21,-1
 179 392 l 2,22,23
 174 397 174 397 168 397 c 0,24,25
 161 397 161 397 156 392 c 128,-1,26
 151 387 151 387 151 380 c 128,-1,27
 151 373 151 373 156 368 c 2,28,-1
 157 367 l 1,29,30
 127 364 127 364 108 345 c 0,31,32
 83 323 83 323 83 285 c 0,33,34
 83 250 83 250 107.5 225.5 c 128,-1,35
 132 201 132 201 167 201 c 0,36,37
 199 201 199 201 223 223 c 128,-1,38
 247 245 247 245 250 277 c 0,39,40
 252 293 252 293 236 295 c 0,0,1
298 79 m 2,41,-1
 153 79 l 2,42,43
 107 79 107 79 81 122 c 0,44,45
 65 149 65 149 65 163 c 2,46,-1
 62 178 l 1,47,-1
 329 178 l 1,48,-1
 329 166 l 2,49,50
 330 151 330 151 338 137 c 0,51,52
 352 111 352 111 387 111 c 0,53,54
 405 111 405 111 416 122 c 0,55,56
 437 147 437 147 430 189 c 1,57,-1
 430 190 l 1,58,-1
 430 397 l 1,59,-1
 215 397 l 2,60,61
 203 397 203 397 203 409 c 0,62,63
 203 422 203 422 215 422 c 2,64,-1
 456 422 l 1,65,-1
 456 191 l 2,66,67
 456 185 456 185 457 172 c 128,-1,68
 458 159 458 159 452.5 138.5 c 128,-1,69
 447 118 447 118 435 105 c 0,70,71
 417 85 417 85 387 85 c 0,72,73
 337 85 337 85 315 125 c 0,74,75
 310 136 310 136 305 152 c 1,76,-1
 95 152 l 1,77,78
 97 147 97 147 103 135 c 0,79,80
 122 106 122 106 153 106 c 2,81,-1
 298 106 l 2,82,83
 311 106 311 106 311 92 c 0,84,85
 311 79 311 79 298 79 c 2,41,-1
393 338 m 2,86,-1
 254 338 l 2,87,88
 240 338 240 338 240 352 c 128,-1,89
 240 366 240 366 254 366 c 2,90,-1
 393 366 l 2,91,92
 398 366 398 366 402.5 362 c 128,-1,93
 407 358 407 358 407 352 c 128,-1,94
 407 346 407 346 402.5 342 c 128,-1,95
 398 338 398 338 393 338 c 2,86,-1
393 280 m 2,96,-1
 290 280 l 2,97,98
 285 280 285 280 280.5 284 c 128,-1,99
 276 288 276 288 276 294 c 128,-1,100
 276 300 276 300 280.5 304 c 128,-1,101
 285 308 285 308 290 308 c 2,102,-1
 393 308 l 2,103,104
 398 308 398 308 402.5 304 c 128,-1,105
 407 300 407 300 407 294 c 128,-1,106
 407 288 407 288 402.5 284 c 128,-1,107
 398 280 398 280 393 280 c 2,96,-1
393 222 m 2,108,-1
 282 222 l 2,109,110
 277 222 277 222 272.5 226 c 128,-1,111
 268 230 268 230 268 236 c 128,-1,112
 268 242 268 242 272.5 246 c 128,-1,113
 277 250 277 250 282 250 c 2,114,-1
 393 250 l 2,115,116
 398 250 398 250 402.5 246 c 128,-1,117
 407 242 407 242 407 236 c 128,-1,118
 407 230 407 230 402.5 226 c 128,-1,119
 398 222 398 222 393 222 c 2,108,-1
EndSplineSet
Validated: 553
EndChar

StartChar: script-run
Encoding: 80 80 37
Width: 512
GlyphClass: 2
Flags: W
LayerCount: 2
Fore
SplineSet
209 309 m 2,0,-1
 130 369 l 2,1,2
 121 374 121 374 114 370 c 0,3,4
 106 366 106 366 106 357 c 2,5,-1
 106 231 l 2,6,7
 106 222 106 222 115 217 c 0,8,9
 117 216 117 216 121 216 c 0,10,11
 127 216 127 216 130 219 c 2,12,-1
 210 287 l 2,13,14
 215 292 215 292 215 298 c 0,15,16
 215 306 215 306 209 309 c 2,0,-1
298 77 m 2,17,-1
 153 77 l 2,18,19
 108 77 108 77 81 121 c 0,20,21
 65 148 65 148 65 162 c 2,22,-1
 62 178 l 1,23,-1
 329 178 l 1,24,-1
 329 165 l 2,25,26
 330 151 330 151 338 136 c 0,27,28
 353 110 353 110 387 110 c 0,29,30
 406 110 406 110 416 122 c 0,31,32
 437 146 437 146 430 188 c 1,33,-1
 430 189 l 1,34,-1
 430 395 l 1,35,-1
 161 395 l 2,36,37
 148 395 148 395 148 408 c 128,-1,38
 148 421 148 421 161 421 c 2,39,-1
 456 421 l 1,40,-1
 456 191 l 1,41,42
 463 136 463 136 435 105 c 0,43,44
 417 84 417 84 387 84 c 0,45,46
 338 84 338 84 315 125 c 0,47,48
 308 139 308 139 305 153 c 1,49,-1
 95 153 l 1,50,51
 96 148 96 148 103 135 c 0,52,53
 123 104 123 104 153 104 c 2,54,-1
 298 104 l 2,55,56
 303 104 303 104 307 99.5 c 128,-1,57
 311 95 311 95 311 90 c 0,58,59
 311 77 311 77 298 77 c 2,17,-1
393 338 m 2,60,-1
 213 338 l 2,61,62
 208 338 208 338 203.5 342 c 128,-1,63
 199 346 199 346 199 352 c 128,-1,64
 199 358 199 358 203.5 362 c 128,-1,65
 208 366 208 366 213 366 c 2,66,-1
 393 366 l 2,67,68
 398 366 398 366 402.5 362 c 128,-1,69
 407 358 407 358 407 352 c 128,-1,70
 407 346 407 346 402.5 342 c 128,-1,71
 398 338 398 338 393 338 c 2,60,-1
393 279 m 2,72,-1
 258 279 l 2,73,74
 244 279 244 279 244 294 c 0,75,76
 244 299 244 299 248 303.5 c 128,-1,77
 252 308 252 308 258 308 c 2,78,-1
 393 308 l 2,79,80
 398 308 398 308 402.5 303.5 c 128,-1,81
 407 299 407 299 407 294 c 0,82,83
 407 288 407 288 402.5 283.5 c 128,-1,84
 398 279 398 279 393 279 c 2,72,-1
393 221 m 2,85,-1
 213 221 l 2,86,87
 208 221 208 221 203.5 225.5 c 128,-1,88
 199 230 199 230 199 235 c 0,89,90
 199 241 199 241 203.5 245.5 c 128,-1,91
 208 250 208 250 213 250 c 2,92,-1
 393 250 l 2,93,94
 398 250 398 250 402.5 245.5 c 128,-1,95
 407 241 407 241 407 235 c 128,-1,96
 407 229 407 229 402.5 225 c 128,-1,97
 398 221 398 221 393 221 c 2,85,-1
EndSplineSet
Validated: 553
EndChar

StartChar: script-new
Encoding: 81 81 38
Width: 512
GlyphClass: 2
Flags: W
LayerCount: 2
Fore
SplineSet
298 80 m 2,0,-1
 153 80 l 2,1,2
 107 80 107 80 81 123 c 0,3,4
 65 150 65 150 65 164 c 2,5,-1
 62 180 l 1,6,-1
 329 180 l 1,7,-1
 329 168 l 2,8,9
 329 155 329 155 338 139 c 0,10,11
 353 112 353 112 387 112 c 0,12,13
 406 112 406 112 416 124 c 0,14,15
 437 148 437 148 430 190 c 1,16,-1
 430 191 l 1,17,-1
 430 397 l 1,18,-1
 161 397 l 2,19,20
 148 397 148 397 148 410 c 128,-1,21
 148 423 148 423 161 423 c 2,22,-1
 456 423 l 1,23,-1
 456 193 l 1,24,25
 463 138 463 138 435 107 c 0,26,27
 417 86 417 86 387 86 c 0,28,29
 338 86 338 86 315 127 c 0,30,31
 308 141 308 141 305 155 c 1,32,-1
 95 155 l 1,33,34
 96 150 96 150 103 137 c 0,35,36
 123 107 123 107 153 107 c 2,37,-1
 298 107 l 2,38,39
 303 107 303 107 307 102.5 c 128,-1,40
 311 98 311 98 311 93 c 0,41,42
 311 80 311 80 298 80 c 2,0,-1
393 340 m 2,43,-1
 213 340 l 2,44,45
 208 340 208 340 203.5 344 c 128,-1,46
 199 348 199 348 199 354 c 128,-1,47
 199 360 199 360 203.5 364 c 128,-1,48
 208 368 208 368 213 368 c 2,49,-1
 393 368 l 2,50,51
 398 368 398 368 402.5 364 c 128,-1,52
 407 360 407 360 407 354 c 128,-1,53
 407 348 407 348 402.5 344 c 128,-1,54
 398 340 398 340 393 340 c 2,43,-1
393 281 m 2,55,-1
 258 281 l 2,56,57
 244 281 244 281 244 296 c 0,58,59
 244 301 244 301 248 305.5 c 128,-1,60
 252 310 252 310 258 310 c 2,61,-1
 393 310 l 2,62,63
 398 310 398 310 402.5 305.5 c 128,-1,64
 407 301 407 301 407 296 c 0,65,66
 407 290 407 290 402.5 285.5 c 128,-1,67
 398 281 398 281 393 281 c 2,55,-1
393 223 m 2,68,-1
 213 223 l 2,69,70
 208 223 208 223 203.5 227.5 c 128,-1,71
 199 232 199 232 199 237 c 0,72,73
 199 243 199 243 203.5 247.5 c 128,-1,74
 208 252 208 252 213 252 c 2,75,-1
 393 252 l 2,76,77
 398 252 398 252 402.5 247.5 c 128,-1,78
 407 243 407 243 407 237 c 0,79,80
 407 232 407 232 402.5 227.5 c 128,-1,81
 398 223 398 223 393 223 c 2,68,-1
143 313 m 1,82,-1
 143 366 l 2,83,84
 143 382 143 382 127 382 c 128,-1,85
 111 382 111 382 111 366 c 2,86,-1
 111 313 l 1,87,-1
 57 313 l 2,88,89
 50 313 50 313 45.5 308 c 128,-1,90
 41 303 41 303 41 296 c 128,-1,91
 41 289 41 289 46 284 c 128,-1,92
 51 279 51 279 57 279 c 2,93,-1
 111 279 l 1,94,-1
 111 226 l 2,95,96
 111 210 111 210 127 210 c 0,97,98
 134 210 134 210 138.5 215 c 128,-1,99
 143 220 143 220 143 227 c 2,100,-1
 143 279 l 1,101,-1
 197 279 l 2,102,103
 204 279 204 279 208.5 284 c 128,-1,104
 213 289 213 289 213 296 c 128,-1,105
 213 303 213 303 208 307.5 c 128,-1,106
 203 312 203 312 196 312 c 2,107,-1
 143 313 l 1,82,-1
EndSplineSet
Validated: 553
EndChar

StartChar: hifi-forum
Encoding: 50 50 39
Width: 512
GlyphClass: 2
Flags: W
LayerCount: 2
Fore
SplineSet
255.287109375 377.600585938 m 0,0,-1
 255.63671875 377.600585938 l 2,1,2
 255.697265625 377.600585938 255.697265625 377.600585938 255.818359375 377.600585938 c 0,3,4
 319.599609375 377.600585938 319.599609375 377.600585938 364.599609375 332.600585938 c 128,-1,5
 409.599609375 287.600585938 409.599609375 287.600585938 409.599609375 224 c 128,-1,6
 409.599609375 160.400390625 409.599609375 160.400390625 364.599609375 115.400390625 c 128,-1,7
 319.599609375 70.400390625 319.599609375 70.400390625 256 70.400390625 c 128,-1,8
 192.400390625 70.400390625 192.400390625 70.400390625 147.400390625 115.400390625 c 128,-1,9
 102.400390625 160.400390625 102.400390625 160.400390625 102.400390625 224 c 0,10,11
 102.400390625 287.383789062 102.400390625 287.383789062 147.170898438 332.344726562 c 128,-1,12
 191.94140625 377.306640625 191.94140625 377.306640625 255.287109375 377.600585938 c 0,0,-1
282.451171875 336.546875 m 0,13,14
 281.310546875 336.55078125 281.310546875 336.55078125 280.505859375 336.533203125 c 0,15,16
 258.736328125 335.846679688 258.736328125 335.846679688 246.353515625 317.450195312 c 1,17,-1
 176.8046875 317.450195312 l 1,18,-1
 176.8046875 286.2734375 l 1,19,-1
 158.284179688 286.2734375 l 1,20,-1
 158.284179688 213.434570312 l 1,21,-1
 176.8046875 213.434570312 l 1,22,-1
 176.8046875 168.833007812 l 2,23,24
 177.34765625 145.662109375 177.34765625 145.662109375 188.3359375 130.854492188 c 0,25,26
 195.158203125 121.663085938 195.158203125 121.663085938 206.325195312 117.165039062 c 128,-1,27
 217.493164062 112.66796875 217.493164062 112.66796875 226.209960938 112.032226562 c 128,-1,28
 234.926757812 111.396484375 234.926757812 111.396484375 252.202148438 111.461914062 c 0,29,30
 256.052734375 111.4765625 256.052734375 111.4765625 258.005859375 111.4765625 c 2,31,-1
 322.956054688 111.4765625 l 1,32,-1
 322.956054688 281.984375 l 1,33,34
 327.274414062 295.72265625 327.274414062 295.72265625 322.333984375 308.521484375 c 128,-1,35
 317.393554688 321.3203125 317.393554688 321.3203125 306.408203125 328.846679688 c 128,-1,36
 295.422851562 336.373046875 295.422851562 336.373046875 282.451171875 336.546875 c 0,13,14
281.963867188 312.551757812 m 128,-1,38
 290.63671875 312.551757812 290.63671875 312.551757812 295.791992188 307.629882812 c 128,-1,39
 300.953125 302.703125 300.953125 302.703125 300.953125 295.0859375 c 128,-1,40
 300.953125 287.359375 300.953125 287.359375 295.736328125 282.434570312 c 128,-1,41
 290.51953125 277.513671875 290.51953125 277.513671875 281.963867188 277.512695312 c 128,-1,42
 273.4140625 277.512695312 273.4140625 277.512695312 268.197265625 282.434570312 c 128,-1,43
 262.979492188 287.359375 262.979492188 287.359375 262.979492188 295.0859375 c 128,-1,44
 262.979492188 302.70703125 262.979492188 302.70703125 268.080078125 307.629882812 c 128,-1,37
 273.177734375 312.55078125 273.177734375 312.55078125 281.963867188 312.551757812 c 128,-1,38
200.8046875 293.450195312 m 1,45,-1
 234.666992188 293.450195312 l 1,46,-1
 234.666992188 262.278320312 l 1,47,-1
 256.3515625 262.278320312 l 1,48,-1
 256.3515625 237.434570312 l 1,49,-1
 234.666992188 237.434570312 l 1,50,-1
 234.666992188 174.153320312 l 2,51,52
 234.666992188 167.123046875 234.666992188 167.123046875 237.362304688 164.075195312 c 128,-1,53
 240.057617188 161.028320312 240.057617188 161.028320312 247.674804688 161.028320312 c 0,54,55
 253.305664062 161.028320312 253.305664062 161.028320312 257.640625 161.848632812 c 1,56,-1
 257.640625 136.184570312 l 1,57,58
 247.6796875 133.137695312 247.6796875 133.137695312 237.262695312 133.137695312 c 0,59,60
 201.506835938 133.137695312 201.506835938 133.137695312 200.8046875 169.114257812 c 2,61,-1
 200.8046875 237.434570312 l 1,62,-1
 182.284179688 237.434570312 l 1,63,-1
 182.284179688 262.278320312 l 1,64,-1
 200.8046875 262.278320312 l 1,65,-1
 200.8046875 293.450195312 l 1,45,-1
264.971679688 262.278320312 m 1,66,-1
 298.9609375 262.278320312 l 1,67,-1
 298.9609375 135.481445312 l 1,68,-1
 264.971679688 135.481445312 l 1,69,-1
 264.971679688 262.278320312 l 1,66,-1
EndSplineSet
Validated: 545
EndChar

StartChar: hifi-logo-small
Encoding: 83 83 40
Width: 512
GlyphClass: 2
Flags: W
LayerCount: 2
Fore
SplineSet
255.287109375 377.600585938 m 0,0,-1
 255.63671875 377.600585938 l 2,1,2
 255.697265625 377.600585938 255.697265625 377.600585938 255.818359375 377.600585938 c 0,3,4
 319.599609375 377.600585938 319.599609375 377.600585938 364.599609375 332.600585938 c 128,-1,5
 409.599609375 287.600585938 409.599609375 287.600585938 409.599609375 224 c 128,-1,6
 409.599609375 160.400390625 409.599609375 160.400390625 364.599609375 115.400390625 c 128,-1,7
 319.599609375 70.400390625 319.599609375 70.400390625 256 70.400390625 c 128,-1,8
 192.400390625 70.400390625 192.400390625 70.400390625 147.400390625 115.400390625 c 128,-1,9
 102.400390625 160.400390625 102.400390625 160.400390625 102.400390625 224 c 0,10,11
 102.400390625 287.383789062 102.400390625 287.383789062 147.170898438 332.344726562 c 128,-1,12
 191.94140625 377.306640625 191.94140625 377.306640625 255.287109375 377.600585938 c 0,0,-1
282.451171875 336.546875 m 0,13,14
 281.310546875 336.55078125 281.310546875 336.55078125 280.505859375 336.533203125 c 0,15,16
 258.736328125 335.846679688 258.736328125 335.846679688 246.353515625 317.450195312 c 1,17,-1
 176.8046875 317.450195312 l 1,18,-1
 176.8046875 286.2734375 l 1,19,-1
 158.284179688 286.2734375 l 1,20,-1
 158.284179688 213.434570312 l 1,21,-1
 176.8046875 213.434570312 l 1,22,-1
 176.8046875 168.833007812 l 2,23,24
 177.34765625 145.662109375 177.34765625 145.662109375 188.3359375 130.854492188 c 0,25,26
 195.158203125 121.663085938 195.158203125 121.663085938 206.325195312 117.165039062 c 128,-1,27
 217.493164062 112.66796875 217.493164062 112.66796875 226.209960938 112.032226562 c 128,-1,28
 234.926757812 111.396484375 234.926757812 111.396484375 252.202148438 111.461914062 c 0,29,30
 256.052734375 111.4765625 256.052734375 111.4765625 258.005859375 111.4765625 c 2,31,-1
 322.956054688 111.4765625 l 1,32,-1
 322.956054688 281.984375 l 1,33,34
 327.274414062 295.72265625 327.274414062 295.72265625 322.333984375 308.521484375 c 128,-1,35
 317.393554688 321.3203125 317.393554688 321.3203125 306.408203125 328.846679688 c 128,-1,36
 295.422851562 336.373046875 295.422851562 336.373046875 282.451171875 336.546875 c 0,13,14
281.963867188 312.551757812 m 128,-1,38
 290.63671875 312.551757812 290.63671875 312.551757812 295.791992188 307.629882812 c 128,-1,39
 300.953125 302.703125 300.953125 302.703125 300.953125 295.0859375 c 128,-1,40
 300.953125 287.359375 300.953125 287.359375 295.736328125 282.434570312 c 128,-1,41
 290.51953125 277.513671875 290.51953125 277.513671875 281.963867188 277.512695312 c 128,-1,42
 273.4140625 277.512695312 273.4140625 277.512695312 268.197265625 282.434570312 c 128,-1,43
 262.979492188 287.359375 262.979492188 287.359375 262.979492188 295.0859375 c 128,-1,44
 262.979492188 302.70703125 262.979492188 302.70703125 268.080078125 307.629882812 c 128,-1,37
 273.177734375 312.55078125 273.177734375 312.55078125 281.963867188 312.551757812 c 128,-1,38
200.8046875 293.450195312 m 1,45,-1
 234.666992188 293.450195312 l 1,46,-1
 234.666992188 262.278320312 l 1,47,-1
 256.3515625 262.278320312 l 1,48,-1
 256.3515625 237.434570312 l 1,49,-1
 234.666992188 237.434570312 l 1,50,-1
 234.666992188 174.153320312 l 2,51,52
 234.666992188 167.123046875 234.666992188 167.123046875 237.362304688 164.075195312 c 128,-1,53
 240.057617188 161.028320312 240.057617188 161.028320312 247.674804688 161.028320312 c 0,54,55
 253.305664062 161.028320312 253.305664062 161.028320312 257.640625 161.848632812 c 1,56,-1
 257.640625 136.184570312 l 1,57,58
 247.6796875 133.137695312 247.6796875 133.137695312 237.262695312 133.137695312 c 0,59,60
 201.506835938 133.137695312 201.506835938 133.137695312 200.8046875 169.114257812 c 2,61,-1
 200.8046875 237.434570312 l 1,62,-1
 182.284179688 237.434570312 l 1,63,-1
 182.284179688 262.278320312 l 1,64,-1
 200.8046875 262.278320312 l 1,65,-1
 200.8046875 293.450195312 l 1,45,-1
264.971679688 262.278320312 m 1,66,-1
 298.9609375 262.278320312 l 1,67,-1
 298.9609375 135.481445312 l 1,68,-1
 264.971679688 135.481445312 l 1,69,-1
 264.971679688 262.278320312 l 1,66,-1
EndSplineSet
Validated: 545
EndChar

StartChar: placemark
Encoding: 85 85 41
Width: 512
GlyphClass: 2
Flags: W
LayerCount: 2
Fore
SplineSet
256 437.333007812 m 128,-1,1
 344.319824219 437.333007812 344.319824219 437.333007812 406.826416016 374.826416016 c 128,-1,2
 469.333007812 312.319824219 469.333007812 312.319824219 469.333007812 224 c 128,-1,3
 469.333007812 135.680175781 469.333007812 135.680175781 406.826416016 73.1735839844 c 128,-1,4
 344.319824219 10.6669921875 344.319824219 10.6669921875 256 10.6669921875 c 128,-1,5
 167.680175781 10.6669921875 167.680175781 10.6669921875 105.173583984 73.1735839844 c 128,-1,6
 42.6669921875 135.680175781 42.6669921875 135.680175781 42.6669921875 224 c 128,-1,7
 42.6669921875 312.319824219 42.6669921875 312.319824219 105.173583984 374.826416016 c 128,-1,0
 167.680175781 437.333007812 167.680175781 437.333007812 256 437.333007812 c 128,-1,1
234.666992188 54.8271484375 m 1,8,-1
 234.666992188 96 l 1,9,10
 217.066894531 96 217.066894531 96 204.533447266 108.533447266 c 128,-1,11
 192 121.066894531 192 121.066894531 192 138.666992188 c 2,12,-1
 192 160 l 1,13,-1
 89.8134765625 262.186523438 l 1,14,15
 85.3330078125 242.197953345 85.3330078125 242.197953345 85.3330078125 224 c 0,16,17
 85.3330078125 159.07377134 85.3330078125 159.07377134 128.223004423 110.892340785 c 128,-1,18
 171.113001034 62.71091023 171.113001034 62.71091023 234.666992188 54.8271484375 c 1,8,-1
381.866210938 109.013671875 m 1,19,20
 426.666992188 157.949206027 426.666992188 157.949206027 426.666992188 224 c 0,21,22
 426.666992188 259.095767244 426.666992188 259.095767244 413.025048299 290.826292915 c 128,-1,23
 399.38310441 322.556818586 399.38310441 322.556818586 375.313167847 345.973837294 c 128,-1,24
 351.243231285 369.390856001 351.243231285 369.390856001 320 382.080078125 c 1,25,-1
 320 373.333007812 l 2,26,27
 320 364.690920179 320 364.690920179 316.606979689 356.792714805 c 128,-1,28
 313.213959379 348.894509431 313.213959379 348.894509431 307.492873826 343.173624306 c 128,-1,29
 301.771788274 337.452739181 301.771788274 337.452739181 293.873459181 334.059865684 c 128,-1,30
 285.975130089 330.666992188 285.975130089 330.666992188 277.333007812 330.666992188 c 2,31,-1
 234.666992188 330.666992188 l 1,32,-1
 234.666992188 288 l 2,33,34
 234.666992188 279.200043774 234.666992188 279.200043774 228.400070718 272.933517981 c 128,-1,35
 222.133149248 266.666992188 222.133149248 266.666992188 213.333007812 266.666992188 c 2,36,-1
 170.666992188 266.666992188 l 1,37,-1
 170.666992188 224 l 1,38,-1
 298.666992188 224 l 2,39,40
 307.467041016 224 307.467041016 224 313.733520508 217.733520508 c 128,-1,41
 320 211.467041016 320 211.467041016 320 202.666992188 c 2,42,-1
 320 138.666992188 l 1,43,-1
 341.333007812 138.666992188 l 2,44,45
 355.534363513 138.666992188 355.534363513 138.666992188 366.589272594 130.417597902 c 128,-1,46
 377.644181675 122.168203617 377.644181675 122.168203617 381.866210938 109.013671875 c 1,19,20
EndSplineSet
Validated: 1
EndChar

StartChar: box
Encoding: 86 86 42
Width: 512
GlyphClass: 2
Flags: W
LayerCount: 2
Fore
SplineSet
318 74 m 1,0,-1
 444 163 l 1,1,-1
 459 141 l 1,2,-1
 333 53 l 1,3,-1
 318 74 l 1,0,-1
181 175 m 1,4,-1
 181 76 l 1,5,-1
 208 76 l 1,6,-1
 208 172 l 1,7,-1
 181 175 l 1,4,-1
326 50 m 2,8,-1
 324 50 l 1,9,-1
 62 76 l 2,10,11
 50 78 50 78 50 89 c 2,12,-1
 50 352 l 2,13,14
 50 358 50 358 54 362 c 0,15,16
 60 366 60 366 64 365 c 2,17,-1
 327 339 l 2,18,19
 339 339 339 339 339 326 c 2,20,-1
 339 64 l 2,21,22
 339 58 339 58 335 54 c 128,-1,23
 331 50 331 50 326 50 c 2,8,-1
76 101 m 1,24,-1
 312 78 l 1,25,-1
 312 314 l 1,26,-1
 76 337 l 1,27,-1
 76 101 l 1,24,-1
453 427 m 2,28,-1
 190 453 l 2,29,30
 186 454 186 454 180 450 c 0,31,32
 176 446 176 446 176 440 c 2,33,-1
 176 419 l 1,34,35
 181 422 181 422 187 422 c 2,36,-1
 188 422 l 1,37,38
 194 426 194 426 199 426 c 0,39,40
 202 426 202 426 204 425 c 2,41,-1
 438 402 l 1,42,-1
 438 166 l 2,43,44
 438 158 438 158 428 152 c 0,45,46
 429 150 429 150 429 145 c 2,47,-1
 429 140 l 1,48,-1
 450 138 l 1,49,-1
 452 138 l 2,50,51
 457 138 457 138 460 142 c 0,52,53
 465 145 465 145 465 152 c 2,54,-1
 465 414 l 2,55,56
 465 427 465 427 453 427 c 2,28,-1
56 363 m 1,57,-1
 181 451 l 1,58,-1
 197 429 l 1,59,-1
 71 341 l 1,60,-1
 56 363 l 1,57,-1
318 337 m 1,61,-1
 444 425 l 1,62,-1
 459 403 l 1,63,-1
 333 315 l 1,64,-1
 318 337 l 1,61,-1
62 214 m 1,65,-1
 64 241 l 1,66,-1
 327 215 l 1,67,-1
 324 189 l 1,68,-1
 62 214 l 1,65,-1
208 251 m 1,69,-1
 208 342 l 1,70,-1
 181 342 l 1,71,-1
 181 254 l 1,72,-1
 208 251 l 1,69,-1
EndSplineSet
Validated: 5
EndChar

StartChar: community
Encoding: 48 48 43
Width: 512
GlyphClass: 2
Flags: W
LayerCount: 2
Fore
SplineSet
50 175 m 0,0,1
 44 175 44 175 39 181 c 0,2,3
 32 192 32 192 43 199 c 2,4,-1
 67 215 l 1,5,-1
 136 263 l 1,6,-1
 225 199 l 2,7,8
 236 192 236 192 228 180 c 0,9,10
 220 170 220 170 209 177 c 2,11,-1
 135 230 l 1,12,-1
 82 193 l 1,13,-1
 58 177 l 2,14,15
 52 175 52 175 50 175 c 0,0,1
180 165 m 1,16,-1
 136 197 l 1,17,-1
 89 165 l 1,18,-1
 67 151 l 1,19,-1
 67 88 l 1,20,-1
 202 88 l 1,21,-1
 202 148 l 1,22,-1
 180 165 l 1,16,-1
300 175 m 0,23,24
 292 175 292 175 289 181 c 0,25,26
 282 192 282 192 292 199 c 2,27,-1
 317 215 l 1,28,-1
 385 263 l 1,29,-1
 474 199 l 2,30,31
 485 192 485 192 477 180 c 0,32,33
 470 169 470 169 458 177 c 2,34,-1
 385 230 l 1,35,-1
 331 193 l 1,36,-1
 307 177 l 2,37,38
 303 175 303 175 300 175 c 0,23,24
429 165 m 1,39,-1
 383 197 l 1,40,-1
 338 165 l 1,41,-1
 316 151 l 1,42,-1
 316 88 l 1,43,-1
 451 88 l 1,44,-1
 451 148 l 1,45,-1
 429 165 l 1,39,-1
173 367 m 0,46,47
 165 367 165 367 162 372 c 0,48,49
 155 385 155 385 166 391 c 2,50,-1
 190 407 l 1,51,-1
 258 455 l 1,52,-1
 347 390 l 2,53,54
 357 383 357 383 350 372 c 0,55,56
 343 362 343 362 332 369 c 2,57,-1
 258 422 l 1,58,-1
 205 385 l 1,59,-1
 180 369 l 2,60,61
 178 367 178 367 173 367 c 0,46,47
302 356 m 1,62,-1
 256 388 l 1,63,-1
 211 357 l 1,64,-1
 189 342 l 1,65,-1
 189 280 l 1,66,-1
 324 280 l 1,67,-1
 324 340 l 1,68,-1
 302 356 l 1,62,-1
EndSplineSet
Validated: 41
EndChar

StartChar: grab-handle
Encoding: 88 88 44
Width: 512
GlyphClass: 2
Flags: W
LayerCount: 2
Fore
SplineSet
280 318 m 128,-1,1
 280 326 280 326 286 331.5 c 128,-1,2
 292 337 292 337 300 337 c 128,-1,3
 308 337 308 337 313.5 331.5 c 128,-1,4
 319 326 319 326 319 318 c 128,-1,5
 319 310 319 310 313.5 304 c 128,-1,6
 308 298 308 298 300 298 c 128,-1,7
 292 298 292 298 286 304 c 128,-1,0
 280 310 280 310 280 318 c 128,-1,1
234 298 m 128,-1,9
 226 298 226 298 220 304 c 0,10,11
 215 311 215 311 215 318 c 0,12,13
 215 326 215 326 220 331 c 0,14,15
 226 337 226 337 234 337 c 128,-1,16
 242 337 242 337 247 331 c 0,17,18
 253 327 253 327 253 318 c 0,19,20
 253 310 253 310 247 304 c 0,21,8
 242 298 242 298 234 298 c 128,-1,9
280 256 m 128,-1,23
 280 264 280 264 286 269.5 c 128,-1,24
 292 275 292 275 300 275 c 128,-1,25
 308 275 308 275 313.5 269.5 c 128,-1,26
 319 264 319 264 319 256 c 128,-1,27
 319 248 319 248 313.5 242 c 128,-1,28
 308 236 308 236 300 236 c 128,-1,29
 292 236 292 236 286 242 c 128,-1,22
 280 248 280 248 280 256 c 128,-1,23
234 236 m 0,30,31
 228 236 228 236 220 242 c 0,32,33
 215 249 215 249 215 256 c 0,34,35
 215 264 215 264 220 269 c 0,36,37
 226 275 226 275 234 275 c 128,-1,38
 242 275 242 275 247 269 c 0,39,40
 253 264 253 264 253 256 c 128,-1,41
 253 248 253 248 247 242 c 128,-1,42
 241 236 241 236 234 236 c 0,30,31
280 194 m 128,-1,44
 280 202 280 202 286 207.5 c 128,-1,45
 292 213 292 213 300 213 c 128,-1,46
 308 213 308 213 313.5 207.5 c 128,-1,47
 319 202 319 202 319 194 c 128,-1,48
 319 186 319 186 313.5 180.5 c 128,-1,49
 308 175 308 175 300 175 c 128,-1,50
 292 175 292 175 286 180.5 c 128,-1,43
 280 186 280 186 280 194 c 128,-1,44
234 175 m 0,51,52
 227 175 227 175 220 180 c 0,53,54
 215 187 215 187 215 194 c 0,55,56
 215 202 215 202 220 207 c 0,57,58
 226 213 226 213 234 213 c 128,-1,59
 242 213 242 213 247 207 c 0,60,61
 253 202 253 202 253 194 c 128,-1,62
 253 186 253 186 247 180 c 0,63,64
 242 175 242 175 234 175 c 0,51,52
EndSplineSet
Validated: 513
EndChar

StartChar: search
Encoding: 89 89 45
Width: 512
GlyphClass: 2
Flags: W
LayerCount: 2
Fore
SplineSet
300.799804688 198.399414062 m 1,0,-1
 364.671875 134.400390625 l 1,1,-1
 345.599609375 115.328125 l 1,2,-1
 281.600585938 179.200195312 l 1,3,-1
 281.600585938 189.311523438 l 1,4,-1
 278.143554688 192.896484375 l 1,5,6
 254.768554688 172.799804688 254.768554688 172.799804688 224 172.799804688 c 0,7,8
 189.536132812 172.799804688 189.536132812 172.799804688 165.16796875 197.16796875 c 128,-1,9
 140.799804688 221.536132812 140.799804688 221.536132812 140.799804688 256 c 128,-1,10
 140.799804688 290.463867188 140.799804688 290.463867188 165.16796875 314.83203125 c 128,-1,11
 189.536132812 339.200195312 189.536132812 339.200195312 224 339.200195312 c 128,-1,12
 258.463867188 339.200195312 258.463867188 339.200195312 282.83203125 314.83203125 c 128,-1,13
 307.200195312 290.463867188 307.200195312 290.463867188 307.200195312 256 c 0,14,15
 307.200195312 225.231445312 307.200195312 225.231445312 287.103515625 201.856445312 c 1,16,-1
 290.688476562 198.399414062 l 1,17,-1
 300.799804688 198.399414062 l 1,0,-1
224 198.399414062 m 128,-1,19
 247.904296875 198.399414062 247.904296875 198.399414062 264.751953125 215.248046875 c 128,-1,20
 281.600585938 232.095703125 281.600585938 232.095703125 281.600585938 256 c 128,-1,21
 281.600585938 279.904296875 281.600585938 279.904296875 264.751953125 296.751953125 c 128,-1,22
 247.904296875 313.599609375 247.904296875 313.599609375 224 313.599609375 c 128,-1,23
 200.095703125 313.599609375 200.095703125 313.599609375 183.248046875 296.751953125 c 128,-1,24
 166.400390625 279.904296875 166.400390625 279.904296875 166.400390625 256 c 128,-1,25
 166.400390625 232.095703125 166.400390625 232.095703125 183.248046875 215.248046875 c 128,-1,18
 200.095703125 198.399414062 200.095703125 198.399414062 224 198.399414062 c 128,-1,19
EndSplineSet
EndChar

StartChar: disclosure-collapse
Encoding: 90 90 46
Width: 512
GlyphClass: 2
Flags: W
LayerCount: 2
Fore
SplineSet
264 198 m 1,0,-1
 204 257 l 2,1,2
 197 266 197 266 204 274 c 0,3,4
 213 282 213 282 221 274 c 2,5,-1
 264 231 l 1,6,-1
 307 275 l 2,7,8
 315 283 315 283 324 275 c 0,9,10
 332 266 332 266 324 258 c 2,11,-1
 264 198 l 1,0,-1
EndSplineSet
Validated: 545
EndChar

StartChar: script-upload
Encoding: 82 82 47
Width: 512
GlyphClass: 2
Flags: W
LayerCount: 2
Fore
SplineSet
260 91 m 2,0,-1
 143 91 l 2,1,2
 98 91 98 91 72 134 c 0,3,4
 55 160 55 160 55 175 c 2,5,-1
 52 191 l 1,6,-1
 209 191 l 2,7,8
 222 191 222 191 222 179 c 128,-1,9
 222 167 222 167 209 167 c 2,10,-1
 85 167 l 1,11,12
 87 160 87 160 94 149 c 0,13,14
 113 118 113 118 143 118 c 2,15,-1
 260 118 l 2,16,17
 273 118 273 118 273 104 c 0,18,19
 273 91 273 91 260 91 c 2,0,-1
377 98 m 0,20,21
 365 98 365 98 365 111 c 128,-1,22
 365 124 365 124 377 124 c 0,23,24
 396 124 396 124 407 135 c 0,25,26
 428 160 428 160 421 202 c 1,27,-1
 422 203 l 1,28,-1
 422 409 l 1,29,-1
 165 409 l 1,30,-1
 165 183 l 2,31,32
 165 170 165 170 153 170 c 0,33,34
 140 170 140 170 140 183 c 2,35,-1
 140 434 l 1,36,-1
 446 434 l 1,37,-1
 446 204 l 2,38,39
 446 198 446 198 447 185 c 128,-1,40
 448 172 448 172 442.5 151.5 c 128,-1,41
 437 131 437 131 426 118 c 0,42,43
 406 98 406 98 377 98 c 0,20,21
383 351 m 2,44,-1
 204 351 l 2,45,46
 190 351 190 351 190 365 c 128,-1,47
 190 379 190 379 204 379 c 2,48,-1
 383 379 l 2,49,50
 397 379 397 379 397 365 c 128,-1,51
 397 351 397 351 383 351 c 2,44,-1
383 293 m 2,52,-1
 204 293 l 2,53,54
 190 293 190 293 190 307 c 128,-1,55
 190 321 190 321 204 321 c 2,56,-1
 383 321 l 2,57,58
 397 321 397 321 397 307 c 128,-1,59
 397 293 397 293 383 293 c 2,52,-1
383 235 m 2,60,-1
 367 235 l 2,61,62
 353 235 353 235 353 249 c 128,-1,63
 353 263 353 263 367 263 c 2,64,-1
 383 263 l 2,65,66
 397 263 397 263 397 249 c 128,-1,67
 397 235 397 235 383 235 c 2,60,-1
273 235 m 2,68,-1
 204 235 l 2,69,70
 190 235 190 235 190 249 c 128,-1,71
 190 263 190 263 204 263 c 2,72,-1
 273 263 l 2,73,74
 287 263 287 263 287 249 c 128,-1,75
 287 235 287 235 273 235 c 2,68,-1
400 164 m 1,76,-1
 320 247 l 1,77,-1
 239 164 l 1,78,-1
 288 164 l 1,79,-1
 288 28 l 1,80,-1
 350 50 l 1,81,-1
 350 164 l 1,82,-1
 400 164 l 1,76,-1
EndSplineSet
Validated: 549
EndChar

StartChar: code
Encoding: 87 87 48
Width: 512
GlyphClass: 2
Flags: W
LayerCount: 2
Fore
SplineSet
92 242 m 1,0,-1
 166 315 l 2,1,2
 176 326 176 326 187 315 c 0,3,4
 198 305 198 305 187 294 c 2,5,-1
 134 242 l 1,6,-1
 188 188 l 2,7,8
 199 177 199 177 188 167 c 0,9,10
 178 156 178 156 167 167 c 2,11,-1
 92 242 l 1,0,-1
439 242 m 1,12,-1
 365 315 l 2,13,14
 355 326 355 326 344 315 c 0,15,16
 334 305 334 305 344 294 c 2,17,-1
 397 242 l 1,18,-1
 343 188 l 2,19,20
 332 177 332 177 343 167 c 0,21,22
 354 156 354 156 364 167 c 2,23,-1
 439 242 l 1,12,-1
216 105 m 0,24,25
 214 105 214 105 212 106 c 0,26,27
 203 110 203 110 206 120 c 2,28,-1
 304 374 l 2,29,30
 309 383 309 383 319 380 c 0,31,32
 328 376 328 376 325 366 c 2,33,-1
 226 112 l 2,34,35
 224 105 224 105 216 105 c 0,24,25
EndSplineSet
Validated: 41
EndChar

StartChar: avatar
Encoding: 60 60 49
Width: 512
GlyphClass: 2
Flags: W
LayerCount: 2
Fore
SplineSet
382.93359375 313.599609375 m 1,0,-1
 390.400390625 283.733398438 l 1,1,2
 350.591796875 273.032226562 350.591796875 273.032226562 300.799804688 268.799804688 c 1,3,-1
 300.799804688 74.6669921875 l 1,4,-1
 270.93359375 74.6669921875 l 1,5,-1
 270.93359375 164.266601562 l 1,6,-1
 241.06640625 164.266601562 l 1,7,-1
 241.06640625 74.6669921875 l 1,8,-1
 211.200195312 74.6669921875 l 1,9,-1
 211.200195312 268.799804688 l 1,10,11
 161.408203125 273.032226562 161.408203125 273.032226562 121.599609375 283.733398438 c 1,12,-1
 129.06640625 313.599609375 l 1,13,14
 184.745117188 298.666992188 184.745117188 298.666992188 256 298.666992188 c 128,-1,15
 327.254882812 298.666992188 327.254882812 298.666992188 382.93359375 313.599609375 c 1,0,-1
256 313.599609375 m 128,-1,17
 243.6796875 313.599609375 243.6796875 313.599609375 234.90625 322.373046875 c 128,-1,18
 226.1328125 331.146484375 226.1328125 331.146484375 226.1328125 343.466796875 c 128,-1,19
 226.1328125 355.787109375 226.1328125 355.787109375 234.90625 364.559570312 c 128,-1,20
 243.6796875 373.333007812 243.6796875 373.333007812 256 373.333007812 c 128,-1,21
 268.3203125 373.333007812 268.3203125 373.333007812 277.09375 364.559570312 c 128,-1,22
 285.8671875 355.787109375 285.8671875 355.787109375 285.8671875 343.466796875 c 128,-1,23
 285.8671875 331.146484375 285.8671875 331.146484375 277.09375 322.373046875 c 128,-1,16
 268.3203125 313.599609375 268.3203125 313.599609375 256 313.599609375 c 128,-1,17
EndSplineSet
Validated: 1
EndChar

StartChar: arrows-h
Encoding: 58 58 50
Width: 512
GlyphClass: 2
Flags: W
LayerCount: 2
Fore
SplineSet
512 256 m 128,-1,1
 512 250 512 250 507 243 c 2,2,-1
 433 170 l 2,3,4
 429 165 429 165 421 165 c 0,5,6
 412 165 412 165 408 170 c 0,7,8
 402 176 402 176 402 183 c 2,9,-1
 402 219 l 1,10,-1
 110 219 l 1,11,-1
 110 183 l 2,12,13
 110 176 110 176 104 170 c 0,14,15
 100 165 100 165 91 165 c 0,16,17
 83 165 83 165 79 170 c 2,18,-1
 5 243 l 2,19,20
 0 250 0 250 0 256 c 128,-1,21
 0 262 0 262 5 269 c 2,22,-1
 79 342 l 2,23,24
 83 347 83 347 91 347 c 0,25,26
 100 347 100 347 104 342 c 0,27,28
 110 336 110 336 110 329 c 2,29,-1
 110 293 l 1,30,-1
 402 293 l 1,31,-1
 402 329 l 2,32,33
 402 336 402 336 408 342 c 0,34,35
 412 347 412 347 421 347 c 0,36,37
 429 347 429 347 433 342 c 2,38,-1
 507 269 l 2,39,0
 512 262 512 262 512 256 c 128,-1,1
EndSplineSet
Validated: 513
EndChar

StartChar: arrows-v
Encoding: 59 59 51
Width: 512
GlyphClass: 2
Flags: W
LayerCount: 2
Fore
SplineSet
347 421 m 0,0,1
 347 412 347 412 342 408 c 0,2,3
 336 402 336 402 329 402 c 2,4,-1
 293 402 l 1,5,-1
 293 110 l 1,6,-1
 329 110 l 2,7,8
 336 110 336 110 342 104 c 0,9,10
 347 100 347 100 347 91 c 0,11,12
 347 83 347 83 342 79 c 2,13,-1
 269 5 l 2,14,15
 262 0 262 0 256 0 c 128,-1,16
 250 0 250 0 243 5 c 2,17,-1
 170 79 l 2,18,19
 165 83 165 83 165 91 c 0,20,21
 165 100 165 100 170 104 c 0,22,23
 176 110 176 110 183 110 c 2,24,-1
 219 110 l 1,25,-1
 219 402 l 1,26,-1
 183 402 l 2,27,28
 176 402 176 402 170 408 c 0,29,30
 165 412 165 412 165 421 c 0,31,32
 165 429 165 429 170 433 c 2,33,-1
 243 507 l 2,34,35
 250 512 250 512 256 512 c 128,-1,36
 262 512 262 512 269 507 c 2,37,-1
 342 433 l 2,38,39
 347 429 347 429 347 421 c 0,0,1
EndSplineSet
Validated: 513
EndChar

StartChar: arrows
Encoding: 96 96 52
Width: 512
GlyphClass: 2
InSpiro: 1
Flags: W
LayerCount: 2
Fore
SplineSet
213.333007812 288 m 1,0,-1
 213.333007812 352 l 1,1,-1
 149.333007812 352 l 1,2,-1
 256 458.666992188 l 1,3,-1
 362.666992188 352 l 1,4,-1
 298.666992188 352 l 1,5,-1
 298.666992188 288 l 1,6,-1
 213.333007812 288 l 1,0,-1
  Spiro
    213.333 288 v
    213.333 352 v
    149.333 352 v
    256 458.667 v
    362.667 352 v
    298.667 352 v
    298.667 288 v
    0 0 z
  EndSpiro
192 266.666992188 m 1,7,-1
 192 181.333007812 l 1,8,-1
 128 181.333007812 l 1,9,-1
 128 117.333007812 l 1,10,-1
 21.3330078125 224 l 1,11,-1
 128 330.666992188 l 1,12,-1
 128 266.666992188 l 1,13,-1
 192 266.666992188 l 1,7,-1
  Spiro
    192 266.667 v
    192 181.333 v
    128 181.333 v
    128 117.333 v
    21.333 224 v
    128 330.667 v
    128 266.667 v
    0 0 z
  EndSpiro
490.666992188 224 m 1,14,-1
 384 117.333007812 l 1,15,-1
 384 181.333007812 l 1,16,-1
 320 181.333007812 l 1,17,-1
 320 266.666992188 l 1,18,-1
 384 266.666992188 l 1,19,-1
 384 330.666992188 l 1,20,-1
 490.666992188 224 l 1,14,-1
  Spiro
    490.667 224 v
    384 117.333 v
    384 181.333 v
    320 181.333 v
    320 266.667 v
    384 266.667 v
    384 330.667 v
    0 0 z
  EndSpiro
298.666992188 160 m 1,21,-1
 298.666992188 96 l 1,22,-1
 362.666992188 96 l 1,23,-1
 256 -10.6669921875 l 1,24,-1
 149.333007812 96 l 1,25,-1
 213.333007812 96 l 1,26,-1
 213.333007812 160 l 1,27,-1
 298.666992188 160 l 1,21,-1
  Spiro
    298.667 160 v
    298.667 96 v
    362.667 96 v
    256 -10.667 v
    149.333 96 v
    213.333 96 v
    213.333 160 v
    0 0 z
  EndSpiro
EndSplineSet
Validated: 1
EndChar

StartChar: compress
Encoding: 33 33 53
Width: 512
GlyphClass: 2
Flags: W
LayerCount: 2
Fore
SplineSet
256 238 m 2,0,-1
 256 110 l 2,1,2
 256 102 256 102 251 97 c 0,3,4
 245 91 245 91 238 91 c 0,5,6
 230 91 230 91 225 97 c 2,7,-1
 184 138 l 1,8,-1
 89 43 l 2,9,10
 86 40 86 40 82 40 c 0,11,12
 79 40 79 40 76 43 c 2,13,-1
 43 76 l 2,14,15
 40 79 40 79 40 82 c 0,16,17
 40 86 40 86 43 89 c 2,18,-1
 138 184 l 1,19,-1
 97 225 l 2,20,21
 91 230 91 230 91 238 c 0,22,23
 91 245 91 245 97 251 c 0,24,25
 102 256 102 256 110 256 c 2,26,-1
 238 256 l 2,27,28
 244 256 244 256 251 251 c 0,29,30
 256 244 256 244 256 238 c 2,0,-1
472 430 m 0,31,32
 472 426 472 426 469 423 c 2,33,-1
 374 328 l 1,34,-1
 415 287 l 2,35,36
 421 282 421 282 421 274 c 0,37,38
 421 267 421 267 415 261 c 0,39,40
 410 256 410 256 402 256 c 2,41,-1
 274 256 l 2,42,43
 268 256 268 256 261 261 c 0,44,45
 256 268 256 268 256 274 c 2,46,-1
 256 402 l 2,47,48
 256 410 256 410 261 415 c 0,49,50
 267 421 267 421 274 421 c 0,51,52
 282 421 282 421 287 415 c 2,53,-1
 328 374 l 1,54,-1
 423 469 l 2,55,56
 426 472 426 472 430 472 c 0,57,58
 433 472 433 472 436 469 c 2,59,-1
 469 436 l 2,60,61
 472 433 472 433 472 430 c 0,31,32
EndSplineSet
Validated: 1
EndChar

StartChar: expand
Encoding: 34 34 54
Width: 512
GlyphClass: 2
Flags: W
LayerCount: 2
Fore
SplineSet
252 210 m 0,0,1
 252 207 252 207 249 204 c 2,2,-1
 155 109 l 1,3,-1
 196 68 l 2,4,5
 201 61 201 61 201 55 c 128,-1,6
 201 49 201 49 196 42 c 0,7,8
 191 37 191 37 183 37 c 2,9,-1
 55 37 l 2,10,11
 47 37 47 37 42 42 c 128,-1,12
 37 47 37 47 37 55 c 2,13,-1
 37 183 l 2,14,15
 37 191 37 191 42 196 c 0,16,17
 49 201 49 201 55 201 c 128,-1,18
 61 201 61 201 68 196 c 2,19,-1
 109 155 l 1,20,-1
 204 249 l 2,21,22
 207 252 207 252 210 252 c 0,23,24
 214 252 214 252 217 249 c 2,25,-1
 249 217 l 2,26,27
 252 214 252 214 252 210 c 0,0,1
475 457 m 2,28,-1
 475 329 l 2,29,30
 475 321 475 321 470 316 c 0,31,32
 463 311 463 311 457 311 c 128,-1,33
 451 311 451 311 444 316 c 2,34,-1
 403 357 l 1,35,-1
 308 263 l 2,36,37
 305 260 305 260 302 260 c 0,38,39
 298 260 298 260 295 263 c 2,40,-1
 263 295 l 2,41,42
 260 298 260 298 260 302 c 0,43,44
 260 305 260 305 263 308 c 2,45,-1
 357 403 l 1,46,-1
 316 444 l 2,47,48
 311 451 311 451 311 457 c 128,-1,49
 311 463 311 463 316 470 c 0,50,51
 321 475 321 475 329 475 c 2,52,-1
 457 475 l 2,53,54
 465 475 465 475 470 470 c 128,-1,55
 475 465 475 465 475 457 c 2,28,-1
EndSplineSet
Validated: 1
EndChar

StartChar: placemark-1
Encoding: 35 35 55
Width: 512
GlyphClass: 2
Flags: W
LayerCount: 2
Fore
SplineSet
307.200195312 352 m 1,0,-1
 426.666992188 352 l 1,1,-1
 426.666992188 138.666992188 l 1,2,-1
 277.333007812 138.666992188 l 1,3,-1
 268.799804688 181.333007812 l 1,4,-1
 149.333007812 181.333007812 l 1,5,-1
 149.333007812 32 l 1,6,-1
 106.666992188 32 l 1,7,-1
 106.666992188 394.666992188 l 1,8,-1
 298.666992188 394.666992188 l 1,9,-1
 307.200195312 352 l 1,0,-1
EndSplineSet
Validated: 513
EndChar

StartChar: circle
Encoding: 36 36 56
Width: 512
GlyphClass: 2
Flags: W
LayerCount: 2
Fore
SplineSet
366 238 m 0,0,1
 366 290 366 290 328 328 c 128,-1,2
 290 366 290 366 238 366 c 0,3,4
 185 366 185 366 147 328 c 0,5,6
 110 291 110 291 110 238 c 0,7,8
 110 184 110 184 147 147 c 128,-1,9
 184 110 184 110 238 110 c 0,10,11
 291 110 291 110 328 147 c 0,12,13
 366 185 366 185 366 238 c 0,0,1
402 238 m 0,14,15
 402 203 402 203 389 174 c 0,16,17
 377 144 377 144 354 121 c 0,18,19
 330 99 330 99 302 86 c 0,20,21
 272 73 272 73 238 73 c 0,22,23
 203 73 203 73 174 86 c 0,24,25
 144 99 144 99 121 121 c 0,26,27
 99 144 99 144 86 174 c 0,28,29
 73 203 73 203 73 238 c 0,30,31
 73 272 73 272 86 302 c 0,32,33
 99 330 99 330 121 354 c 0,34,35
 144 377 144 377 174 389 c 0,36,37
 203 402 203 402 238 402 c 0,38,39
 272 402 272 402 302 389 c 0,40,41
 330 378 330 378 354 354 c 128,-1,42
 378 330 378 330 389 302 c 0,43,44
 402 272 402 272 402 238 c 0,14,15
EndSplineSet
Validated: 1
EndChar

StartChar: hand-pointer
Encoding: 57 57 57
Width: 512
GlyphClass: 2
Flags: W
LayerCount: 2
Fore
SplineSet
183 475 m 128,-1,1
 167 475 167 475 157 465 c 0,2,3
 146 454 146 454 146 439 c 2,4,-1
 146 183 l 1,5,-1
 103 241 l 2,6,7
 91 256 91 256 73 256 c 0,8,9
 58 256 58 256 47 245 c 0,10,11
 37 235 37 235 37 219 c 0,12,13
 37 207 37 207 44 197 c 2,14,-1
 154 51 l 2,15,16
 164 37 164 37 183 37 c 2,17,-1
 388 37 l 2,18,19
 394 37 394 37 399 40 c 0,20,21
 405 44 405 44 406 50 c 2,22,-1
 432 155 l 2,23,24
 439 182 439 182 439 211 c 2,25,-1
 439 273 l 2,26,27
 439 283 439 283 431 293 c 0,28,29
 424 302 424 302 411 302 c 0,30,31
 400 302 400 302 392 294 c 0,32,33
 384 284 384 284 384 274 c 1,34,-1
 375 274 l 1,35,-1
 375 292 l 2,36,37
 375 306 375 306 366 315 c 0,38,39
 356 325 356 325 343 325 c 0,40,41
 332 325 332 325 320 315 c 0,42,43
 311 306 311 306 311 293 c 2,44,-1
 311 274 l 1,45,-1
 302 274 l 1,46,-1
 302 300 l 2,47,48
 302 314 302 314 291 327 c 0,49,50
 281 338 281 338 265 338 c 128,-1,51
 249 338 249 338 239 328 c 0,52,53
 229 317 229 317 229 302 c 2,54,-1
 229 274 l 1,55,-1
 219 274 l 1,56,-1
 219 437 l 2,57,58
 219 454 219 454 209 464 c 0,59,0
 199 475 199 475 183 475 c 128,-1,1
183 512 m 128,-1,61
 214 512 214 512 235 490 c 128,-1,62
 256 468 256 468 256 437 c 2,63,-1
 256 374 l 1,64,65
 260 375 260 375 265 375 c 0,66,67
 292 375 292 375 315 355 c 1,68,69
 328 361 328 361 343 361 c 0,70,71
 376 361 376 361 395 336 c 1,72,73
 401 338 401 338 411 338 c 0,74,75
 438 338 438 338 457 319 c 0,76,77
 475 300 475 300 475 273 c 2,78,-1
 475 211 l 2,79,80
 475 174 475 174 467 147 c 2,81,-1
 441 41 l 2,82,83
 436 22 436 22 422 12 c 0,84,85
 407 0 407 0 388 0 c 2,86,-1
 183 0 l 2,87,88
 168 0 168 0 150 8 c 0,89,90
 134 16 134 16 124 29 c 2,91,-1
 15 175 l 2,92,93
 0 194 0 194 0 219 c 0,94,95
 0 250 0 250 21 271 c 0,96,97
 43 293 43 293 73 293 c 0,98,99
 90 293 90 293 110 283 c 1,100,-1
 110 439 l 2,101,102
 110 468 110 468 131 491 c 0,103,60
 152 512 152 512 183 512 c 128,-1,61
219 110 m 1,104,-1
 219 219 l 1,105,-1
 210 219 l 1,106,-1
 210 110 l 1,107,-1
 219 110 l 1,104,-1
293 110 m 1,108,-1
 293 219 l 1,109,-1
 283 219 l 1,110,-1
 283 110 l 1,111,-1
 293 110 l 1,108,-1
366 110 m 1,112,-1
 366 219 l 1,113,-1
 357 219 l 1,114,-1
 357 110 l 1,115,-1
 366 110 l 1,112,-1
EndSplineSet
Validated: 521
EndChar

StartChar: plus-square-o
Encoding: 37 37 58
Width: 512
GlyphClass: 2
Flags: W
LayerCount: 2
Fore
SplineSet
375.466796875 206.93359375 m 5,0,-1
 273.06640625 206.93359375 l 5,1,-1
 273.06640625 104.533203125 l 5,2,-1
 238.93359375 104.533203125 l 5,3,-1
 238.93359375 206.93359375 l 5,4,-1
 136.533203125 206.93359375 l 5,5,-1
 136.533203125 241.06640625 l 5,6,-1
 238.93359375 241.06640625 l 5,7,-1
 238.93359375 343.466796875 l 5,8,-1
 273.06640625 343.466796875 l 5,9,-1
 273.06640625 241.06640625 l 5,10,-1
 375.466796875 241.06640625 l 5,11,-1
 375.466796875 206.93359375 l 5,0,-1
405.333007812 373.333007812 m 1,12,-1
 106.666992188 373.333007812 l 1,13,-1
 106.666992188 74.6669921875 l 1,14,-1
 405.333007812 74.6669921875 l 1,15,-1
 405.333007812 373.333007812 l 1,12,-1
405.333007812 416 m 2,16,17
 422.933105469 416 422.933105469 416 435.466552734 403.466552734 c 128,-1,18
 448 390.933105469 448 390.933105469 448 373.333007812 c 2,19,-1
 448 74.6669921875 l 2,20,21
 448 57.0668945312 448 57.0668945312 435.466552734 44.5334472656 c 128,-1,22
 422.933105469 32 422.933105469 32 405.333007812 32 c 2,23,-1
 106.666992188 32 l 2,24,25
 89.0668945312 32 89.0668945312 32 76.5334472656 44.5334472656 c 128,-1,26
 64 57.0668945312 64 57.0668945312 64 74.6669921875 c 2,27,-1
 64 373.333007812 l 2,28,29
 64 390.933105469 64 390.933105469 76.5334472656 403.466552734 c 128,-1,30
 89.0668945312 416 89.0668945312 416 106.666992188 416 c 2,31,-1
 405.333007812 416 l 2,16,17
EndSplineSet
Validated: 513
EndChar

StartChar: square
Encoding: 39 39 59
Width: 512
GlyphClass: 2
Flags: W
LayerCount: 2
Fore
SplineSet
405.333007812 373.333007812 m 1,0,-1
 106.666992188 373.333007812 l 1,1,-1
 106.666992188 74.6669921875 l 1,2,-1
 405.333007812 74.6669921875 l 1,3,-1
 405.333007812 373.333007812 l 1,0,-1
405.333007812 416 m 2,4,5
 422.933105469 416 422.933105469 416 435.466552734 403.466552734 c 128,-1,6
 448 390.933105469 448 390.933105469 448 373.333007812 c 2,7,-1
 448 74.6669921875 l 2,8,9
 448 57.0668945312 448 57.0668945312 435.466552734 44.5334472656 c 128,-1,10
 422.933105469 32 422.933105469 32 405.333007812 32 c 2,11,-1
 106.666992188 32 l 2,12,13
 89.0668945312 32 89.0668945312 32 76.5334472656 44.5334472656 c 128,-1,14
 64 57.0668945312 64 57.0668945312 64 74.6669921875 c 2,15,-1
 64 373.333007812 l 2,16,17
 64 390.933105469 64 390.933105469 76.5334472656 403.466552734 c 128,-1,18
 89.0668945312 416 89.0668945312 416 106.666992188 416 c 2,19,-1
 405.333007812 416 l 2,4,5
EndSplineSet
Validated: 1
EndChar

StartChar: align-center
Encoding: 56 56 60
Width: 512
GlyphClass: 2
Flags: W
LayerCount: 2
Fore
SplineSet
149.333007812 160 m 1,0,-1
 362.666992188 160 l 1,1,-1
 362.666992188 117.333007812 l 1,2,-1
 149.333007812 117.333007812 l 1,3,-1
 149.333007812 160 l 1,0,-1
64 32 m 1,4,-1
 64 74.6669921875 l 1,5,-1
 448 74.6669921875 l 1,6,-1
 448 32 l 1,7,-1
 64 32 l 1,4,-1
64 202.666992188 m 1,8,-1
 64 245.333007812 l 1,9,-1
 448 245.333007812 l 1,10,-1
 448 202.666992188 l 1,11,-1
 64 202.666992188 l 1,8,-1
149.333007812 330.666992188 m 1,12,-1
 362.666992188 330.666992188 l 1,13,-1
 362.666992188 288 l 1,14,-1
 149.333007812 288 l 1,15,-1
 149.333007812 330.666992188 l 1,12,-1
64 416 m 1,16,-1
 448 416 l 1,17,-1
 448 373.333007812 l 1,18,-1
 64 373.333007812 l 1,19,-1
 64 416 l 1,16,-1
EndSplineSet
Validated: 513
EndChar

StartChar: align-justify
Encoding: 41 41 61
Width: 512
GlyphClass: 2
Flags: W
LayerCount: 2
Fore
SplineSet
64 32 m 1,0,-1
 64 74.6669921875 l 1,1,-1
 448 74.6669921875 l 1,2,-1
 448 32 l 1,3,-1
 64 32 l 1,0,-1
64 117.333007812 m 1,4,-1
 64 160 l 1,5,-1
 448 160 l 1,6,-1
 448 117.333007812 l 1,7,-1
 64 117.333007812 l 1,4,-1
64 202.666992188 m 1,8,-1
 64 245.333007812 l 1,9,-1
 448 245.333007812 l 1,10,-1
 448 202.666992188 l 1,11,-1
 64 202.666992188 l 1,8,-1
64 288 m 1,12,-1
 64 330.666992188 l 1,13,-1
 448 330.666992188 l 1,14,-1
 448 288 l 1,15,-1
 64 288 l 1,12,-1
64 416 m 1,16,-1
 448 416 l 1,17,-1
 448 373.333007812 l 1,18,-1
 64 373.333007812 l 1,19,-1
 64 416 l 1,16,-1
EndSplineSet
Validated: 513
EndChar

StartChar: align-left
Encoding: 42 42 62
Width: 512
GlyphClass: 2
Flags: W
LayerCount: 2
Fore
SplineSet
320 160 m 1,0,-1
 320 117.333007812 l 1,1,-1
 64 117.333007812 l 1,2,-1
 64 160 l 1,3,-1
 320 160 l 1,0,-1
320 330.666992188 m 1,4,-1
 320 288 l 1,5,-1
 64 288 l 1,6,-1
 64 330.666992188 l 1,7,-1
 320 330.666992188 l 1,4,-1
64 202.666992188 m 1,8,-1
 64 245.333007812 l 1,9,-1
 448 245.333007812 l 1,10,-1
 448 202.666992188 l 1,11,-1
 64 202.666992188 l 1,8,-1
64 32 m 1,12,-1
 64 74.6669921875 l 1,13,-1
 448 74.6669921875 l 1,14,-1
 448 32 l 1,15,-1
 64 32 l 1,12,-1
64 416 m 1,16,-1
 448 416 l 1,17,-1
 448 373.333007812 l 1,18,-1
 64 373.333007812 l 1,19,-1
 64 416 l 1,16,-1
EndSplineSet
Validated: 513
EndChar

StartChar: align-right
Encoding: 94 94 63
Width: 512
GlyphClass: 2
Flags: W
LayerCount: 2
Fore
SplineSet
64 32 m 1,0,-1
 64 74.6669921875 l 1,1,-1
 448 74.6669921875 l 1,2,-1
 448 32 l 1,3,-1
 64 32 l 1,0,-1
192 117.333007812 m 1,4,-1
 192 160 l 1,5,-1
 448 160 l 1,6,-1
 448 117.333007812 l 1,7,-1
 192 117.333007812 l 1,4,-1
64 202.666992188 m 1,8,-1
 64 245.333007812 l 1,9,-1
 448 245.333007812 l 1,10,-1
 448 202.666992188 l 1,11,-1
 64 202.666992188 l 1,8,-1
192 288 m 1,12,-1
 192 330.666992188 l 1,13,-1
 448 330.666992188 l 1,14,-1
 448 288 l 1,15,-1
 192 288 l 1,12,-1
64 416 m 1,16,-1
 448 416 l 1,17,-1
 448 373.333007812 l 1,18,-1
 64 373.333007812 l 1,19,-1
 64 416 l 1,16,-1
EndSplineSet
Validated: 513
EndChar

StartChar: bars
Encoding: 55 55 64
Width: 512
GlyphClass: 2
Flags: W
LayerCount: 2
Fore
SplineSet
64 32 m 1,0,-1
 64 74.6669921875 l 1,1,-1
 448 74.6669921875 l 1,2,-1
 448 32 l 1,3,-1
 64 32 l 1,0,-1
64 117.333007812 m 1,4,-1
 64 160 l 1,5,-1
 448 160 l 1,6,-1
 448 117.333007812 l 1,7,-1
 64 117.333007812 l 1,4,-1
64 202.666992188 m 1,8,-1
 64 245.333007812 l 1,9,-1
 448 245.333007812 l 1,10,-1
 448 202.666992188 l 1,11,-1
 64 202.666992188 l 1,8,-1
64 288 m 1,12,-1
 64 330.666992188 l 1,13,-1
 448 330.666992188 l 1,14,-1
 448 288 l 1,15,-1
 64 288 l 1,12,-1
64 416 m 1,16,-1
 448 416 l 1,17,-1
 448 373.333007812 l 1,18,-1
 64 373.333007812 l 1,19,-1
 64 416 l 1,16,-1
EndSplineSet
Validated: 1
EndChar

StartChar: circle-slash
Encoding: 44 44 65
Width: 512
GlyphClass: 2
Flags: W
LayerCount: 2
Fore
SplineSet
256 373.333007812 m 128,-1,1
 317.82421875 373.333007812 317.82421875 373.333007812 361.578125 329.578125 c 128,-1,2
 405.333007812 285.82421875 405.333007812 285.82421875 405.333007812 224 c 128,-1,3
 405.333007812 162.17578125 405.333007812 162.17578125 361.578125 118.421875 c 128,-1,4
 317.82421875 74.6669921875 317.82421875 74.6669921875 256 74.6669921875 c 128,-1,5
 194.17578125 74.6669921875 194.17578125 74.6669921875 150.421875 118.421875 c 128,-1,6
 106.666992188 162.17578125 106.666992188 162.17578125 106.666992188 224 c 128,-1,7
 106.666992188 285.82421875 106.666992188 285.82421875 150.421875 329.578125 c 128,-1,0
 194.17578125 373.333007812 194.17578125 373.333007812 256 373.333007812 c 128,-1,1
136.533203125 224 m 0,8,9
 136.533203125 182.96875 136.533203125 182.96875 161.770507812 150.827148438 c 1,10,-1
 329.172851562 318.229492188 l 1,11,12
 297.03125 343.466796875 297.03125 343.466796875 256 343.466796875 c 0,13,14
 206.49609375 343.466796875 206.49609375 343.466796875 171.514648438 308.485351562 c 128,-1,15
 136.533203125 273.50390625 136.533203125 273.50390625 136.533203125 224 c 0,8,9
256 104.533203125 m 0,16,17
 305.50390625 104.533203125 305.50390625 104.533203125 340.485351562 139.514648438 c 128,-1,18
 375.466796875 174.49609375 375.466796875 174.49609375 375.466796875 224 c 0,19,20
 375.466796875 265.03125 375.466796875 265.03125 350.229492188 297.172851562 c 1,21,-1
 182.827148438 129.770507812 l 1,22,23
 214.96875 104.533203125 214.96875 104.533203125 256 104.533203125 c 0,16,17
EndSplineSet
Validated: 513
EndChar

StartChar: sync
Encoding: 40 40 66
Width: 512
GlyphClass: 2
Flags: W
LayerCount: 2
Fore
SplineSet
256 352 m 1,0,1
 203 352 203 352 165.5 314.5 c 128,-1,2
 128 277 128 277 128 224 c 0,3,4
 128 191.809671634 128 191.809671634 142.93359375 164.266601562 c 1,5,-1
 111.787109375 133.120117188 l 1,6,7
 85.3330078125 174.835006212 85.3330078125 174.835006212 85.3330078125 224 c 0,8,9
 85.3330078125 294.719726562 85.3330078125 294.719726562 135.306640625 344.693359375 c 128,-1,10
 185.280273438 394.666992188 185.280273438 394.666992188 256 394.666992188 c 1,11,-1
 256 458.666992188 l 1,12,-1
 341.333007812 373.333007812 l 1,13,-1
 256 288 l 1,14,-1
 256 352 l 1,0,1
400.212890625 314.879882812 m 1,15,16
 426.666992188 273.164993788 426.666992188 273.164993788 426.666992188 224 c 0,17,18
 426.666992188 153.280273438 426.666992188 153.280273438 376.693359375 103.306640625 c 128,-1,19
 326.719726562 53.3330078125 326.719726562 53.3330078125 256 53.3330078125 c 1,20,-1
 256 -10.6669921875 l 1,21,-1
 170.666992188 74.6669921875 l 1,22,-1
 256 160 l 1,23,-1
 256 96 l 1,24,25
 309 96 309 96 346.5 133.5 c 128,-1,26
 384 171 384 171 384 224 c 0,27,28
 384 255.224092849 384 255.224092849 369.06640625 283.733398438 c 1,29,-1
 400.212890625 314.879882812 l 1,15,16
EndSplineSet
Validated: 1
EndChar

StartChar: key
Encoding: 45 45 67
Width: 512
GlyphClass: 2
Flags: W
LayerCount: 2
Fore
SplineSet
0 480 m 1,0,-1
 512 480 l 1025,1,-1
269.866210938 266.666992188 m 1,2,-1
 490.666992188 266.666992188 l 1,3,-1
 490.666992188 181.333007812 l 1,4,-1
 448 181.333007812 l 1,5,-1
 448 96 l 1,6,-1
 362.666992188 96 l 1,7,-1
 362.666992188 181.333007812 l 1,8,-1
 269.866210938 181.333007812 l 1,9,10
 261.138496982 156.533593275 261.138496982 156.533593275 243.443309441 137.231217329 c 128,-1,11
 225.748121899 117.928841383 225.748121899 117.928841383 201.214242643 106.964420692 c 128,-1,12
 176.680363386 96 176.680363386 96 149.333007812 96 c 0,13,14
 96.373046875 96 96.373046875 96 58.8530273438 133.520019531 c 128,-1,15
 21.3330078125 171.040039062 21.3330078125 171.040039062 21.3330078125 224 c 128,-1,16
 21.3330078125 276.959960938 21.3330078125 276.959960938 58.8530273438 314.479980469 c 128,-1,17
 96.373046875 352 96.373046875 352 149.333007812 352 c 0,18,19
 190.570785657 352 190.570785657 352 223.569782889 328.22552789 c 128,-1,20
 256.568780121 304.45105578 256.568780121 304.45105578 269.866210938 266.666992188 c 1,2,-1
149.333007812 181.333007812 m 0,21,22
 166.933105469 181.333007812 166.933105469 181.333007812 179.466552734 193.866455078 c 128,-1,23
 192 206.399902344 192 206.399902344 192 224 c 128,-1,24
 192 241.600097656 192 241.600097656 179.466552734 254.133544922 c 128,-1,25
 166.933105469 266.666992188 166.933105469 266.666992188 149.333007812 266.666992188 c 0,26,27
 137.793806105 266.666992188 137.793806105 266.666992188 127.959437854 260.937692183 c 128,-1,28
 118.125069604 255.208392179 118.125069604 255.208392179 112.396030896 245.373831254 c 128,-1,29
 106.666992188 235.53927033 106.666992188 235.53927033 106.666992188 224 c 128,-1,30
 106.666992188 212.46072967 106.666992188 212.46072967 112.396030896 202.626168746 c 128,-1,31
 118.125069604 192.791607821 118.125069604 192.791607821 127.959437854 187.062307817 c 128,-1,32
 137.793806105 181.333007812 137.793806105 181.333007812 149.333007812 181.333007812 c 0,21,22
EndSplineSet
Validated: 3
EndChar

StartChar: link
Encoding: 46 46 68
Width: 512
GlyphClass: 2
Flags: W
LayerCount: 2
Fore
SplineSet
83.2001953125 224 m 128,-1,1
 83.2001953125 196.639724018 83.2001953125 196.639724018 102.586754202 177.252967478 c 128,-1,2
 121.973313092 157.866210938 121.973313092 157.866210938 149.333007812 157.866210938 c 2,3,-1
 234.666992188 157.866210938 l 1,4,-1
 234.666992188 117.333007812 l 1,5,-1
 149.333007812 117.333007812 l 2,6,7
 105.173188773 117.333007812 105.173188773 117.333007812 73.9200904801 148.586501316 c 128,-1,8
 42.6669921875 179.83999482 42.6669921875 179.83999482 42.6669921875 224 c 128,-1,9
 42.6669921875 268.16000518 42.6669921875 268.16000518 73.9200904801 299.413498684 c 128,-1,10
 105.173188773 330.666992188 105.173188773 330.666992188 149.333007812 330.666992188 c 2,11,-1
 234.666992188 330.666992188 l 1,12,-1
 234.666992188 290.133789062 l 1,13,-1
 149.333007812 290.133789062 l 2,14,15
 121.973313092 290.133789062 121.973313092 290.133789062 102.586754202 270.747032522 c 128,-1,0
 83.2001953125 251.360275982 83.2001953125 251.360275982 83.2001953125 224 c 128,-1,1
170.666992188 202.666992188 m 1,16,-1
 170.666992188 245.333007812 l 1,17,-1
 341.333007812 245.333007812 l 1,18,-1
 341.333007812 202.666992188 l 1,19,-1
 170.666992188 202.666992188 l 1,16,-1
362.666992188 330.666992188 m 2,20,21
 406.826811227 330.666992188 406.826811227 330.666992188 438.07990952 299.413498684 c 128,-1,22
 469.333007812 268.16000518 469.333007812 268.16000518 469.333007812 224 c 128,-1,23
 469.333007812 179.83999482 469.333007812 179.83999482 438.07990952 148.586501316 c 128,-1,24
 406.826811227 117.333007812 406.826811227 117.333007812 362.666992188 117.333007812 c 2,25,-1
 277.333007812 117.333007812 l 1,26,-1
 277.333007812 157.866210938 l 1,27,-1
 362.666992188 157.866210938 l 2,28,29
 376.104073014 157.866210938 376.104073014 157.866210938 388.349575117 163.110010163 c 128,-1,30
 400.595077219 168.353809389 400.595077219 168.353809389 409.453662798 177.212469085 c 128,-1,31
 418.312248378 186.071128781 418.312248378 186.071128781 423.556026533 198.316858308 c 128,-1,32
 428.799804688 210.562587835 428.799804688 210.562587835 428.799804688 224 c 0,33,34
 428.799804688 251.360275982 428.799804688 251.360275982 409.413245798 270.747032522 c 128,-1,35
 390.026686908 290.133789062 390.026686908 290.133789062 362.666992188 290.133789062 c 2,36,-1
 277.333007812 290.133789062 l 1,37,-1
 277.333007812 330.666992188 l 1,38,-1
 362.666992188 330.666992188 l 2,20,21
EndSplineSet
Validated: 1
EndChar

StartChar: location
Encoding: 47 47 69
Width: 512
GlyphClass: 2
Flags: W
LayerCount: 2
Fore
SplineSet
256 437.333007812 m 128,-1,1
 317.919677734 437.333007812 317.919677734 437.333007812 361.626342773 393.626342773 c 128,-1,2
 405.333007812 349.919677734 405.333007812 349.919677734 405.333007812 288 c 0,3,4
 405.333007812 256.64 405.333007812 256.64 389.951708008 216.538700195 c 128,-1,5
 374.570408203 176.437400391 374.570408203 176.437400391 352.618456055 141.605448242 c 128,-1,6
 330.666503906 106.773496094 330.666503906 106.773496094 308.714551758 76.4215439453 c 128,-1,7
 286.762599609 46.0695917969 286.762599609 46.0695917969 271.381299805 28.3682919922 c 2,8,-1
 256 10.6669921875 l 1,9,10
 249.931487332 17.3946283616 249.931487332 17.3946283616 239.860136112 29.2092465139 c 128,-1,11
 229.788784892 41.0238646663 229.788784892 41.0238646663 204.044012326 75.5805894236 c 128,-1,12
 178.29923976 110.137314181 178.29923976 110.137314181 158.622979862 142.446402764 c 128,-1,13
 138.946719964 174.755491347 138.946719964 174.755491347 122.806856076 215.697745674 c 128,-1,14
 106.666992188 256.64 106.666992188 256.64 106.666992188 288 c 0,15,16
 106.666992188 349.919677734 106.666992188 349.919677734 150.373657227 393.626342773 c 128,-1,0
 194.080322266 437.333007812 194.080322266 437.333007812 256 437.333007812 c 128,-1,1
256 234.666992188 m 128,-1,18
 278.080322266 234.666992188 278.080322266 234.666992188 293.706665039 250.293334961 c 128,-1,19
 309.333007812 265.919677734 309.333007812 265.919677734 309.333007812 288 c 128,-1,20
 309.333007812 310.080322266 309.333007812 310.080322266 293.706665039 325.706665039 c 128,-1,21
 278.080322266 341.333007812 278.080322266 341.333007812 256 341.333007812 c 128,-1,22
 233.919677734 341.333007812 233.919677734 341.333007812 218.293334961 325.706665039 c 128,-1,23
 202.666992188 310.080322266 202.666992188 310.080322266 202.666992188 288 c 128,-1,24
 202.666992188 265.919677734 202.666992188 265.919677734 218.293334961 250.293334961 c 128,-1,17
 233.919677734 234.666992188 233.919677734 234.666992188 256 234.666992188 c 128,-1,18
EndSplineSet
Validated: 1
EndChar

StartChar: carat-r
Encoding: 51 51 70
Width: 512
GlyphClass: 2
Flags: W
LayerCount: 2
Fore
SplineSet
240 170.666015625 m 5,0,-1
 240 277.333984375 l 5,1,-1
 293.333007812 224 l 5,2,-1
 240 170.666015625 l 5,0,-1
EndSplineSet
Validated: 513
EndChar

StartChar: carat-l
Encoding: 52 52 71
Width: 512
GlyphClass: 2
Flags: W
LayerCount: 2
Fore
SplineSet
272 277.333984375 m 5,0,-1
 272 170.666015625 l 5,1,-1
 218.666992188 224 l 5,2,-1
 272 277.333984375 l 5,0,-1
EndSplineSet
Validated: 513
EndChar

StartChar: folder-lg
Encoding: 62 62 72
Width: 512
GlyphClass: 2
Flags: W
LayerCount: 2
Fore
SplineSet
213.333007812 394.666992188 m 1,0,-1
 256 352 l 1,1,-1
 426.666992188 352 l 2,2,3
 435.309079821 352 435.309079821 352 443.207285195 348.606979689 c 128,-1,4
 451.105490569 345.213959379 451.105490569 345.213959379 456.826375694 339.492873826 c 128,-1,5
 462.547260819 333.771788274 462.547260819 333.771788274 465.940134316 325.873459181 c 128,-1,6
 469.333007812 317.975130089 469.333007812 317.975130089 469.333007812 309.333007812 c 2,7,-1
 469.333007812 96 l 2,8,9
 469.333007812 78.399809736 469.333007812 78.399809736 456.800002526 65.8664087743 c 128,-1,10
 444.266997239 53.3330078125 444.266997239 53.3330078125 426.666992188 53.3330078125 c 2,11,-1
 85.3330078125 53.3330078125 l 2,12,13
 67.733002761 53.3330078125 67.733002761 53.3330078125 55.1999974743 65.8664087743 c 128,-1,14
 42.6669921875 78.399809736 42.6669921875 78.399809736 42.6669921875 96 c 2,15,-1
 42.8798828125 352 l 2,16,17
 42.8798828125 369.620519297 42.8798828125 369.620519297 55.3165367099 382.143755742 c 128,-1,18
 67.7531906072 394.666992188 67.7531906072 394.666992188 85.3330078125 394.666992188 c 2,19,-1
 213.333007812 394.666992188 l 1,0,-1
EndSplineSet
Validated: 513
EndChar

StartChar: folder-sm
Encoding: 63 63 73
Width: 512
GlyphClass: 2
Flags: W
LayerCount: 2
Fore
SplineSet
234.666015625 309.333984375 m 1,0,-1
 256 288 l 1,1,-1
 341.333984375 288 l 2,2,3
 345.654296875 288 345.654296875 288 349.603515625 286.303710938 c 128,-1,4
 353.552734375 284.607421875 353.552734375 284.607421875 356.413085938 281.74609375 c 128,-1,5
 359.2734375 278.885742188 359.2734375 278.885742188 360.969726562 274.936523438 c 128,-1,6
 362.666015625 270.987304688 362.666015625 270.987304688 362.666015625 266.666015625 c 2,7,-1
 362.666015625 160 l 2,8,9
 362.666015625 151.200195312 362.666015625 151.200195312 356.400390625 144.93359375 c 128,-1,10
 350.133789062 138.666015625 350.133789062 138.666015625 341.333984375 138.666015625 c 2,11,-1
 170.666015625 138.666015625 l 2,12,13
 161.866210938 138.666015625 161.866210938 138.666015625 155.599609375 144.93359375 c 128,-1,14
 149.333984375 151.200195312 149.333984375 151.200195312 149.333984375 160 c 2,15,-1
 149.439453125 288 l 2,16,17
 149.439453125 296.810546875 149.439453125 296.810546875 155.658203125 303.072265625 c 128,-1,18
 161.876953125 309.333984375 161.876953125 309.333984375 170.666015625 309.333984375 c 2,19,-1
 234.666015625 309.333984375 l 1,0,-1
EndSplineSet
Validated: 513
EndChar

StartChar: level-up
Encoding: 49 49 74
Width: 512
GlyphClass: 2
Flags: W
LayerCount: 2
Fore
SplineSet
352 234.666015625 m 1,0,-1
 352 213.333984375 l 1,1,-1
 200.853515625 213.333984375 l 1,2,-1
 239.040039062 175.040039062 l 1,3,-1
 224 160 l 1,4,-1
 160 224 l 1,5,-1
 224 288 l 1,6,-1
 239.040039062 272.959960938 l 1,7,-1
 200.853515625 234.666015625 l 1,8,-1
 352 234.666015625 l 1,0,-1
EndSplineSet
Validated: 513
EndChar

StartChar: info
Encoding: 91 91 75
Width: 512
GlyphClass: 2
Flags: W
LayerCount: 2
Fore
SplineSet
256 352 m 128,-1,1
 308.9921875 352 308.9921875 352 346.49609375 314.49609375 c 128,-1,2
 384 276.9921875 384 276.9921875 384 224 c 128,-1,3
 384 171.0078125 384 171.0078125 346.49609375 133.50390625 c 128,-1,4
 308.9921875 96 308.9921875 96 256 96 c 128,-1,5
 203.0078125 96 203.0078125 96 165.50390625 133.50390625 c 128,-1,6
 128 171.0078125 128 171.0078125 128 224 c 128,-1,7
 128 276.9921875 128 276.9921875 165.50390625 314.49609375 c 128,-1,0
 203.0078125 352 203.0078125 352 256 352 c 128,-1,1
268.799804688 160 m 1,8,-1
 268.799804688 236.799804688 l 1,9,-1
 243.200195312 236.799804688 l 1,10,-1
 243.200195312 160 l 1,11,-1
 268.799804688 160 l 1,8,-1
268.799804688 262.400390625 m 1,12,-1
 268.799804688 288 l 1,13,-1
 243.200195312 288 l 1,14,-1
 243.200195312 262.400390625 l 1,15,-1
 268.799804688 262.400390625 l 1,12,-1
EndSplineSet
EndChar

StartChar: question
Encoding: 93 93 76
Width: 512
GlyphClass: 2
Flags: W
LayerCount: 2
Fore
SplineSet
360 346 m 2,0,1
 363 346 363 346 363 343 c 2,2,-1
 363 162 l 2,3,4
 363 159 363 159 360 159 c 2,5,-1
 178 159 l 2,6,7
 175 159 175 159 175 162 c 2,8,-1
 175 343 l 2,9,10
 175 346 175 346 178 346 c 2,11,-1
 360 346 l 2,0,1
360 363 m 2,12,-1
 178 363 l 2,13,14
 170 363 170 363 164 357 c 128,-1,15
 158 351 158 351 158 343 c 2,16,-1
 158 162 l 2,17,18
 158 154 158 154 164 148 c 128,-1,19
 170 142 170 142 178 142 c 2,20,-1
 360 142 l 2,21,22
 368 142 368 142 374 148 c 128,-1,23
 380 154 380 154 380 162 c 2,24,-1
 380 343 l 2,25,26
 380 351 380 351 374 357 c 128,-1,27
 368 363 368 363 360 363 c 2,12,-1
227 308 m 1,28,29
 253 317 253 317 274 317 c 0,30,31
 314 317 314 317 314 283 c 2,32,-1
 314 278 l 2,33,34
 314 256 314 256 297 250 c 0,35,36
 292 248 292 248 283.5 245.5 c 128,-1,37
 275 243 275 243 272 242 c 2,38,-1
 272 225 l 1,39,-1
 252 225 l 1,40,-1
 249 255 l 1,41,42
 256 257 256 257 266 260 c 128,-1,43
 276 263 276 263 279 264 c 0,44,45
 290 268 290 268 290 277 c 2,46,-1
 290 281 l 2,47,48
 290 291 290 291 286.5 294 c 128,-1,49
 283 297 283 297 272 297 c 0,50,51
 259 297 259 297 248 293 c 1,52,-1
 246 281 l 1,53,-1
 227 281 l 1,54,-1
 227 308 l 1,28,29
248 198 m 128,-1,56
 248 211 248 211 262 211 c 0,57,58
 277 211 277 211 277 198 c 128,-1,59
 277 185 277 185 262 185 c 0,60,55
 248 185 248 185 248 198 c 128,-1,56
EndSplineSet
Validated: 9
EndChar

StartChar: alert
Encoding: 43 43 77
Width: 512
GlyphClass: 2
Flags: W
LayerCount: 2
Fore
SplineSet
91.7333984375 92.7998046875 m 1,0,-1
 256 376.533203125 l 1,1,-1
 420.266601562 92.7998046875 l 1,2,-1
 91.7333984375 92.7998046875 l 1,0,-1
270.93359375 137.599609375 m 1,3,-1
 270.93359375 167.466796875 l 1,4,-1
 241.06640625 167.466796875 l 1,5,-1
 241.06640625 137.599609375 l 1,6,-1
 270.93359375 137.599609375 l 1,3,-1
270.93359375 197.333007812 m 1,7,-1
 270.93359375 257.06640625 l 1,8,-1
 241.06640625 257.06640625 l 1,9,-1
 241.06640625 197.333007812 l 1,10,-1
 270.93359375 197.333007812 l 1,7,-1
EndSplineSet
Validated: 1
EndChar

StartChar: home
Encoding: 95 95 78
Width: 512
GlyphClass: 2
Flags: W
LayerCount: 2
Fore
SplineSet
213.333007812 53.3330078125 m 1,0,-1
 106.666992188 53.3330078125 l 1,1,-1
 106.666992188 224 l 1,2,-1
 42.6669921875 224 l 1,3,-1
 256 416 l 1,4,-1
 469.333007812 224 l 1,5,-1
 405.333007812 224 l 1,6,-1
 405.333007812 53.3330078125 l 1,7,-1
 298.666992188 53.3330078125 l 1,8,-1
 298.666992188 181.333007812 l 1,9,-1
 213.333007812 181.333007812 l 1,10,-1
 213.333007812 53.3330078125 l 1,0,-1
EndSplineSet
Validated: 1
EndChar

StartChar: error
Encoding: 61 61 79
Width: 563
VWidth: 569
GlyphClass: 2
Flags: W
LayerCount: 2
Fore
SplineSet
363.51953125 309.86328125 m 1,0,-1
 277.657226562 224 l 1,1,-1
 363.51953125 138.13671875 l 1,2,-1
 341.86328125 116.48046875 l 1,3,-1
 256 202.342773438 l 1,4,-1
 170.13671875 116.48046875 l 1,5,-1
 148.48046875 138.13671875 l 1,6,-1
 234.342773438 224 l 1,7,-1
 148.48046875 309.86328125 l 1,8,-1
 170.13671875 331.51953125 l 1,9,-1
 256 245.657226562 l 1,10,-1
 341.86328125 331.51953125 l 1,11,-1
 363.51953125 309.86328125 l 1,0,-1
EndSplineSet
Validated: 1
EndChar

StartChar: settings
Encoding: 64 64 80
Width: 563
VWidth: 569
GlyphClass: 2
Flags: W
LayerCount: 2
Fore
SplineSet
347.392578125 211.966796875 m 5,0,-1
 373.119140625 191.744140625 l 6,1,2
 377.25390625 188.697265625 377.25390625 188.697265625 374.65625 183.935546875 c 6,3,-1
 350.080078125 141.440429688 l 6,4,5
 347.547851562 136.798828125 347.547851562 136.798828125 342.52734375 138.624023438 c 6,6,-1
 311.935546875 150.912109375 l 5,7,8
 302.1796875 143.345703125 302.1796875 143.345703125 291.201171875 138.879882812 c 5,9,-1
 286.591796875 106.3671875 l 6,10,11
 285.935546875 101.119140625 285.935546875 101.119140625 280.576171875 101.119140625 c 6,12,-1
 231.423828125 101.119140625 l 6,13,14
 226.373046875 101.119140625 226.373046875 101.119140625 225.280273438 106.3671875 c 6,15,-1
 220.672851562 138.879882812 l 5,16,17
 210.12109375 143.170898438 210.12109375 143.170898438 199.935546875 150.912109375 c 5,18,-1
 169.344726562 138.624023438 l 6,19,20
 164.21875 136.993164062 164.21875 136.993164062 161.791992188 141.440429688 c 6,21,-1
 137.216796875 183.935546875 l 6,22,23
 134.668945312 188.567382812 134.668945312 188.567382812 138.751953125 191.744140625 c 6,24,-1
 164.736328125 211.966796875 l 5,25,26
 163.83984375 217.344726562 163.83984375 217.344726562 163.83984375 224 c 4,27,28
 163.83984375 229.125 163.83984375 229.125 164.9921875 236.033203125 c 5,29,-1
 139.0078125 256.255859375 l 6,30,31
 134.724609375 259.254882812 134.724609375 259.254882812 137.471679688 264.064453125 c 6,32,-1
 161.919921875 306.559570312 l 6,33,34
 164.452148438 311.201171875 164.452148438 311.201171875 169.47265625 309.375976562 c 6,35,-1
 200.064453125 297.087890625 l 5,36,37
 210.390625 304.88671875 210.390625 304.88671875 220.798828125 309.120117188 c 5,38,-1
 225.408203125 341.6328125 l 6,39,40
 226.282226562 346.880859375 226.282226562 346.880859375 231.423828125 346.880859375 c 6,41,-1
 280.576171875 346.880859375 l 6,42,43
 285.845703125 346.880859375 285.845703125 346.880859375 286.719726562 341.6328125 c 6,44,-1
 291.327148438 309.120117188 l 5,45,46
 301.87890625 304.829101562 301.87890625 304.829101562 312.064453125 297.087890625 c 5,47,-1
 342.655273438 309.375976562 l 6,48,49
 347.78125 311.006835938 347.78125 311.006835938 350.208007812 306.559570312 c 6,50,-1
 374.783203125 264.064453125 l 6,51,52
 377.331054688 259.432617188 377.331054688 259.432617188 373.248046875 256.255859375 c 6,53,-1
 347.263671875 236.033203125 l 5,54,55
 348.16015625 230.655273438 348.16015625 230.655273438 348.16015625 224 c 4,56,57
 348.16015625 217.73046875 348.16015625 217.73046875 347.392578125 211.966796875 c 5,0,-1
256 177.919921875 m 132,-1,59
 275.0078125 177.919921875 275.0078125 177.919921875 288.543945312 191.456054688 c 132,-1,60
 302.080078125 204.9921875 302.080078125 204.9921875 302.080078125 224 c 132,-1,61
 302.080078125 243.0078125 302.080078125 243.0078125 288.543945312 256.543945312 c 132,-1,62
 275.0078125 270.080078125 275.0078125 270.080078125 256 270.080078125 c 132,-1,63
 236.9921875 270.080078125 236.9921875 270.080078125 223.456054688 256.543945312 c 132,-1,64
 209.919921875 243.0078125 209.919921875 243.0078125 209.919921875 224 c 132,-1,65
 209.919921875 204.9921875 209.919921875 204.9921875 223.456054688 191.456054688 c 132,-1,58
 236.9921875 177.919921875 236.9921875 177.919921875 256 177.919921875 c 132,-1,59
EndSplineSet
Validated: 1
EndChar

StartChar: trash
Encoding: 123 123 81
Width: 512
GlyphClass: 2
Flags: W
LayerCount: 2
Fore
SplineSet
128 74.6669921875 m 2,0,-1
 128 330.666992188 l 1,1,-1
 384 330.666992188 l 1,2,-1
 384 74.6669921875 l 2,3,4
 384 57.0668945312 384 57.0668945312 371.466552734 44.5334472656 c 128,-1,5
 358.933105469 32 358.933105469 32 341.333007812 32 c 2,6,-1
 170.666992188 32 l 2,7,8
 153.066894531 32 153.066894531 32 140.533447266 44.5334472656 c 128,-1,9
 128 57.0668945312 128 57.0668945312 128 74.6669921875 c 2,0,-1
405.333007812 394.666992188 m 1,10,-1
 405.333007812 352 l 1,11,-1
 106.666992188 352 l 1,12,-1
 106.666992188 394.666992188 l 1,13,-1
 181.333007812 394.666992188 l 1,14,-1
 202.666992188 416 l 1,15,-1
 309.333007812 416 l 1,16,-1
 330.666992188 394.666992188 l 1,17,-1
 405.333007812 394.666992188 l 1,10,-1
EndSplineSet
Validated: 1
EndChar

StartChar: object-group
Encoding: 57344 57344 82
Width: 512
GlyphClass: 2
Flags: W
LayerCount: 2
Fore
SplineSet
549 402 m 1,0,-1
 512 402 l 1,1,-1
 512 110 l 1,2,-1
 549 110 l 1,3,-1
 549 0 l 1,4,-1
 439 0 l 1,5,-1
 439 37 l 1,6,-1
 73 37 l 1,7,-1
 73 0 l 1,8,-1
 -37 0 l 1,9,-1
 -37 110 l 1,10,-1
 0 110 l 1,11,-1
 0 402 l 1,12,-1
 -37 402 l 1,13,-1
 -37 512 l 1,14,-1
 73 512 l 1,15,-1
 73 475 l 1,16,-1
 439 475 l 1,17,-1
 439 512 l 1,18,-1
 549 512 l 1,19,-1
 549 402 l 1,0,-1
475 475 m 1,20,-1
 475 439 l 1,21,-1
 512 439 l 1,22,-1
 512 475 l 1,23,-1
 475 475 l 1,20,-1
0 475 m 1,24,-1
 0 439 l 1,25,-1
 37 439 l 1,26,-1
 37 475 l 1,27,-1
 0 475 l 1,24,-1
37 37 m 1,28,-1
 37 73 l 1,29,-1
 0 73 l 1,30,-1
 0 37 l 1,31,-1
 37 37 l 1,28,-1
439 73 m 1,32,-1
 439 110 l 1,33,-1
 475 110 l 1,34,-1
 475 402 l 1,35,-1
 439 402 l 1,36,-1
 439 439 l 1,37,-1
 73 439 l 1,38,-1
 73 402 l 1,39,-1
 37 402 l 1,40,-1
 37 110 l 1,41,-1
 73 110 l 1,42,-1
 73 73 l 1,43,-1
 439 73 l 1,32,-1
512 37 m 1,44,-1
 512 73 l 1,45,-1
 475 73 l 1,46,-1
 475 37 l 1,47,-1
 512 37 l 1,44,-1
329 329 m 1,48,-1
 439 329 l 1,49,-1
 439 110 l 1,50,-1
 183 110 l 1,51,-1
 183 183 l 1,52,-1
 73 183 l 1,53,-1
 73 402 l 1,54,-1
 329 402 l 1,55,-1
 329 329 l 1,48,-1
110 219 m 1,56,-1
 293 219 l 1,57,-1
 293 366 l 1,58,-1
 110 366 l 1,59,-1
 110 219 l 1,56,-1
402 146 m 1,60,-1
 402 293 l 1,61,-1
 329 293 l 1,62,-1
 329 183 l 1,63,-1
 219 183 l 1,64,-1
 219 146 l 1,65,-1
 402 146 l 1,60,-1
EndSplineSet
Validated: 517
EndChar

StartChar: cm
Encoding: 125 125 83
Width: 512
GlyphClass: 2
Flags: W
LayerCount: 2
Fore
SplineSet
202 207 m 0,0,1
 193 207 193 207 188 211 c 0,2,3
 181 215 181 215 177 221 c 0,4,5
 174 227 174 227 171 236 c 0,6,7
 169 248 169 248 169 256 c 0,8,9
 169 263 169 263 171 275 c 0,10,11
 173 281 173 281 177 291 c 0,12,13
 180 295 180 295 188 301 c 0,14,15
 194 304 194 304 202 304 c 0,16,17
 208 304 208 304 214 302 c 0,18,19
 218 300 218 300 222 296 c 1,20,-1
 214 285 l 1,21,22
 211 288 211 288 209 289 c 0,23,24
 205 291 205 291 202 291 c 0,25,26
 198 291 198 291 195 288 c 0,27,28
 193 286 193 286 189 281 c 0,29,30
 188 278 188 278 186 270 c 0,31,32
 185 265 185 265 185 256 c 0,33,34
 185 246 185 246 186 242 c 0,35,36
 188 234 188 234 189 231 c 0,37,38
 193 226 193 226 195 224 c 0,39,40
 198 221 198 221 203 221 c 0,41,42
 206 221 206 221 210 223 c 128,-1,43
 214 225 214 225 215 227 c 1,44,-1
 222 215 l 1,45,46
 214 207 214 207 202 207 c 0,0,1
257 299 m 0,47,48
 264 304 264 304 272 304 c 0,49,50
 278 304 278 304 281 302 c 0,51,52
 285 300 285 300 287 298 c 0,53,54
 288 297 288 297 289 295 c 128,-1,55
 290 293 290 293 291 292 c 128,-1,56
 292 291 292 291 292.5 288.5 c 128,-1,57
 293 286 293 286 293 285 c 1,58,59
 296 291 296 291 297 292 c 0,60,61
 298 294 298 294 302 298 c 0,62,63
 305 300 305 300 309 302 c 128,-1,64
 313 304 313 304 317 304 c 0,65,66
 324 304 324 304 329 301 c 0,67,68
 335 297 335 297 336 293 c 0,69,70
 339 288 339 288 340 281 c 0,71,72
 340 279 340 279 340.5 274.5 c 128,-1,73
 341 270 341 270 341 268 c 2,74,-1
 341 210 l 1,75,-1
 325 210 l 1,76,-1
 325 268 l 1,77,-1
 325 276 l 2,78,79
 325 277 325 277 324.5 279.5 c 128,-1,80
 324 282 324 282 323 283 c 0,81,82
 321 287 321 287 319 289 c 0,83,84
 315 291 315 291 312 291 c 0,85,86
 308 291 308 291 305 288 c 0,87,88
 302 286 302 286 300 283 c 128,-1,89
 298 280 298 280 296 274 c 0,90,91
 295 270 295 270 295 262 c 2,92,-1
 295 210 l 1,93,-1
 280 210 l 1,94,-1
 280 268 l 2,95,96
 280 273 280 273 279 276 c 0,97,98
 279 278 279 278 278.5 280 c 128,-1,99
 278 282 278 282 278 283 c 0,100,101
 277 285 277 285 275.5 286.5 c 128,-1,102
 274 288 274 288 274 289 c 0,103,104
 270 291 270 291 267 291 c 128,-1,105
 264 291 264 291 260 289 c 2,106,-1
 254 283 l 1,107,-1
 251 274 l 2,108,109
 250 271 250 271 250 263 c 2,110,-1
 250 210 l 1,111,-1
 235 210 l 1,112,-1
 235 278 l 2,113,114
 235 280 235 280 234.5 283.5 c 128,-1,115
 234 287 234 287 234 290 c 2,116,-1
 234 301 l 1,117,-1
 249 301 l 1,118,-1
 249 292 l 2,119,120
 250 289 250 289 250 285 c 1,121,122
 251 291 251 291 257 299 c 0,47,48
EndSplineSet
Validated: 1
EndChar

StartChar: msvg
Encoding: 126 126 84
Width: 512
GlyphClass: 2
Flags: W
LayerCount: 2
Fore
SplineSet
228 299 m 0,0,1
 235 304 235 304 243 304 c 0,2,3
 249 304 249 304 251 302 c 0,4,5
 255 300 255 300 257 298 c 128,-1,6
 259 296 259 296 261 292 c 128,-1,7
 263 288 263 288 263 285 c 1,8,-1
 264 285 l 1,9,10
 264 286 264 286 267 292 c 0,11,12
 268 294 268 294 272 298 c 0,13,14
 275 300 275 300 279 302 c 128,-1,15
 283 304 283 304 288 304 c 0,16,17
 294 304 294 304 300 301 c 0,18,19
 303 299 303 299 307 293 c 0,20,21
 307 292 307 292 307.5 290.5 c 128,-1,22
 308 289 308 289 308.5 287.5 c 128,-1,23
 309 286 309 286 309.5 284.5 c 128,-1,24
 310 283 310 283 310 281 c 0,25,26
 311 277 311 277 311 268 c 2,27,-1
 311 210 l 1,28,-1
 295 210 l 1,29,-1
 295 268 l 1,30,-1
 295 276 l 2,31,32
 295 279 295 279 293 283 c 128,-1,33
 291 287 291 287 289 289 c 128,-1,34
 287 291 287 291 282 291 c 0,35,36
 278 291 278 291 275 288 c 0,37,38
 272 286 272 286 270 283 c 128,-1,39
 268 280 268 280 266 274 c 0,40,41
 266 272 266 272 265.5 268.5 c 128,-1,42
 265 265 265 265 265 262 c 2,43,-1
 265 210 l 1,44,-1
 250 210 l 1,45,-1
 250 268 l 1,46,-1
 250 276 l 2,47,48
 250 277 250 277 249.5 279.5 c 128,-1,49
 249 282 249 282 248 283 c 0,50,51
 247 286 247 286 244 289 c 0,52,53
 240 291 240 291 237 291 c 128,-1,54
 234 291 234 291 230 289 c 0,55,56
 226 285 226 285 225 283 c 0,57,58
 223 280 223 280 221 274 c 0,59,60
 220 271 220 271 220 263 c 2,61,-1
 220 210 l 1,62,-1
 205 210 l 1,63,-1
 205 278 l 1,64,-1
 205 290 l 2,65,66
 205 292 205 292 204.5 296 c 128,-1,67
 204 300 204 300 204 301 c 1,68,-1
 219 301 l 1,69,70
 219 295 219 295 220 292 c 2,71,-1
 220 285 l 1,72,73
 221 292 221 292 228 299 c 0,0,1
EndSplineSet
Validated: 1
EndChar

StartChar: deg
Encoding: 92 92 85
Width: 512
GlyphClass: 2
Flags: W
LayerCount: 2
Fore
SplineSet
199 210 m 1,0,-1
 199 224 l 1,1,-1
 198 224 l 1,2,3
 196 217 196 217 191 212 c 128,-1,4
 186 207 186 207 177 207 c 0,5,6
 169 207 169 207 165 211 c 0,7,8
 160 214 160 214 156 221 c 0,9,10
 152 227 152 227 150 236 c 0,11,12
 148 248 148 248 148 256 c 0,13,14
 148 263 148 263 150 275 c 0,15,16
 151 281 151 281 155 291 c 0,17,18
 159 297 159 297 165 301 c 0,19,20
 170 304 170 304 177 304 c 0,21,22
 186 304 186 304 190 300 c 0,23,24
 197 295 197 295 198 288 c 1,25,-1
 198 347 l 1,26,-1
 214 347 l 1,27,-1
 214 210 l 1,28,-1
 199 210 l 1,0,-1
199 255 m 0,29,30
 199 258 199 258 198.5 262.5 c 128,-1,31
 198 267 198 267 198 269 c 0,32,33
 197 276 197 276 194 280 c 0,34,35
 192 284 192 284 189 288 c 0,36,37
 187 290 187 290 181 290 c 0,38,39
 176 290 176 290 173 288 c 0,40,41
 172 287 172 287 170.5 284 c 128,-1,42
 169 281 169 281 168 280 c 0,43,44
 166 274 166 274 165 269 c 0,45,46
 164 265 164 265 164 255 c 0,47,48
 164 246 164 246 165 242 c 0,49,50
 167 234 167 234 168 231 c 0,51,52
 169 230 169 230 170.5 227 c 128,-1,53
 172 224 172 224 173 223 c 0,54,55
 179 221 179 221 181 221 c 0,56,57
 185 221 185 221 189 223 c 0,58,59
 192 227 192 227 194 231 c 0,60,61
 196 234 196 234 198 242 c 0,62,63
 198 244 198 244 198.5 248.5 c 128,-1,64
 199 253 199 253 199 255 c 0,29,30
248 252 m 1,65,66
 248 249 248 249 248.5 245 c 128,-1,67
 249 241 249 241 249 239 c 0,68,69
 252 231 252 231 253 230 c 0,70,71
 254 227 254 227 258 223 c 0,72,73
 261 221 261 221 266 221 c 0,74,75
 273 221 273 221 276 224 c 0,76,77
 280 228 280 228 282 233 c 1,78,-1
 294 227 l 1,79,80
 289 217 289 217 283 212 c 0,81,82
 276 207 276 207 266 207 c 0,83,84
 249 207 249 207 242 220 c 0,85,86
 233 232 233 232 233 255 c 0,87,88
 233 269 233 269 235 275 c 0,89,90
 238 285 238 285 242 291 c 128,-1,91
 246 297 246 297 252 301 c 0,92,93
 258 304 258 304 266 304 c 128,-1,94
 274 304 274 304 280 301 c 0,95,96
 286 296 286 296 289 291 c 0,97,98
 293 285 293 285 295 277 c 0,99,100
 296 271 296 271 296 259 c 2,101,-1
 296 252 l 1,102,-1
 248 252 l 1,65,66
281 264 m 1,103,104
 281 273 281 273 277 283 c 0,105,106
 273 290 273 290 265 290 c 0,107,108
 259 290 259 290 257 288 c 0,109,110
 256 287 256 287 252 281 c 2,111,-1
 249 272 l 2,112,113
 249 270 249 270 248.5 267.5 c 128,-1,114
 248 265 248 265 248 264 c 1,115,-1
 281 264 l 1,103,104
360 301 m 1,116,-1
 375 301 l 1,117,-1
 375 210 l 2,118,119
 375 203 375 203 373 193 c 0,120,121
 371 185 371 185 367 179 c 0,122,123
 364 174 364 174 357 170 c 0,124,125
 350 167 350 167 341 167 c 0,126,127
 331 167 331 167 323 171 c 0,128,129
 315 174 315 174 310 181 c 1,130,-1
 319 192 l 1,131,132
 325 186 325 186 329 184 c 0,133,134
 334 181 334 181 341 181 c 128,-1,135
 348 181 348 181 350 183 c 0,136,137
 354 184 354 184 356 189 c 2,138,-1
 359 198 l 2,139,140
 360 202 360 202 360 210 c 2,141,-1
 360 224 l 1,142,-1
 359 224 l 1,143,144
 357 216 357 216 352 212 c 0,145,146
 347 207 347 207 338 207 c 0,147,148
 331 207 331 207 326 211 c 0,149,150
 321 214 321 214 317 221 c 0,151,152
 315 223 315 223 311 236 c 0,153,154
 309 248 309 248 309 256 c 0,155,156
 309 263 309 263 311 275 c 0,157,158
 312 284 312 284 317 290 c 0,159,160
 320 297 320 297 326 300 c 0,161,162
 330 304 330 304 338 304 c 0,163,164
 345 304 345 304 352 299 c 0,165,166
 358 293 358 293 359 288 c 1,167,-1
 360 288 l 1,168,-1
 360 301 l 1,116,-1
360 256 m 0,169,170
 360 265 360 265 359 269 c 0,171,172
 358 274 358 274 356 280 c 0,173,174
 354 284 354 284 350 288 c 0,175,176
 347 291 347 291 342 291 c 0,177,178
 338 291 338 291 335 288 c 0,179,180
 331 284 331 284 330 280 c 0,181,182
 327 276 327 276 326 269 c 0,183,184
 326 267 326 267 325.5 262.5 c 128,-1,185
 325 258 325 258 325 256 c 0,186,187
 325 253 325 253 325.5 248.5 c 128,-1,188
 326 244 326 244 326 242 c 0,189,190
 328 234 328 234 330 231 c 0,191,192
 332 227 332 227 335 223 c 0,193,194
 339 221 339 221 342 221 c 0,195,196
 346 221 346 221 350 223 c 0,197,198
 352 225 352 225 356 231 c 0,199,200
 357 234 357 234 359 242 c 0,201,202
 360 246 360 246 360 256 c 0,169,170
EndSplineSet
Validated: 1
EndChar

StartChar: px
Encoding: 124 124 86
Width: 512
GlyphClass: 2
Flags: W
LayerCount: 2
Fore
SplineSet
206 301 m 1,0,-1
 206 287 l 1,1,-1
 207 287 l 1,2,3
 209 295 209 295 214 299 c 0,4,5
 219 304 219 304 228 304 c 0,6,7
 236 304 236 304 240 300 c 0,8,9
 245 297 245 297 249 290 c 0,10,11
 254 284 254 284 255 275 c 0,12,13
 257 263 257 263 257 255 c 0,14,15
 257 248 257 248 255 236 c 0,16,17
 254 227 254 227 249 221 c 0,18,19
 246 214 246 214 240 211 c 0,20,21
 236 207 236 207 228 207 c 0,22,23
 219 207 219 207 214 212 c 0,24,25
 208 218 208 218 207 223 c 1,26,-1
 207 167 l 1,27,-1
 191 167 l 1,28,-1
 191 301 l 1,29,-1
 206 301 l 1,0,-1
206 256 m 0,30,31
 206 253 206 253 206.5 248.5 c 128,-1,32
 207 244 207 244 207 242 c 0,33,34
 209 234 209 234 211 231 c 0,35,36
 212 227 212 227 216 223 c 0,37,38
 220 221 220 221 224 221 c 0,39,40
 227 221 227 221 231 223 c 0,41,42
 232 224 232 224 237 231 c 0,43,44
 238 234 238 234 240 242 c 0,45,46
 240 244 240 244 240.5 248.5 c 128,-1,47
 241 253 241 253 241 256 c 0,48,49
 241 258 241 258 240.5 262.5 c 128,-1,50
 240 267 240 267 240 269 c 0,51,52
 239 274 239 274 237 280 c 0,53,54
 232 287 232 287 231 288 c 0,55,56
 229 290 229 290 224 290 c 0,57,58
 218 290 218 290 216 288 c 0,59,60
 212 284 212 284 211 280 c 0,61,62
 208 276 208 276 207 269 c 0,63,64
 207 267 207 267 206.5 262.5 c 128,-1,65
 206 258 206 258 206 256 c 0,30,31
292 258 m 1,66,-1
 269 301 l 1,67,-1
 286 301 l 1,68,-1
 301 269 l 1,69,-1
 314 301 l 1,70,-1
 331 301 l 1,71,-1
 309 258 l 1,72,-1
 333 210 l 1,73,-1
 316 210 l 1,74,-1
 300 246 l 1,75,-1
 284 210 l 1,76,-1
 267 210 l 1,77,-1
 292 258 l 1,66,-1
EndSplineSet
Validated: 1
EndChar

StartChar: m-sq
Encoding: 57345 57345 87
Width: 512
GlyphClass: 2
Flags: W
LayerCount: 2
Fore
SplineSet
204 299 m 0,0,1
 211 304 211 304 219 304 c 0,2,3
 225 304 225 304 227 302 c 0,4,5
 231 300 231 300 233 298 c 128,-1,6
 235 296 235 296 237 292 c 128,-1,7
 239 288 239 288 239 285 c 1,8,-1
 240 285 l 1,9,10
 240 286 240 286 243 292 c 0,11,12
 244 294 244 294 248 298 c 0,13,14
 251 300 251 300 255 302 c 128,-1,15
 259 304 259 304 264 304 c 0,16,17
 270 304 270 304 276 301 c 0,18,19
 279 299 279 299 283 293 c 0,20,21
 283 292 283 292 283.5 290.5 c 128,-1,22
 284 289 284 289 284.5 287.5 c 128,-1,23
 285 286 285 286 285.5 284.5 c 128,-1,24
 286 283 286 283 286 281 c 0,25,26
 287 277 287 277 287 268 c 2,27,-1
 287 210 l 1,28,-1
 271 210 l 1,29,-1
 271 268 l 1,30,-1
 271 276 l 2,31,32
 271 279 271 279 269 283 c 128,-1,33
 267 287 267 287 265 289 c 128,-1,34
 263 291 263 291 258 291 c 0,35,36
 254 291 254 291 251 288 c 0,37,38
 248 286 248 286 246 283 c 128,-1,39
 244 280 244 280 242 274 c 0,40,41
 242 272 242 272 241.5 268.5 c 128,-1,42
 241 265 241 265 241 262 c 2,43,-1
 241 210 l 1,44,-1
 226 210 l 1,45,-1
 226 268 l 1,46,-1
 226 276 l 2,47,48
 226 277 226 277 225.5 279.5 c 128,-1,49
 225 282 225 282 224 283 c 0,50,51
 223 286 223 286 220 289 c 0,52,53
 216 291 216 291 213 291 c 128,-1,54
 210 291 210 291 206 289 c 0,55,56
 202 285 202 285 201 283 c 0,57,58
 199 280 199 280 197 274 c 0,59,60
 196 271 196 271 196 263 c 2,61,-1
 196 210 l 1,62,-1
 181 210 l 1,63,-1
 181 278 l 1,64,-1
 181 290 l 2,65,66
 181 292 181 292 180.5 296 c 128,-1,67
 180 300 180 300 180 301 c 1,68,-1
 195 301 l 1,69,70
 195 295 195 295 196 292 c 2,71,-1
 196 285 l 1,72,73
 197 292 197 292 204 299 c 0,0,1
333 343 m 0,74,75
 333 342 333 342 332 340 c 2,76,-1
 332 338 l 2,77,78
 332 337 332 337 331 335 c 128,-1,79
 330 333 330 333 330 332 c 0,80,81
 329 331 329 331 327 327 c 0,82,83
 324 324 324 324 323 322 c 2,84,-1
 309 302 l 1,85,-1
 332 302 l 1,86,-1
 332 295 l 1,87,-1
 300 295 l 1,88,-1
 300 303 l 1,89,-1
 318 327 l 2,90,91
 319 328 319 328 319.5 329.5 c 128,-1,92
 320 331 320 331 321 332.5 c 128,-1,93
 322 334 322 334 322 335 c 0,94,95
 324 338 324 338 324 343 c 0,96,97
 324 346 324 346 322 350 c 0,98,99
 321 354 321 354 316 354 c 0,100,101
 313 354 313 354 310 351 c 128,-1,102
 307 348 307 348 307 344 c 1,103,-1
 299 345 l 1,104,105
 300 352 300 352 305 357 c 0,106,107
 311 361 311 361 317 361 c 0,108,109
 319 361 319 361 323 359 c 128,-1,110
 327 357 327 357 328 356 c 0,111,112
 331 353 331 353 331 350 c 0,113,114
 333 346 333 346 333 343 c 0,74,75
EndSplineSet
Validated: 513
EndChar

StartChar: m-cubed
Encoding: 57346 57346 88
Width: 512
GlyphClass: 2
Flags: W
LayerCount: 2
Fore
SplineSet
204 299 m 0,0,1
 211 304 211 304 219 304 c 0,2,3
 225 304 225 304 227 302 c 0,4,5
 231 300 231 300 233 298 c 128,-1,6
 235 296 235 296 237 292 c 128,-1,7
 239 288 239 288 239 285 c 1,8,-1
 240 285 l 1,9,10
 240 286 240 286 243 292 c 0,11,12
 244 294 244 294 248 298 c 0,13,14
 251 300 251 300 255 302 c 128,-1,15
 259 304 259 304 264 304 c 0,16,17
 270 304 270 304 276 301 c 0,18,19
 279 299 279 299 283 293 c 0,20,21
 283 292 283 292 283.5 290.5 c 128,-1,22
 284 289 284 289 284.5 287.5 c 128,-1,23
 285 286 285 286 285.5 284.5 c 128,-1,24
 286 283 286 283 286 281 c 0,25,26
 287 277 287 277 287 268 c 2,27,-1
 287 210 l 1,28,-1
 271 210 l 1,29,-1
 271 268 l 1,30,-1
 271 276 l 2,31,32
 271 279 271 279 269 283 c 128,-1,33
 267 287 267 287 265 289 c 128,-1,34
 263 291 263 291 258 291 c 0,35,36
 254 291 254 291 251 288 c 0,37,38
 248 286 248 286 246 283 c 128,-1,39
 244 280 244 280 242 274 c 0,40,41
 242 272 242 272 241.5 268.5 c 128,-1,42
 241 265 241 265 241 262 c 2,43,-1
 241 210 l 1,44,-1
 226 210 l 1,45,-1
 226 268 l 1,46,-1
 226 276 l 2,47,48
 226 277 226 277 225.5 279.5 c 128,-1,49
 225 282 225 282 224 283 c 0,50,51
 223 286 223 286 220 289 c 0,52,53
 216 291 216 291 213 291 c 128,-1,54
 210 291 210 291 206 289 c 0,55,56
 202 285 202 285 201 283 c 0,57,58
 199 280 199 280 197 274 c 0,59,60
 196 271 196 271 196 263 c 2,61,-1
 196 210 l 1,62,-1
 181 210 l 1,63,-1
 181 278 l 1,64,-1
 181 290 l 2,65,66
 181 292 181 292 180.5 296 c 128,-1,67
 180 300 180 300 180 301 c 1,68,-1
 195 301 l 1,69,70
 195 295 195 295 196 292 c 2,71,-1
 196 285 l 1,72,73
 197 292 197 292 204 299 c 0,0,1
334 313 m 0,74,75
 334 310 334 310 332 306 c 0,76,77
 332 305 332 305 329 299 c 0,78,79
 328 299 328 299 326.5 297.5 c 128,-1,80
 325 296 325 296 323 295 c 128,-1,81
 321 294 321 294 316 294 c 0,82,83
 310 294 310 294 305 297 c 128,-1,84
 300 300 300 300 298 307 c 1,85,-1
 305 309 l 1,86,87
 307 305 307 305 309 303 c 0,88,89
 313 301 313 301 316 301 c 128,-1,90
 319 301 319 301 320 302 c 2,91,-1
 323 305 l 2,92,93
 325 307 325 307 325 309 c 0,94,95
 326 310 326 310 326 313 c 0,96,97
 326 319 326 319 323 322 c 0,98,99
 319 325 319 325 314 325 c 2,100,-1
 312 325 l 1,101,-1
 312 332 l 1,102,-1
 314 332 l 2,103,104
 319 332 319 332 322 335 c 0,105,106
 324 339 324 339 324 343 c 2,107,-1
 324 347 l 2,108,109
 324 348 324 348 322 350 c 0,110,111
 322 351 322 351 320 353 c 0,112,113
 319 354 319 354 316 354 c 128,-1,114
 313 354 313 354 311 352 c 0,115,116
 308 351 308 351 307 348 c 2,117,-1
 300 350 l 2,118,119
 300 351 300 351 301 352.5 c 128,-1,120
 302 354 302 354 303 355 c 128,-1,121
 304 356 304 356 305 357 c 128,-1,122
 306 358 306 358 307 358 c 0,123,124
 309 360 309 360 311 360 c 0,125,126
 313 361 313 361 316 361 c 0,127,128
 318 361 318 361 320 360.5 c 128,-1,129
 322 360 322 360 323 360 c 0,130,131
 325 359 325 359 328 356 c 0,132,133
 329 355 329 355 331 351 c 0,134,135
 332 349 332 349 332 344 c 2,136,-1
 332 339 l 2,137,138
 330 335 330 335 330 335 c 2,139,140
 329 333 329 333 327 331 c 0,141,142
 326 330 326 330 325 330 c 128,-1,143
 324 330 324 330 323 329 c 1,144,145
 328 327 328 327 331 323 c 0,146,147
 334 320 334 320 334 313 c 0,74,75
EndSplineSet
Validated: 513
EndChar

StartChar: acceleration
Encoding: 57347 57347 89
Width: 512
GlyphClass: 2
Flags: W
LayerCount: 2
Fore
SplineSet
207 350 m 0,0,1
 212 353 212 353 221 353 c 0,2,3
 226 353 226 353 229 352 c 0,4,5
 232 352 232 352 234 350 c 0,6,7
 237 349 237 349 238 346 c 0,8,9
 240 344 240 344 240 342 c 1,10,-1
 241 344 l 2,11,12
 242 346 242 346 243 346 c 128,-1,13
 244 346 244 346 245.5 348 c 128,-1,14
 247 350 247 350 248 350 c 0,15,16
 252 352 252 352 255 352 c 0,17,18
 257 353 257 353 263 353 c 0,19,20
 271 353 271 353 274 352 c 0,21,22
 280 348 280 348 281 347 c 128,-1,23
 282 346 282 346 283 343.5 c 128,-1,24
 284 341 284 341 284 340 c 0,25,26
 285 337 285 337 285 332 c 2,27,-1
 285 297 l 1,28,-1
 270 297 l 1,29,-1
 270 332 l 1,30,-1
 270 336 l 2,31,32
 270 339 270 339 268 341 c 2,33,-1
 265 344 l 2,34,35
 263 345 263 345 258 345 c 0,36,37
 254 345 254 345 252 344 c 0,38,39
 248 342 248 342 246 340 c 0,40,41
 245 339 245 339 243 335 c 0,42,43
 242 333 242 333 242 328 c 2,44,-1
 242 297 l 1,45,-1
 228 297 l 1,46,-1
 228 332 l 1,47,-1
 228 334 l 1,48,-1
 227 336 l 2,49,50
 227 337 227 337 226.5 338.5 c 128,-1,51
 226 340 226 340 226 341 c 0,52,53
 224 343 224 343 222 344 c 128,-1,54
 220 345 220 345 215 345 c 0,55,56
 211 345 211 345 209 344 c 0,57,58
 205 342 205 342 204 340 c 0,59,60
 201 338 201 338 201 335 c 0,61,62
 199 331 199 331 199 328 c 2,63,-1
 199 296 l 1,64,-1
 185 296 l 1,65,-1
 185 337 l 1,66,-1
 185 345 l 2,67,68
 185 349 185 349 184 351 c 1,69,-1
 198 351 l 1,70,-1
 198 349 l 2,71,72
 199 347 199 347 199 346 c 2,73,-1
 199 342 l 1,74,75
 203 348 203 348 207 350 c 0,0,1
319 258 m 0,76,77
 319 254 319 254 318 253 c 0,78,79
 318 251 318 251 316 249 c 0,80,81
 316 247 316 247 314 245 c 0,82,83
 314 244 314 244 313 242.5 c 128,-1,84
 312 241 312 241 311 240 c 2,85,-1
 300 225 l 1,86,-1
 318 225 l 1,87,-1
 318 219 l 1,88,-1
 293 219 l 1,89,-1
 293 225 l 1,90,-1
 307 245 l 2,91,92
 309 247 309 247 311 251 c 0,93,94
 312 253 312 253 312 257 c 0,95,96
 312 262 312 262 311 263 c 0,97,98
 310 266 310 266 306 266 c 0,99,100
 303 266 303 266 301 264 c 0,101,102
 299 260 299 260 299 258 c 1,103,-1
 292 259 l 1,104,105
 293 264 293 264 297 268 c 0,106,107
 300 271 300 271 306 271 c 0,108,109
 310 271 310 271 312 270 c 0,110,111
 314 270 314 270 316 267 c 0,112,113
 318 265 318 265 318 263 c 0,114,115
 319 261 319 261 319 258 c 0,76,77
207 240 m 1,116,-1
 204 243 l 2,117,118
 203 244 203 244 199 244 c 0,119,120
 196 244 196 244 195 242 c 0,121,122
 193 240 193 240 193 237 c 0,123,124
 193 235 193 235 195 233 c 0,125,126
 196 232 196 232 201 230 c 0,127,128
 202 230 202 230 202 229 c 2,129,-1
 204 228 l 2,130,131
 206 227 206 227 208 225 c 128,-1,132
 210 223 210 223 210 221 c 0,133,134
 211 220 211 220 211 216 c 128,-1,135
 211 212 211 212 210 210 c 0,136,137
 210 209 210 209 209 207.5 c 128,-1,138
 208 206 208 206 207 205 c 0,139,140
 205 203 205 203 203 203 c 0,141,142
 201 202 201 202 197 202 c 0,143,144
 192 202 192 202 190 203 c 128,-1,145
 188 204 188 204 184 208 c 1,146,-1
 189 213 l 1,147,148
 190 211 190 211 192 209 c 0,149,150
 193 209 193 209 194.5 208.5 c 128,-1,151
 196 208 196 208 197 208 c 0,152,153
 200 208 200 208 202 210 c 0,154,155
 204 214 204 214 204 216 c 128,-1,156
 204 218 204 218 203 219 c 0,157,158
 203 221 203 221 201 221 c 2,159,-1
 199 223 l 2,160,161
 198 223 198 223 196 224 c 0,162,163
 192 226 192 226 192 226 c 2,164,165
 191 226 191 226 189 228 c 2,166,-1
 187 232 l 1,167,-1
 186 234 l 2,168,169
 186 236 186 236 186 237 c 128,-1,170
 186 238 186 238 186 240 c 2,171,-1
 187 242 l 2,172,173
 188 243 188 243 189 244.5 c 128,-1,174
 190 246 190 246 190 247 c 0,175,176
 192 249 192 249 194 249 c 0,177,178
 196 250 196 250 200 250 c 0,179,180
 205 250 205 250 207 249 c 128,-1,181
 209 248 209 248 212 245 c 1,182,-1
 207 240 l 1,116,-1
225 224 m 1,183,-1
 225 218 l 2,184,185
 225 217 225 217 225.5 215.5 c 128,-1,186
 226 214 226 214 227 213 c 2,187,-1
 230 210 l 2,188,189
 232 208 232 208 234 208 c 0,190,191
 237 208 237 208 239 210 c 0,192,193
 240 211 240 211 241 212.5 c 128,-1,194
 242 214 242 214 242 215 c 1,195,-1
 248 212 l 1,196,197
 243 205 243 205 242 204 c 0,198,199
 238 202 238 202 234 202 c 0,200,201
 226 202 226 202 221 208 c 0,202,203
 217 213 217 213 217 226 c 0,204,205
 217 233 217 233 218 236 c 0,206,207
 220 242 220 242 222 244 c 2,208,-1
 227 249 l 2,209,210
 229 250 229 250 234 250 c 128,-1,211
 239 250 239 250 241 249 c 2,212,-1
 246 244 l 2,213,214
 248 240 248 240 248 237 c 0,215,216
 249 234 249 234 249 228 c 2,217,-1
 249 224 l 1,218,-1
 225 224 l 1,183,-1
241 230 m 1,219,220
 241 237 241 237 239 240 c 0,221,222
 237 244 237 244 233 244 c 0,223,224
 231 244 231 244 229 242 c 128,-1,225
 227 240 227 240 227 239 c 0,226,227
 226 238 226 238 226 236.5 c 128,-1,228
 226 235 226 235 225 234 c 2,229,-1
 225 230 l 1,230,-1
 241 230 l 1,219,220
272 202 m 0,231,232
 267 202 267 202 265 203 c 2,233,-1
 260 208 l 2,234,235
 257 213 257 213 257 216 c 0,236,237
 256 219 256 219 256 226 c 128,-1,238
 256 233 256 233 257 236 c 0,239,240
 257 240 257 240 260 244 c 2,241,-1
 265 249 l 2,242,243
 267 250 267 250 272 250 c 128,-1,244
 277 250 277 250 278 249 c 0,245,246
 282 247 282 247 282 247 c 1,247,-1
 278 241 l 1,248,-1
 276 243 l 1,249,-1
 274 244 l 2,250,251
 273 244 273 244 272 244 c 128,-1,252
 271 244 271 244 269 242 c 2,253,-1
 266 239 l 2,254,255
 266 238 266 238 265 236 c 128,-1,256
 264 234 264 234 264 233 c 2,257,-1
 264 226 l 1,258,-1
 264 219 l 2,259,260
 264 218 264 218 264.5 216.5 c 128,-1,261
 265 215 265 215 266 214 c 0,262,263
 267 212 267 212 269 210 c 0,264,265
 270 209 270 209 273 209 c 128,-1,266
 276 209 276 209 277 210 c 2,267,-1
 279 212 l 1,268,-1
 283 206 l 1,269,270
 279 202 279 202 272 202 c 0,231,232
289 276 m 2,271,-1
 182 276 l 2,272,273
 178 276 178 276 178 280 c 128,-1,274
 178 284 178 284 182 284 c 2,275,-1
 289 284 l 2,276,277
 293 284 293 284 293 280 c 128,-1,278
 293 276 293 276 289 276 c 2,271,-1
EndSplineSet
Validated: 1
EndChar

StartChar: particles
Encoding: 57348 57348 90
Width: 512
GlyphClass: 2
Flags: W
LayerCount: 2
Fore
SplineSet
332 229 m 0,0,1
 332 238 332 238 338.5 245 c 128,-1,2
 345 252 345 252 355 252 c 128,-1,3
 365 252 365 252 371.5 245 c 128,-1,4
 378 238 378 238 378 229 c 0,5,6
 378 219 378 219 371.5 212 c 128,-1,7
 365 205 365 205 355 205 c 128,-1,8
 345 205 345 205 338.5 212 c 128,-1,9
 332 219 332 219 332 229 c 0,0,1
278 161 m 128,-1,11
 278 171 278 171 284.5 177.5 c 128,-1,12
 291 184 291 184 301 184 c 128,-1,13
 311 184 311 184 317.5 177.5 c 128,-1,14
 324 171 324 171 324 161 c 128,-1,15
 324 151 324 151 317.5 144.5 c 128,-1,16
 311 138 311 138 301 138 c 128,-1,17
 291 138 291 138 284.5 144.5 c 128,-1,10
 278 151 278 151 278 161 c 128,-1,11
216 143 m 128,-1,19
 216 153 216 153 223 159.5 c 128,-1,20
 230 166 230 166 240 166 c 0,21,22
 249 166 249 166 256 159.5 c 128,-1,23
 263 153 263 153 263 143 c 128,-1,24
 263 133 263 133 256 126.5 c 128,-1,25
 249 120 249 120 240 120 c 0,26,27
 230 120 230 120 223 126.5 c 128,-1,18
 216 133 216 133 216 143 c 128,-1,19
170 203 m 128,-1,29
 170 213 170 213 176.5 219.5 c 128,-1,30
 183 226 183 226 193 226 c 128,-1,31
 203 226 203 226 209.5 219.5 c 128,-1,32
 216 213 216 213 216 203 c 128,-1,33
 216 193 216 193 209.5 186.5 c 128,-1,34
 203 180 203 180 193 180 c 128,-1,35
 183 180 183 180 176.5 186.5 c 128,-1,28
 170 193 170 193 170 203 c 128,-1,29
251 65 m 0,36,37
 244 69 244 69 242 80 c 0,38,39
 241 88 241 88 246 97 c 0,40,41
 252 104 252 104 261 106 c 0,42,43
 272 108 272 108 279 102 c 256,44,45
 286 96 286 96 288 87 c 0,46,47
 289 78 289 78 284 69 c 0,48,49
 276 61 276 61 268 60 c 0,50,51
 259 59 259 59 251 65 c 0,36,37
68 266 m 128,-1,53
 68 276 68 276 74.5 282.5 c 128,-1,54
 81 289 81 289 91 289 c 128,-1,55
 101 289 101 289 107.5 282.5 c 128,-1,56
 114 276 114 276 114 266 c 128,-1,57
 114 256 114 256 107.5 249.5 c 128,-1,58
 101 243 101 243 91 243 c 128,-1,59
 81 243 81 243 74.5 249.5 c 128,-1,52
 68 256 68 256 68 266 c 128,-1,53
179 312 m 0,60,61
 179 322 179 322 185.5 329 c 128,-1,62
 192 336 192 336 202 336 c 128,-1,63
 212 336 212 336 218.5 329 c 128,-1,64
 225 322 225 322 225 312 c 0,65,66
 225 303 225 303 218.5 296 c 128,-1,67
 212 289 212 289 202 289 c 128,-1,68
 192 289 192 289 185.5 296 c 128,-1,69
 179 303 179 303 179 312 c 0,60,61
250 218 m 128,-1,71
 250 228 250 228 257 234.5 c 128,-1,72
 264 241 264 241 274 241 c 0,73,74
 283 241 283 241 290 234.5 c 128,-1,75
 297 228 297 228 297 218 c 128,-1,76
 297 208 297 208 290 201.5 c 128,-1,77
 283 195 283 195 274 195 c 0,78,79
 264 195 264 195 257 201.5 c 128,-1,70
 250 208 250 208 250 218 c 128,-1,71
413 270 m 128,-1,81
 413 280 413 280 419.5 286.5 c 128,-1,82
 426 293 426 293 436 293 c 128,-1,83
 446 293 446 293 452.5 286.5 c 128,-1,84
 459 280 459 280 459 270 c 128,-1,85
 459 260 459 260 452.5 253.5 c 128,-1,86
 446 247 446 247 436 247 c 0,87,88
 427 247 427 247 420 253.5 c 128,-1,80
 413 260 413 260 413 270 c 128,-1,81
302 308 m 128,-1,90
 302 318 302 318 309 324.5 c 128,-1,91
 316 331 316 331 325 331 c 0,92,93
 335 331 335 331 342 324.5 c 128,-1,94
 349 318 349 318 349 308 c 128,-1,95
 349 298 349 298 342 291.5 c 128,-1,96
 335 285 335 285 325 285 c 0,97,98
 316 285 316 285 309 291.5 c 128,-1,89
 302 298 302 298 302 308 c 128,-1,90
132 398 m 0,99,100
 132 408 132 408 139 415 c 128,-1,101
 146 422 146 422 156 422 c 0,102,103
 165 422 165 422 172 415 c 128,-1,104
 179 408 179 408 179 398 c 0,105,106
 179 389 179 389 172 382 c 128,-1,107
 165 375 165 375 156 375 c 0,108,109
 146 375 146 375 139 382 c 128,-1,110
 132 389 132 389 132 398 c 0,99,100
367 375 m 128,-1,112
 367 385 367 385 373.5 391.5 c 128,-1,113
 380 398 380 398 390 398 c 128,-1,114
 400 398 400 398 406.5 391.5 c 128,-1,115
 413 385 413 385 413 375 c 128,-1,116
 413 365 413 365 406.5 358.5 c 128,-1,117
 400 352 400 352 390 352 c 128,-1,118
 380 352 380 352 373.5 358.5 c 128,-1,111
 367 365 367 365 367 375 c 128,-1,112
EndSplineSet
Validated: 33
EndChar

StartChar: voxels
Encoding: 57349 57349 91
Width: 512
GlyphClass: 2
Flags: W
LayerCount: 2
Fore
SplineSet
434 379 m 2,0,-1
 349 428 l 2,1,2
 342 432 342 432 335 428 c 2,3,-1
 258 383 l 1,4,-1
 179 429 l 2,5,6
 172 432 172 432 165 429 c 2,7,-1
 80 380 l 2,8,9
 73 375 73 375 73 368 c 2,10,-1
 73 270 l 2,11,12
 73 262 73 262 80 257 c 2,13,-1
 158 212 l 1,14,-1
 158 123 l 2,15,16
 158 114 158 114 165 111 c 2,17,-1
 250 62 l 2,18,19
 252 60 252 60 257 60 c 128,-1,20
 262 60 262 60 264 62 c 2,21,-1
 349 111 l 2,22,23
 356 114 356 114 356 123 c 2,24,-1
 356 211 l 1,25,-1
 434 256 l 2,26,27
 441 260 441 260 441 268 c 2,28,-1
 441 367 l 2,29,30
 441 375 441 375 434 379 c 2,0,-1
413 291 m 1,31,-1
 354 325 l 1,32,-1
 354 393 l 1,33,-1
 413 358 l 1,34,-1
 413 291 l 1,31,-1
344 236 m 1,35,-1
 271 278 l 1,36,-1
 271 358 l 1,37,-1
 330 393 l 1,38,-1
 330 325 l 1,39,-1
 301 308 l 2,40,41
 289 302 289 302 297 292 c 0,42,43
 300 286 300 286 307 286 c 0,44,45
 311 286 311 286 313 287 c 2,46,-1
 342 304 l 1,47,-1
 402 270 l 1,48,-1
 344 236 l 1,35,-1
269 179 m 1,49,-1
 269 245 l 1,50,-1
 328 211 l 1,51,-1
 328 145 l 1,52,-1
 269 179 l 1,49,-1
243 292 m 1,53,-1
 184 326 l 1,54,-1
 184 394 l 1,55,-1
 243 360 l 1,56,-1
 243 292 l 1,53,-1
101 360 m 1,57,-1
 160 394 l 1,58,-1
 160 326 l 1,59,-1
 129 308 l 2,60,61
 118 303 118 303 124 291 c 0,62,63
 128 285 128 285 135 285 c 0,64,65
 137 285 137 285 141 287 c 2,66,-1
 172 305 l 1,67,-1
 231 271 l 1,68,-1
 171 237 l 1,69,-1
 101 278 l 1,70,-1
 101 360 l 1,57,-1
257 90 m 1,71,-1
 186 131 l 1,72,-1
 186 212 l 1,73,-1
 245 246 l 1,74,-1
 245 179 l 1,75,-1
 217 163 l 2,76,77
 206 158 206 158 212 146 c 0,78,79
 218 140 218 140 223 140 c 0,80,81
 225 140 225 140 229 142 c 2,82,-1
 257 158 l 1,83,-1
 316 124 l 1,84,-1
 257 90 l 1,71,-1
EndSplineSet
Validated: 41
EndChar

StartChar: visible
Encoding: 57351 57351 92
Width: 512
GlyphClass: 2
Flags: W
LayerCount: 2
Fore
SplineSet
258 116 m 0,0,1
 172 116 172 116 111 167 c 0,2,3
 97 178 97 178 85.5 191 c 128,-1,4
 74 204 74 204 69 211 c 128,-1,5
 64 218 64 218 64 219 c 0,6,7
 57 231 57 231 65 242 c 0,8,9
 67 245 67 245 73.5 254 c 128,-1,10
 80 263 80 263 97.5 278 c 128,-1,11
 115 293 115 293 136 306 c 128,-1,12
 157 319 157 319 190.5 329 c 128,-1,13
 224 339 224 339 260 338 c 0,14,15
 384 335 384 335 455 241 c 0,16,17
 462 231 462 231 455 219 c 0,18,19
 455 218 455 218 450.5 211 c 128,-1,20
 446 204 446 204 434.5 191 c 128,-1,21
 423 178 423 178 409 166 c 0,22,23
 346 116 346 116 258 116 c 0,0,1
110 229 m 1,24,25
 134 206 134 206 140 200 c 0,26,27
 190 160 190 160 258 160 c 0,28,29
 330 160 330 160 380 200 c 0,30,31
 397 213 397 213 409 229 c 1,32,33
 393 245 393 245 379 255 c 0,34,35
 327 293 327 293 260 293 c 0,36,37
 170 295 170 295 110 229 c 1,24,25
83 230 m 1024,38,-1
310 226 m 0,39,40
 310 207 310 207 296 193.5 c 128,-1,41
 282 180 282 180 263 180 c 128,-1,42
 244 180 244 180 230 193.5 c 128,-1,43
 216 207 216 207 216 226 c 0,44,45
 216 246 216 246 230 259.5 c 128,-1,46
 244 273 244 273 263 273 c 128,-1,47
 282 273 282 273 296 259.5 c 128,-1,48
 310 246 310 246 310 226 c 0,39,40
EndSplineSet
Validated: 33
EndChar

StartChar: model
Encoding: 57352 57352 93
Width: 512
GlyphClass: 2
Flags: W
LayerCount: 2
Fore
SplineSet
494 395 m 0,0,1
 490 404 490 404 481 402 c 2,2,-1
 391 386 l 1,3,-1
 436 458 l 2,4,5
 441 466 441 466 435 473 c 0,6,7
 429 479 429 479 420 476 c 2,8,-1
 207 378 l 1,9,10
 174 389 174 389 96 421 c 1,11,-1
 95 421 l 2,12,13
 94 421 94 421 94 422 c 1,14,-1
 93 422 l 1,15,-1
 92 422 l 1,16,-1
 90 422 l 1,17,-1
 90 422 l 1,18,-1
 89 422 l 1,19,-1
 89 421 l 1,20,-1
 87 421 l 1,21,-1
 86 421 l 1,22,-1
 86 420 l 1,23,24
 84 420 84 420 83 419 c 2,25,-1
 82 418 l 1,26,-1
 82 417 l 1,27,-1
 81 417 l 1,28,-1
 81 416 l 1,29,-1
 80 415 l 1,30,-1
 53 363 l 1,31,-1
 20 323 l 2,32,33
 15 316 15 316 20 308 c 0,34,35
 23 303 23 303 30 303 c 0,36,37
 32 303 32 303 34 304 c 2,38,-1
 84 321 l 1,39,-1
 124 323 l 1,40,-1
 98 272 l 2,41,42
 94 266 94 266 99 259 c 2,43,-1
 106 250 l 2,44,45
 114 242 114 242 127 227.5 c 128,-1,46
 140 213 140 213 151 201 c 0,47,48
 166 184 166 184 189 161 c 0,49,50
 200 150 200 150 204 147 c 1,51,-1
 188 86 l 1,52,-1
 142 68 l 2,53,54
 131 62 131 62 136 52 c 0,55,56
 139 44 139 44 147 44 c 0,57,58
 148 44 148 44 149 44.5 c 128,-1,59
 150 45 150 45 151 45 c 2,60,-1
 196 63 l 1,61,-1
 213 48 l 2,62,63
 216 44 216 44 221 44 c 0,64,65
 227 44 227 44 230 49 c 0,66,67
 238 57 238 57 229 66 c 2,68,-1
 212 81 l 1,69,-1
 228 142 l 1,70,-1
 304 52 l 2,71,72
 308 48 308 48 313 48 c 2,73,-1
 316 48 l 1,74,-1
 401 71 l 2,75,76
 408 74 408 74 410 82 c 0,77,78
 410 90 410 90 403 94 c 2,79,-1
 267 166 l 1,80,-1
 312 257 l 1,81,-1
 490 380 l 2,82,83
 498 384 498 384 494 395 c 0,0,1
294 278 m 1,84,-1
 172 333 l 1,85,-1
 213 354 l 1,86,-1
 394 437 l 1,87,-1
 294 278 l 1,84,-1
146 351 m 1,88,-1
 122 384 l 1,89,90
 146 375 146 375 176 363 c 1,91,-1
 146 351 l 1,88,-1
87 345 m 1,92,-1
 78 358 l 1,93,-1
 93 387 l 1,94,-1
 120 349 l 1,95,-1
 122 347 l 1,96,-1
 87 345 l 1,92,-1
123 268 m 1,97,-1
 146 312 l 1,98,99
 156 288 156 288 172 246 c 128,-1,100
 188 204 188 204 193 191 c 1,101,102
 172 213 172 213 123 268 c 1,97,-1
317 74 m 1,103,-1
 260 142 l 1,104,-1
 365 87 l 1,105,-1
 317 74 l 1,103,-1
223 175 m 2,106,107
 221 181 221 181 206 219 c 2,108,-1
 192 254 l 1,109,110
 192 253 192 253 193 252 c 1,111,-1
 192 255 l 2,112,113
 190 258 190 258 187 264.5 c 128,-1,114
 184 271 184 271 181.5 277.5 c 128,-1,115
 179 284 179 284 175 293 c 128,-1,116
 171 302 171 302 169.5 306.5 c 128,-1,117
 168 311 168 311 165 318 c 1,118,-1
 286 259 l 1,119,-1
 238 164 l 1,120,-1
 223 175 l 2,106,107
331 295 m 1,121,-1
 374 358 l 1,122,-1
 444 374 l 1,123,-1
 331 295 l 1,121,-1
EndSplineSet
Validated: 37
EndChar

StartChar: avatar-2
Encoding: 57353 57353 94
Width: 512
GlyphClass: 2
Flags: W
LayerCount: 2
Fore
SplineSet
256 88 m 128,-1,1
 186 88 186 88 136.5 137 c 128,-1,2
 87 186 87 186 87 256 c 128,-1,3
 87 326 87 326 136.5 375.5 c 128,-1,4
 186 425 186 425 256 425 c 128,-1,5
 326 425 326 425 375.5 375.5 c 128,-1,6
 425 326 425 326 425 256 c 128,-1,7
 425 186 425 186 375.5 137 c 128,-1,0
 326 88 326 88 256 88 c 128,-1,1
256 404 m 128,-1,9
 195 404 195 404 151.5 360.5 c 128,-1,10
 108 317 108 317 108 256 c 128,-1,11
 108 195 108 195 151.5 152 c 128,-1,12
 195 109 195 109 256 109 c 128,-1,13
 317 109 317 109 360.5 152 c 128,-1,14
 404 195 404 195 404 256 c 128,-1,15
 404 317 404 317 360.5 360.5 c 128,-1,8
 317 404 317 404 256 404 c 128,-1,9
353 314 m 2,16,-1
 352 315 l 2,17,18
 348 319 348 319 342 319 c 2,19,-1
 336 318 l 2,20,21
 329 317 329 317 318.5 315.5 c 128,-1,22
 308 314 308 314 297 313 c 128,-1,23
 286 312 286 312 274.5 311 c 128,-1,24
 263 310 263 310 256 310 c 2,25,-1
 254 310 l 1,26,-1
 167 320 l 2,27,28
 158 320 158 320 154 314 c 2,29,-1
 153 312 l 2,30,31
 150 308 150 308 152 302 c 0,32,33
 153 297 153 297 158 294 c 0,34,35
 205 274 205 274 218 272 c 0,36,37
 223 272 223 272 224 265 c 0,38,39
 226 245 226 245 217 200 c 0,40,41
 215 193 215 193 211.5 182.5 c 128,-1,42
 208 172 208 172 206 166 c 2,43,-1
 204 159 l 2,44,45
 200 148 200 148 211 144 c 2,46,-1
 219 141 l 2,47,48
 224 139 224 139 228 142 c 0,49,50
 232 143 232 143 234 149 c 2,51,-1
 255 214 l 1,52,-1
 275 147 l 2,53,54
 277 141 277 141 281 140 c 0,55,56
 283 139 283 139 286 139 c 2,57,-1
 291 139 l 1,58,-1
 298 142 l 2,59,60
 307 146 307 146 305 156 c 2,61,-1
 294 200 l 2,62,63
 291 211 291 211 289 245 c 0,64,65
 289 255 289 255 287 267 c 0,66,67
 287 271 287 271 292 272 c 2,68,-1
 294 272 l 1,69,-1
 349 294 l 2,70,71
 354 297 354 297 356 303 c 128,-1,72
 358 309 358 309 353 314 c 2,16,-1
285 351 m 128,-1,74
 285 339 285 339 276.5 330.5 c 128,-1,75
 268 322 268 322 256 322 c 128,-1,76
 244 322 244 322 235.5 330.5 c 128,-1,77
 227 339 227 339 227 351 c 128,-1,78
 227 363 227 363 235.5 371.5 c 128,-1,79
 244 380 244 380 256 380 c 128,-1,80
 268 380 268 380 276.5 371.5 c 128,-1,73
 285 363 285 363 285 351 c 128,-1,74
EndSplineSet
Validated: 553
EndChar

StartChar: arrow-dn
Encoding: 53 53 95
Width: 512
GlyphClass: 2
InSpiro: 1
Flags: W
LayerCount: 2
Fore
SplineSet
202.666015625 240 m 1,0,-1
 309.333984375 240 l 1,1,-1
 256 186.666992188 l 1,2,-1
 202.666015625 240 l 1,0,-1
  Spiro
    202.666 240 v
    309.334 240 v
    256 186.667 v
    0 0 z
  EndSpiro
EndSplineSet
Validated: 513
EndChar

StartChar: arrow-up
Encoding: 54 54 96
Width: 512
GlyphClass: 2
Flags: W
LayerCount: 2
Fore
SplineSet
202.666015625 208 m 5,0,-1
 256 261.333007812 l 5,1,-1
 309.333984375 208 l 5,2,-1
 202.666015625 208 l 5,0,-1
EndSplineSet
Validated: 513
EndChar

StartChar: time
Encoding: 57354 57354 97
Width: 512
GlyphClass: 2
Flags: W
LayerCount: 2
Fore
SplineSet
256 390 m 128,-1,1
 201 390 201 390 162.5 351.5 c 128,-1,2
 124 313 124 313 124 258 c 128,-1,3
 124 203 124 203 162.5 164.5 c 128,-1,4
 201 126 201 126 256 126 c 128,-1,5
 311 126 311 126 349.5 164.5 c 128,-1,6
 388 203 388 203 388 258 c 128,-1,7
 388 313 388 313 349.5 351.5 c 128,-1,0
 311 390 311 390 256 390 c 128,-1,1
316 228 m 1,8,-1
 317 228 l 1,9,-1
 253 228 l 2,10,11
 249 228 249 228 247 229 c 0,12,13
 232 233 232 233 232 248 c 2,14,-1
 234 340 l 2,15,16
 234 348 234 348 239.5 354 c 128,-1,17
 245 360 245 360 253 360 c 128,-1,18
 261 360 261 360 267 354 c 128,-1,19
 273 348 273 348 273 340 c 2,20,-1
 272 268 l 1,21,-1
 316 268 l 2,22,23
 324 268 324 268 330 262 c 128,-1,24
 336 256 336 256 336 248 c 128,-1,25
 336 240 336 240 330 234 c 128,-1,26
 324 228 324 228 316 228 c 1,8,-1
EndSplineSet
Validated: 5
EndChar

StartChar: transparency
Encoding: 57355 57355 98
Width: 512
GlyphClass: 2
Flags: W
LayerCount: 2
Fore
SplineSet
349 349 m 2,0,1
 352 349 352 349 352 346 c 2,2,-1
 352 165 l 2,3,4
 352 162 352 162 349 162 c 2,5,-1
 167 162 l 2,6,7
 164 162 164 162 164 165 c 2,8,-1
 164 346 l 2,9,10
 164 349 164 349 167 349 c 2,11,-1
 349 349 l 2,0,1
349 366 m 2,12,-1
 167 366 l 2,13,14
 159 366 159 366 153 360 c 128,-1,15
 147 354 147 354 147 346 c 2,16,-1
 147 165 l 2,17,18
 147 157 147 157 153 151 c 128,-1,19
 159 145 159 145 167 145 c 2,20,-1
 349 145 l 2,21,22
 357 145 357 145 363 151 c 128,-1,23
 369 157 369 157 369 165 c 2,24,-1
 369 346 l 2,25,26
 369 354 369 354 363 360 c 128,-1,27
 357 366 357 366 349 366 c 2,12,-1
162 258 m 1,28,-1
 258 258 l 1,29,-1
 258 162 l 1,30,-1
 162 162 l 1,31,-1
 162 258 l 1,28,-1
256 352 m 1,32,-1
 352 352 l 1,33,-1
 352 257 l 1,34,-1
 256 257 l 1,35,-1
 256 352 l 1,32,-1
EndSplineSet
Validated: 5
EndChar

StartChar: unmuted
Encoding: 71 71 99
Width: 563
VWidth: 569
GlyphClass: 2
Flags: W
LayerCount: 2
Fore
SplineSet
140.799804688 262.400390625 m 5,0,-1
 191.999023438 262.400390625 l 5,1,-1
 256 326.400390625 l 5,2,-1
 256 121.599609375 l 5,3,-1
 191.999023438 185.599609375 l 5,4,-1
 140.799804688 185.599609375 l 5,5,-1
 140.799804688 262.400390625 l 5,0,-1
313.599609375 224 m 132,-1,7
 313.599609375 207.28125 313.599609375 207.28125 304.831054688 193.478515625 c 132,-1,8
 296.060546875 179.67578125 296.060546875 179.67578125 281.600585938 172.543945312 c 5,9,-1
 281.600585938 275.583984375 l 5,10,11
 296.0703125 268.348632812 296.0703125 268.348632812 304.8359375 254.529296875 c 132,-1,6
 313.599609375 240.709960938 313.599609375 240.709960938 313.599609375 224 c 132,-1,7
281.600585938 336.255859375 m 5,12,13
 307.094726562 330.470703125 307.094726562 330.470703125 327.483398438 314.396484375 c 132,-1,14
 347.87109375 298.321289062 347.87109375 298.321289062 359.53515625 274.6171875 c 132,-1,15
 371.200195312 250.913085938 371.200195312 250.913085938 371.200195312 224 c 4,16,17
 371.200195312 183.284179688 371.200195312 183.284179688 345.83203125 151.923828125 c 132,-1,18
 320.46484375 120.563476562 320.46484375 120.563476562 281.600585938 111.744140625 c 5,19,-1
 281.600585938 138.112304688 l 5,20,21
 309.677734375 146.467773438 309.677734375 146.467773438 327.638671875 170.188476562 c 132,-1,22
 345.599609375 193.908203125 345.599609375 193.908203125 345.599609375 224 c 132,-1,23
 345.599609375 254.091796875 345.599609375 254.091796875 327.638671875 277.811523438 c 132,-1,24
 309.677734375 301.532226562 309.677734375 301.532226562 281.600585938 309.887695312 c 5,25,-1
 281.600585938 336.255859375 l 5,12,13
EndSplineSet
Validated: 1
EndChar

StartChar: user
Encoding: 57356 57356 100
Width: 512
GlyphClass: 2
Flags: W
LayerCount: 2
Fore
SplineSet
257 406 m 128,-1,1
 195 406 195 406 150.5 361.5 c 128,-1,2
 106 317 106 317 106 255 c 128,-1,3
 106 193 106 193 150.5 149 c 128,-1,4
 195 105 195 105 257 105 c 128,-1,5
 319 105 319 105 363 149 c 128,-1,6
 407 193 407 193 407 255 c 128,-1,7
 407 317 407 317 363 361.5 c 128,-1,0
 319 406 319 406 257 406 c 128,-1,1
257 124 m 128,-1,9
 202 124 202 124 163.5 162.5 c 128,-1,10
 125 201 125 201 125 255 c 0,11,12
 125 310 125 310 163.5 348.5 c 128,-1,13
 202 387 202 387 257 387 c 128,-1,14
 312 387 312 387 350.5 348.5 c 128,-1,15
 389 310 389 310 389 255 c 0,16,17
 389 201 389 201 350.5 162.5 c 128,-1,8
 312 124 312 124 257 124 c 128,-1,9
302 303 m 0,18,19
 302 285 302 285 289.5 272.5 c 128,-1,20
 277 260 277 260 260 260 c 0,21,22
 242 260 242 260 229.5 272.5 c 128,-1,23
 217 285 217 285 217 303 c 0,24,25
 217 320 217 320 229.5 332.5 c 128,-1,26
 242 345 242 345 260 345 c 0,27,28
 277 345 277 345 289.5 332.5 c 128,-1,29
 302 320 302 320 302 303 c 0,18,19
292 232 m 2,30,-1
 230 232 l 2,31,32
 209 232 209 232 193 222.5 c 128,-1,33
 177 213 177 213 177 195 c 2,34,-1
 177 177 l 1,35,36
 213 145 213 145 254 145 c 0,37,38
 278 145 278 145 302.5 154.5 c 128,-1,39
 327 164 327 164 339 178 c 1,40,-1
 339 195 l 2,41,42
 339 213 339 213 325.5 222.5 c 128,-1,43
 312 232 312 232 292 232 c 2,30,-1
EndSplineSet
Validated: 9
EndChar

StartChar: edit-pencil
Encoding: 57357 57357 101
Width: 512
GlyphClass: 2
Flags: W
LayerCount: 2
Fore
SplineSet
341 403 m 1,0,-1
 369 431 l 2,1,2
 375 437 375 437 381 430 c 0,3,4
 398 414 398 414 431 381 c 0,5,6
 436 374 436 374 431 369 c 0,7,8
 428 366 428 366 422 360 c 128,-1,9
 416 354 416 354 411 349 c 128,-1,10
 406 344 406 344 402 340 c 1,11,12
 392 350 392 350 371.5 371 c 128,-1,13
 351 392 351 392 341 403 c 1,0,-1
316 380 m 1,14,15
 314 376 314 376 313 375 c 2,16,-1
 287 349 l 1,17,-1
 112 174 l 2,18,19
 103 165 103 165 102 155 c 0,20,21
 97 116 97 116 92 89 c 1,22,23
 95 90 95 90 98 90 c 0,24,25
 144 99 144 99 160 103 c 0,26,27
 167 105 167 105 171 109 c 0,28,29
 177 115 177 115 240 177.5 c 128,-1,30
 303 240 303 240 334 271 c 0,31,32
 347 285 347 285 375 313 c 0,33,34
 376 314 376 314 377 315 c 128,-1,35
 378 316 378 316 379 316 c 1,36,37
 369 326 369 326 348 347.5 c 128,-1,38
 327 369 327 369 316 380 c 1,14,15
158 149 m 1,39,-1
 141 166 l 1,40,-1
 318 343 l 1,41,42
 329 332 329 332 334 326 c 1,43,44
 320 312 320 312 313 304 c 0,45,46
 297 288 297 288 257.5 248.5 c 128,-1,47
 218 209 218 209 192 183 c 128,-1,48
 166 157 166 157 158 149 c 1,39,-1
EndSplineSet
Validated: 521
EndChar

StartChar: muted
Encoding: 72 72 102
Width: 563
VWidth: 569
GlyphClass: 2
Flags: W
LayerCount: 2
Fore
SplineSet
313.599609375 224 m 4,0,1
 313.599609375 220.204101562 313.599609375 220.204101562 312.959960938 215.935546875 c 5,2,-1
 281.600585938 247.296875 l 5,3,-1
 281.600585938 275.583984375 l 5,4,5
 296.0703125 268.348632812 296.0703125 268.348632812 304.8359375 254.529296875 c 132,-1,6
 313.599609375 240.709960938 313.599609375 240.709960938 313.599609375 224 c 4,0,1
345.599609375 224 m 4,7,8
 345.599609375 254.091796875 345.599609375 254.091796875 327.638671875 277.811523438 c 132,-1,9
 309.677734375 301.532226562 309.677734375 301.532226562 281.600585938 309.887695312 c 5,10,-1
 281.600585938 336.255859375 l 5,11,12
 307.094726562 330.470703125 307.094726562 330.470703125 327.483398438 314.396484375 c 132,-1,13
 347.87109375 298.321289062 347.87109375 298.321289062 359.53515625 274.6171875 c 132,-1,14
 371.200195312 250.913085938 371.200195312 250.913085938 371.200195312 224 c 4,15,16
 371.200195312 195.650390625 371.200195312 195.650390625 358.016601562 170.879882812 c 5,17,-1
 338.6875 190.208007812 l 5,18,19
 345.599609375 206.877929688 345.599609375 206.877929688 345.599609375 224 c 4,7,8
157.056640625 339.200195312 m 5,20,-1
 256 240.255859375 l 5,21,-1
 371.200195312 125.056640625 l 5,22,-1
 354.943359375 108.799804688 l 5,23,-1
 328.83203125 135.041015625 l 5,24,25
 307.427734375 117.673828125 307.427734375 117.673828125 281.600585938 111.873046875 c 5,26,-1
 281.600585938 138.240234375 l 5,27,28
 296.86328125 142.837890625 296.86328125 142.837890625 310.400390625 153.34375 c 5,29,-1
 256 207.744140625 l 5,30,-1
 256 121.599609375 l 5,31,-1
 191.999023438 185.599609375 l 5,32,-1
 140.799804688 185.599609375 l 5,33,-1
 140.799804688 262.400390625 l 5,34,-1
 201.34375 262.400390625 l 5,35,-1
 140.799804688 322.943359375 l 5,36,-1
 157.056640625 339.200195312 l 5,20,-1
256 326.400390625 m 5,37,-1
 256 272.895507812 l 5,38,-1
 229.248046875 299.6484375 l 5,39,-1
 256 326.400390625 l 5,37,-1
EndSplineSet
Validated: 1
EndChar

StartChar: vol-0
Encoding: 57358 57358 103
Width: 512
GlyphClass: 2
Flags: W
LayerCount: 2
Fore
SplineSet
109 352 m 0,0,1
 105 348 105 348 101 348 c 2,2,-1
 83 348 l 1,3,-1
 76 348 l 1,4,-1
 70 348 l 2,5,6
 53 348 53 348 41 337.5 c 128,-1,7
 29 327 29 327 29 311 c 2,8,-1
 29 198 l 2,9,10
 30 185 30 185 39 174.5 c 128,-1,11
 48 164 48 164 61 163 c 0,12,13
 69 162 69 162 84 162 c 2,14,-1
 85 162 l 1,15,-1
 101 162 l 2,16,17
 105 162 105 162 109 158 c 0,18,19
 125 142 125 142 163 100 c 0,20,21
 175 86 175 86 193 86 c 0,22,23
 197 86 197 86 205 88 c 0,24,25
 228 97 228 97 228 127 c 2,26,-1
 228 289 l 2,27,28
 228 298 228 298 228 310.5 c 128,-1,29
 228 323 228 323 228.5 335.5 c 128,-1,30
 229 348 229 348 229.5 359 c 128,-1,31
 230 370 230 370 230 377 c 2,32,-1
 230 384 l 2,33,34
 230 412 230 412 205 421 c 0,35,36
 182 431 182 431 163 411 c 0,37,38
 130 373 130 373 109 352 c 0,0,1
175 366 m 2,39,-1
 190 384 l 1,40,-1
 190 125 l 1,41,-1
 186 132 l 1,42,-1
 180 138 l 2,43,44
 179 140 179 140 175 144 c 2,45,-1
 162 158 l 2,46,47
 156 164 156 164 153 168 c 2,48,-1
 126 198 l 2,49,50
 123 201 123 201 118 201 c 2,51,-1
 97 201 l 1,52,-1
 68 201 l 1,53,-1
 68 307 l 1,54,-1
 75 307 l 1,55,-1
 83 307 l 1,56,-1
 87 307 l 1,57,-1
 103 307 l 1,58,-1
 116 307 l 1,59,-1
 117 307 l 2,60,61
 122 307 122 307 128 313 c 0,62,63
 142 329 142 329 149 336 c 0,64,65
 157 346 157 346 175 366 c 2,39,-1
EndSplineSet
Validated: 553
EndChar

StartChar: vol-1
Encoding: 57359 57359 104
Width: 512
GlyphClass: 2
Flags: W
LayerCount: 2
Fore
SplineSet
109 352 m 0,0,1
 105 348 105 348 101 348 c 2,2,-1
 83 348 l 1,3,-1
 76 348 l 1,4,-1
 70 348 l 2,5,6
 53 348 53 348 41 337.5 c 128,-1,7
 29 327 29 327 29 311 c 2,8,-1
 29 198 l 2,9,10
 30 185 30 185 39 174.5 c 128,-1,11
 48 164 48 164 61 163 c 0,12,13
 69 162 69 162 84 162 c 2,14,-1
 85 162 l 1,15,-1
 101 162 l 2,16,17
 105 162 105 162 109 158 c 0,18,19
 125 142 125 142 163 100 c 0,20,21
 175 86 175 86 193 86 c 0,22,23
 197 86 197 86 205 88 c 0,24,25
 228 97 228 97 228 127 c 2,26,-1
 228 289 l 2,27,28
 228 298 228 298 228 310.5 c 128,-1,29
 228 323 228 323 228.5 335.5 c 128,-1,30
 229 348 229 348 229.5 359 c 128,-1,31
 230 370 230 370 230 377 c 2,32,-1
 230 384 l 2,33,34
 230 412 230 412 205 421 c 0,35,36
 182 431 182 431 163 411 c 0,37,38
 130 373 130 373 109 352 c 0,0,1
175 366 m 2,39,-1
 190 384 l 1,40,-1
 190 125 l 1,41,-1
 186 132 l 1,42,-1
 180 138 l 2,43,44
 179 140 179 140 175 144 c 2,45,-1
 162 158 l 2,46,47
 156 164 156 164 153 168 c 2,48,-1
 126 198 l 2,49,50
 123 201 123 201 118 201 c 2,51,-1
 97 201 l 1,52,-1
 68 201 l 1,53,-1
 68 307 l 1,54,-1
 75 307 l 1,55,-1
 83 307 l 1,56,-1
 87 307 l 1,57,-1
 103 307 l 1,58,-1
 116 307 l 1,59,-1
 117 307 l 2,60,61
 122 307 122 307 128 313 c 0,62,63
 142 329 142 329 149 336 c 0,64,65
 157 346 157 346 175 366 c 2,39,-1
264 256 m 128,-1,67
 264 280 264 280 254 297 c 128,-1,68
 244 314 244 314 230 314 c 128,-1,69
 216 314 216 314 206 297 c 128,-1,70
 196 280 196 280 196 256 c 128,-1,71
 196 232 196 232 206 215 c 128,-1,72
 216 198 216 198 230 198 c 128,-1,73
 244 198 244 198 254 215 c 128,-1,66
 264 232 264 232 264 256 c 128,-1,67
EndSplineSet
Validated: 549
EndChar

StartChar: vol-2
Encoding: 57360 57360 105
Width: 512
GlyphClass: 2
Flags: W
LayerCount: 2
Fore
SplineSet
304 254 m 0,0,1
 303 248 303 248 301.5 235 c 128,-1,2
 300 222 300 222 299 215 c 0,3,4
 297 203 297 203 289 179 c 0,5,6
 285 165 285 165 294 157 c 0,7,8
 303 150 303 150 312 153 c 128,-1,9
 321 156 321 156 325 166 c 0,10,11
 346 221 346 221 340 281 c 0,12,13
 335 317 335 317 324 344 c 0,14,15
 321 353 321 353 312 355.5 c 128,-1,16
 303 358 303 358 296 353 c 0,17,18
 284 346 284 346 289 329 c 0,19,20
 302 293 302 293 304 254 c 0,0,1
109 352 m 0,21,22
 105 348 105 348 101 348 c 2,23,-1
 83 348 l 1,24,-1
 76 348 l 1,25,-1
 70 348 l 2,26,27
 53 348 53 348 41 337.5 c 128,-1,28
 29 327 29 327 29 311 c 2,29,-1
 29 198 l 2,30,31
 30 185 30 185 39 174.5 c 128,-1,32
 48 164 48 164 61 163 c 0,33,34
 69 162 69 162 84 162 c 2,35,-1
 85 162 l 1,36,-1
 101 162 l 2,37,38
 105 162 105 162 109 158 c 0,39,40
 125 142 125 142 163 100 c 0,41,42
 175 86 175 86 193 86 c 0,43,44
 197 86 197 86 205 88 c 0,45,46
 228 97 228 97 228 127 c 2,47,-1
 228 289 l 2,48,49
 228 298 228 298 228 310.5 c 128,-1,50
 228 323 228 323 228.5 335.5 c 128,-1,51
 229 348 229 348 229.5 359 c 128,-1,52
 230 370 230 370 230 377 c 2,53,-1
 230 384 l 2,54,55
 230 412 230 412 205 421 c 0,56,57
 182 431 182 431 163 411 c 0,58,59
 130 373 130 373 109 352 c 0,21,22
175 366 m 2,60,-1
 190 384 l 1,61,-1
 190 125 l 1,62,-1
 186 132 l 1,63,-1
 180 138 l 2,64,65
 179 140 179 140 175 144 c 2,66,-1
 162 158 l 2,67,68
 156 164 156 164 153 168 c 2,69,-1
 126 198 l 2,70,71
 123 201 123 201 118 201 c 2,72,-1
 97 201 l 1,73,-1
 68 201 l 1,74,-1
 68 307 l 1,75,-1
 75 307 l 1,76,-1
 83 307 l 1,77,-1
 87 307 l 1,78,-1
 103 307 l 1,79,-1
 116 307 l 1,80,-1
 117 307 l 2,81,82
 122 307 122 307 128 313 c 0,83,84
 142 329 142 329 149 336 c 0,85,86
 157 346 157 346 175 366 c 2,60,-1
264 256 m 128,-1,88
 264 280 264 280 254 297 c 128,-1,89
 244 314 244 314 230 314 c 128,-1,90
 216 314 216 314 206 297 c 128,-1,91
 196 280 196 280 196 256 c 128,-1,92
 196 232 196 232 206 215 c 128,-1,93
 216 198 216 198 230 198 c 128,-1,94
 244 198 244 198 254 215 c 128,-1,87
 264 232 264 232 264 256 c 128,-1,88
EndSplineSet
Validated: 549
EndChar

StartChar: vol-3
Encoding: 57361 57361 106
Width: 512
GlyphClass: 2
Flags: W
LayerCount: 2
Fore
SplineSet
304 254 m 0,0,1
 303 248 303 248 301.5 235 c 128,-1,2
 300 222 300 222 299 215 c 0,3,4
 297 203 297 203 289 179 c 0,5,6
 285 165 285 165 294 157 c 0,7,8
 303 150 303 150 312 153 c 128,-1,9
 321 156 321 156 325 166 c 0,10,11
 346 221 346 221 340 281 c 0,12,13
 335 317 335 317 324 344 c 0,14,15
 321 353 321 353 312 355.5 c 128,-1,16
 303 358 303 358 296 353 c 0,17,18
 284 346 284 346 289 329 c 0,19,20
 302 293 302 293 304 254 c 0,0,1
109 352 m 0,21,22
 105 348 105 348 101 348 c 2,23,-1
 83 348 l 1,24,-1
 76 348 l 1,25,-1
 70 348 l 2,26,27
 53 348 53 348 41 337.5 c 128,-1,28
 29 327 29 327 29 311 c 2,29,-1
 29 198 l 2,30,31
 30 185 30 185 39 174.5 c 128,-1,32
 48 164 48 164 61 163 c 0,33,34
 69 162 69 162 84 162 c 2,35,-1
 85 162 l 1,36,-1
 101 162 l 2,37,38
 105 162 105 162 109 158 c 0,39,40
 125 142 125 142 163 100 c 0,41,42
 175 86 175 86 193 86 c 0,43,44
 197 86 197 86 205 88 c 0,45,46
 228 97 228 97 228 127 c 2,47,-1
 228 289 l 2,48,49
 228 298 228 298 228 310.5 c 128,-1,50
 228 323 228 323 228.5 335.5 c 128,-1,51
 229 348 229 348 229.5 359 c 128,-1,52
 230 370 230 370 230 377 c 2,53,-1
 230 384 l 2,54,55
 230 412 230 412 205 421 c 0,56,57
 182 431 182 431 163 411 c 0,58,59
 130 373 130 373 109 352 c 0,21,22
175 366 m 2,60,-1
 190 384 l 1,61,-1
 190 125 l 1,62,-1
 186 132 l 1,63,-1
 180 138 l 2,64,65
 179 140 179 140 175 144 c 2,66,-1
 162 158 l 2,67,68
 156 164 156 164 153 168 c 2,69,-1
 126 198 l 2,70,71
 123 201 123 201 118 201 c 2,72,-1
 97 201 l 1,73,-1
 68 201 l 1,74,-1
 68 307 l 1,75,-1
 75 307 l 1,76,-1
 83 307 l 1,77,-1
 87 307 l 1,78,-1
 103 307 l 1,79,-1
 116 307 l 1,80,-1
 117 307 l 2,81,82
 122 307 122 307 128 313 c 0,83,84
 142 329 142 329 149 336 c 0,85,86
 157 346 157 346 175 366 c 2,60,-1
420 254 m 0,87,88
 420 257 420 257 419.5 262 c 128,-1,89
 419 267 419 267 418 270 c 0,90,91
 417 281 417 281 415 305 c 0,92,93
 409 340 409 340 393 381 c 0,94,95
 388 392 388 392 379 393 c 0,96,97
 368 396 368 396 360 389 c 0,98,99
 347 380 347 380 355 363 c 0,100,101
 376 308 376 308 376 261 c 0,102,103
 378 201 378 201 354 145 c 0,104,105
 350 133 350 133 354 127 c 0,106,107
 357 119 357 119 366 116 c 0,108,109
 370 114 370 114 374 114 c 0,110,111
 388 114 388 114 394 130 c 0,112,113
 419 190 419 190 420 254 c 0,87,88
264 256 m 128,-1,115
 264 280 264 280 254 297 c 128,-1,116
 244 314 244 314 230 314 c 128,-1,117
 216 314 216 314 206 297 c 128,-1,118
 196 280 196 280 196 256 c 128,-1,119
 196 232 196 232 206 215 c 128,-1,120
 216 198 216 198 230 198 c 128,-1,121
 244 198 244 198 254 215 c 128,-1,114
 264 232 264 232 264 256 c 128,-1,115
EndSplineSet
Validated: 549
EndChar

StartChar: vol-4
Encoding: 57362 57362 107
Width: 512
GlyphClass: 2
Flags: W
LayerCount: 2
Fore
SplineSet
304 254 m 0,0,1
 303 248 303 248 301.5 235 c 128,-1,2
 300 222 300 222 299 215 c 0,3,4
 297 203 297 203 289 179 c 0,5,6
 285 165 285 165 294 157 c 0,7,8
 303 150 303 150 312 153 c 128,-1,9
 321 156 321 156 325 166 c 0,10,11
 346 221 346 221 340 281 c 0,12,13
 335 317 335 317 324 344 c 0,14,15
 321 353 321 353 312 355.5 c 128,-1,16
 303 358 303 358 296 353 c 0,17,18
 284 346 284 346 289 329 c 0,19,20
 302 293 302 293 304 254 c 0,0,1
109 352 m 0,21,22
 105 348 105 348 101 348 c 2,23,-1
 83 348 l 1,24,-1
 76 348 l 1,25,-1
 70 348 l 2,26,27
 53 348 53 348 41 337.5 c 128,-1,28
 29 327 29 327 29 311 c 2,29,-1
 29 198 l 2,30,31
 30 185 30 185 39 174.5 c 128,-1,32
 48 164 48 164 61 163 c 0,33,34
 69 162 69 162 84 162 c 2,35,-1
 85 162 l 1,36,-1
 101 162 l 2,37,38
 105 162 105 162 109 158 c 0,39,40
 125 142 125 142 163 100 c 0,41,42
 175 86 175 86 193 86 c 0,43,44
 197 86 197 86 205 88 c 0,45,46
 228 97 228 97 228 127 c 2,47,-1
 228 289 l 2,48,49
 228 298 228 298 228 310.5 c 128,-1,50
 228 323 228 323 228.5 335.5 c 128,-1,51
 229 348 229 348 229.5 359 c 128,-1,52
 230 370 230 370 230 377 c 2,53,-1
 230 384 l 2,54,55
 230 412 230 412 205 421 c 0,56,57
 182 431 182 431 163 411 c 0,58,59
 130 373 130 373 109 352 c 0,21,22
175 366 m 2,60,-1
 190 384 l 1,61,-1
 190 125 l 1,62,-1
 186 132 l 1,63,-1
 180 138 l 2,64,65
 179 140 179 140 175 144 c 2,66,-1
 162 158 l 2,67,68
 156 164 156 164 153 168 c 2,69,-1
 126 198 l 2,70,71
 123 201 123 201 118 201 c 2,72,-1
 97 201 l 1,73,-1
 68 201 l 1,74,-1
 68 307 l 1,75,-1
 75 307 l 1,76,-1
 83 307 l 1,77,-1
 87 307 l 1,78,-1
 103 307 l 1,79,-1
 116 307 l 1,80,-1
 117 307 l 2,81,82
 122 307 122 307 128 313 c 0,83,84
 142 329 142 329 149 336 c 0,85,86
 157 346 157 346 175 366 c 2,60,-1
420 254 m 0,87,88
 420 257 420 257 419.5 262 c 128,-1,89
 419 267 419 267 418 270 c 0,90,91
 417 281 417 281 415 305 c 0,92,93
 409 340 409 340 393 381 c 0,94,95
 388 392 388 392 379 393 c 0,96,97
 368 396 368 396 360 389 c 0,98,99
 347 380 347 380 355 363 c 0,100,101
 376 308 376 308 376 261 c 0,102,103
 378 201 378 201 354 145 c 0,104,105
 350 133 350 133 354 127 c 0,106,107
 357 119 357 119 366 116 c 0,108,109
 370 114 370 114 374 114 c 0,110,111
 388 114 388 114 394 130 c 0,112,113
 419 190 419 190 420 254 c 0,87,88
264 256 m 128,-1,115
 264 280 264 280 254 297 c 128,-1,116
 244 314 244 314 230 314 c 128,-1,117
 216 314 216 314 206 297 c 128,-1,118
 196 280 196 280 196 256 c 128,-1,119
 196 232 196 232 206 215 c 128,-1,120
 216 198 216 198 230 198 c 128,-1,121
 244 198 244 198 254 215 c 128,-1,114
 264 232 264 232 264 256 c 128,-1,115
437 70 m 0,122,123
 432 70 432 70 427 73 c 0,124,125
 420 77 420 77 417.5 85 c 128,-1,126
 415 93 415 93 419 100 c 0,127,128
 443 141 443 141 453 192.5 c 128,-1,129
 463 244 463 244 454.5 306 c 128,-1,130
 446 368 446 368 415 422 c 0,131,132
 410 429 410 429 412.5 437 c 128,-1,133
 415 445 415 445 422 449 c 0,134,135
 439 459 439 459 449 442 c 0,136,137
 484 382 484 382 493.5 312 c 128,-1,138
 503 242 503 242 491.5 184.5 c 128,-1,139
 480 127 480 127 454 80 c 0,140,141
 447 70 447 70 437 70 c 0,122,123
EndSplineSet
Validated: 549
EndChar

StartChar: vol-x-0
Encoding: 57363 57363 108
Width: 512
GlyphClass: 2
Flags: W
LayerCount: 2
Fore
SplineSet
209 196 m 2,0,-1
 152 254 l 1,1,-1
 208 311 l 2,2,3
 224 326 224 326 208 342 c 0,4,5
 193 357 193 357 178 341 c 2,6,-1
 121 284 l 1,7,-1
 64 342 l 2,8,9
 49 357 49 357 34 341 c 0,10,11
 27 335 27 335 27 326 c 128,-1,12
 27 317 27 317 34 311 c 2,13,-1
 91 253 l 1,14,-1
 38 195 l 2,15,16
 22 180 22 180 38 164 c 0,17,18
 44 158 44 158 53 158 c 128,-1,19
 62 158 62 158 68 164 c 2,20,-1
 122 222 l 1,21,-1
 179 165 l 2,22,23
 185 159 185 159 194 159 c 128,-1,24
 203 159 203 159 209 165 c 0,25,26
 224 180 224 180 209 196 c 2,0,-1
EndSplineSet
Validated: 553
EndChar

StartChar: vol-x-1
Encoding: 57364 57364 109
Width: 512
GlyphClass: 2
Flags: W
LayerCount: 2
Fore
SplineSet
248 305 m 1,0,-1
 200 257 l 1,1,-1
 248 207 l 1,2,3
 264 223 264 223 264 256 c 128,-1,4
 264 289 264 289 248 305 c 1,0,-1
209 196 m 2,5,-1
 152 254 l 1,6,-1
 208 311 l 2,7,8
 224 326 224 326 208 342 c 0,9,10
 193 357 193 357 178 341 c 2,11,-1
 121 284 l 1,12,-1
 64 342 l 2,13,14
 49 357 49 357 34 341 c 0,15,16
 27 335 27 335 27 326 c 128,-1,17
 27 317 27 317 34 311 c 2,18,-1
 91 253 l 1,19,-1
 38 195 l 2,20,21
 22 180 22 180 38 164 c 0,22,23
 44 158 44 158 53 158 c 128,-1,24
 62 158 62 158 68 164 c 2,25,-1
 122 222 l 1,26,-1
 179 165 l 2,27,28
 185 159 185 159 194 159 c 128,-1,29
 203 159 203 159 209 165 c 0,30,31
 224 180 224 180 209 196 c 2,5,-1
EndSplineSet
Validated: 553
EndChar

StartChar: vol-x-2
Encoding: 57365 57365 110
Width: 512
GlyphClass: 2
Flags: W
LayerCount: 2
Fore
SplineSet
304 254 m 0,0,1
 303 248 303 248 301.5 235 c 128,-1,2
 300 222 300 222 299 215 c 0,3,4
 297 203 297 203 289 179 c 0,5,6
 285 165 285 165 294 157 c 0,7,8
 303 150 303 150 312 153 c 128,-1,9
 321 156 321 156 325 166 c 0,10,11
 346 221 346 221 340 281 c 0,12,13
 335 317 335 317 324 344 c 0,14,15
 321 353 321 353 312 355.5 c 128,-1,16
 303 358 303 358 296 353 c 0,17,18
 284 346 284 346 289 329 c 0,19,20
 302 293 302 293 304 254 c 0,0,1
248 305 m 1,21,-1
 200 257 l 1,22,-1
 248 207 l 1,23,24
 264 223 264 223 264 256 c 128,-1,25
 264 289 264 289 248 305 c 1,21,-1
209 196 m 2,26,-1
 152 254 l 1,27,-1
 208 311 l 2,28,29
 224 326 224 326 208 342 c 0,30,31
 193 357 193 357 178 341 c 2,32,-1
 121 284 l 1,33,-1
 64 342 l 2,34,35
 49 357 49 357 34 341 c 0,36,37
 27 335 27 335 27 326 c 128,-1,38
 27 317 27 317 34 311 c 2,39,-1
 91 253 l 1,40,-1
 38 195 l 2,41,42
 22 180 22 180 38 164 c 0,43,44
 44 158 44 158 53 158 c 128,-1,45
 62 158 62 158 68 164 c 2,46,-1
 122 222 l 1,47,-1
 179 165 l 2,48,49
 185 159 185 159 194 159 c 128,-1,50
 203 159 203 159 209 165 c 0,51,52
 224 180 224 180 209 196 c 2,26,-1
EndSplineSet
Validated: 553
EndChar

StartChar: vol-x-3
Encoding: 57366 57366 111
Width: 512
GlyphClass: 2
Flags: W
LayerCount: 2
Fore
SplineSet
304 254 m 0,0,1
 303 248 303 248 301.5 235 c 128,-1,2
 300 222 300 222 299 215 c 0,3,4
 297 203 297 203 289 179 c 0,5,6
 285 165 285 165 294 157 c 0,7,8
 303 150 303 150 312 153 c 128,-1,9
 321 156 321 156 325 166 c 0,10,11
 346 221 346 221 340 281 c 0,12,13
 335 317 335 317 324 344 c 0,14,15
 321 353 321 353 312 355.5 c 128,-1,16
 303 358 303 358 296 353 c 0,17,18
 284 346 284 346 289 329 c 0,19,20
 302 293 302 293 304 254 c 0,0,1
420 254 m 0,21,22
 420 257 420 257 419.5 262 c 128,-1,23
 419 267 419 267 418 270 c 0,24,25
 417 281 417 281 415 305 c 0,26,27
 409 340 409 340 393 381 c 0,28,29
 388 392 388 392 379 393 c 0,30,31
 368 396 368 396 360 389 c 0,32,33
 347 380 347 380 355 363 c 0,34,35
 376 308 376 308 376 261 c 0,36,37
 378 201 378 201 354 145 c 0,38,39
 350 133 350 133 354 127 c 0,40,41
 357 119 357 119 366 116 c 0,42,43
 370 114 370 114 374 114 c 0,44,45
 388 114 388 114 394 130 c 0,46,47
 419 190 419 190 420 254 c 0,21,22
248 305 m 1,48,-1
 200 257 l 1,49,-1
 248 207 l 1,50,51
 264 223 264 223 264 256 c 128,-1,52
 264 289 264 289 248 305 c 1,48,-1
209 196 m 2,53,-1
 152 254 l 1,54,-1
 208 311 l 2,55,56
 224 326 224 326 208 342 c 0,57,58
 193 357 193 357 178 341 c 2,59,-1
 121 284 l 1,60,-1
 64 342 l 2,61,62
 49 357 49 357 34 341 c 0,63,64
 27 335 27 335 27 326 c 128,-1,65
 27 317 27 317 34 311 c 2,66,-1
 91 253 l 1,67,-1
 38 195 l 2,68,69
 22 180 22 180 38 164 c 0,70,71
 44 158 44 158 53 158 c 128,-1,72
 62 158 62 158 68 164 c 2,73,-1
 122 222 l 1,74,-1
 179 165 l 2,75,76
 185 159 185 159 194 159 c 128,-1,77
 203 159 203 159 209 165 c 0,78,79
 224 180 224 180 209 196 c 2,53,-1
EndSplineSet
Validated: 553
EndChar

StartChar: vol-x-4
Encoding: 57367 57367 112
Width: 512
GlyphClass: 2
Flags: W
LayerCount: 2
Fore
SplineSet
304 254 m 0,0,1
 303 248 303 248 301.5 235 c 128,-1,2
 300 222 300 222 299 215 c 0,3,4
 297 203 297 203 289 179 c 0,5,6
 285 165 285 165 294 157 c 0,7,8
 303 150 303 150 312 153 c 128,-1,9
 321 156 321 156 325 166 c 0,10,11
 346 221 346 221 340 281 c 0,12,13
 335 317 335 317 324 344 c 0,14,15
 321 353 321 353 312 355.5 c 128,-1,16
 303 358 303 358 296 353 c 0,17,18
 284 346 284 346 289 329 c 0,19,20
 302 293 302 293 304 254 c 0,0,1
420 254 m 0,21,22
 420 257 420 257 419.5 262 c 128,-1,23
 419 267 419 267 418 270 c 0,24,25
 417 281 417 281 415 305 c 0,26,27
 409 340 409 340 393 381 c 0,28,29
 388 392 388 392 379 393 c 0,30,31
 368 396 368 396 360 389 c 0,32,33
 347 380 347 380 355 363 c 0,34,35
 376 308 376 308 376 261 c 0,36,37
 378 201 378 201 354 145 c 0,38,39
 350 133 350 133 354 127 c 0,40,41
 357 119 357 119 366 116 c 0,42,43
 370 114 370 114 374 114 c 0,44,45
 388 114 388 114 394 130 c 0,46,47
 419 190 419 190 420 254 c 0,21,22
437 70 m 0,48,49
 432 70 432 70 427 73 c 0,50,51
 420 77 420 77 417.5 85 c 128,-1,52
 415 93 415 93 419 100 c 0,53,54
 443 141 443 141 453 192.5 c 128,-1,55
 463 244 463 244 454.5 306 c 128,-1,56
 446 368 446 368 415 422 c 0,57,58
 410 429 410 429 412.5 437 c 128,-1,59
 415 445 415 445 422 449 c 0,60,61
 439 459 439 459 449 442 c 0,62,63
 484 382 484 382 493.5 312 c 128,-1,64
 503 242 503 242 491.5 184.5 c 128,-1,65
 480 127 480 127 454 80 c 0,66,67
 447 70 447 70 437 70 c 0,48,49
248 305 m 1,68,-1
 200 257 l 1,69,-1
 248 207 l 1,70,71
 264 223 264 223 264 256 c 128,-1,72
 264 289 264 289 248 305 c 1,68,-1
209 196 m 2,73,-1
 152 254 l 1,74,-1
 208 311 l 2,75,76
 224 326 224 326 208 342 c 0,77,78
 193 357 193 357 178 341 c 2,79,-1
 121 284 l 1,80,-1
 64 342 l 2,81,82
 49 357 49 357 34 341 c 0,83,84
 27 335 27 335 27 326 c 128,-1,85
 27 317 27 317 34 311 c 2,86,-1
 91 253 l 1,87,-1
 38 195 l 2,88,89
 22 180 22 180 38 164 c 0,90,91
 44 158 44 158 53 158 c 128,-1,92
 62 158 62 158 68 164 c 2,93,-1
 122 222 l 1,94,-1
 179 165 l 2,95,96
 185 159 185 159 194 159 c 128,-1,97
 203 159 203 159 209 165 c 0,98,99
 224 180 224 180 209 196 c 2,73,-1
EndSplineSet
Validated: 553
EndChar

StartChar: share-ext
Encoding: 57368 57368 113
Width: 512
GlyphClass: 2
Flags: W
LayerCount: 2
Fore
SplineSet
135 133 m 1,0,-1
 135 331 l 1,1,-1
 271 331 l 1,2,-1
 272 330 l 1,3,4
 270 328 270 328 266.5 325 c 128,-1,5
 263 322 263 322 261 320 c 0,6,7
 250 309 250 309 248 308 c 128,-1,8
 246 307 246 307 243 307 c 128,-1,9
 240 307 240 307 236.5 307.5 c 128,-1,10
 233 308 233 308 231 308 c 2,11,-1
 164 308 l 1,12,-1
 159 308 l 1,13,-1
 159 157 l 1,14,-1
 308 157 l 1,15,-1
 308 162 l 1,16,-1
 308 244 l 2,17,18
 308 248 308 248 311 251 c 2,19,-1
 331 271 l 1,20,-1
 331 133 l 1,21,-1
 135 133 l 1,0,-1
337 355 m 2,22,-1
 273 355 l 1,23,-1
 273 379 l 1,24,-1
 379 379 l 1,25,-1
 379 272 l 1,26,-1
 356 272 l 1,27,-1
 356 337 l 1,28,-1
 211 192 l 1,29,-1
 194 209 l 1,30,31
 218 233 218 233 266 281.5 c 128,-1,32
 314 330 314 330 338 354 c 0,33,34
 338 355 338 355 337 355 c 2,22,-1
EndSplineSet
Validated: 513
EndChar

StartChar: ellipsis
Encoding: 57369 57369 114
Width: 512
GlyphClass: 2
Flags: W
LayerCount: 2
Fore
SplineSet
174 232 m 0,0,1
 163 232 163 232 156 239 c 128,-1,2
 149 246 149 246 149 256 c 128,-1,3
 149 266 149 266 156.5 273 c 128,-1,4
 164 280 164 280 174 280 c 128,-1,5
 184 280 184 280 191 273 c 128,-1,6
 198 266 198 266 198 256 c 128,-1,7
 198 246 198 246 191 239 c 128,-1,8
 184 232 184 232 174 232 c 0,0,1
252 232 m 0,9,10
 241 232 241 232 234 239 c 128,-1,11
 227 246 227 246 227 256 c 128,-1,12
 227 266 227 266 234.5 273 c 128,-1,13
 242 280 242 280 252 280 c 128,-1,14
 262 280 262 280 269 273 c 128,-1,15
 276 266 276 266 276 256 c 128,-1,16
 276 246 276 246 269 239 c 128,-1,17
 262 232 262 232 252 232 c 0,9,10
330 232 m 0,18,19
 319 232 319 232 312 239 c 128,-1,20
 305 246 305 246 305 256 c 128,-1,21
 305 266 305 266 312.5 273 c 128,-1,22
 320 280 320 280 330 280 c 128,-1,23
 340 280 340 280 347 273 c 128,-1,24
 354 266 354 266 354 256 c 128,-1,25
 354 246 354 246 347 239 c 128,-1,26
 340 232 340 232 330 232 c 0,18,19
EndSplineSet
Validated: 1
EndChar

StartChar: check
Encoding: 57370 57370 115
Width: 512
GlyphClass: 2
Flags: W
LayerCount: 2
Fore
SplineSet
256 426 m 0,0,1
 327 426 327 426 377.5 375.5 c 128,-1,2
 428 325 428 325 427 253 c 0,3,4
 427 183 427 183 377 133.5 c 128,-1,5
 327 84 327 84 256 84 c 128,-1,6
 185 84 185 84 135 134.5 c 128,-1,7
 85 185 85 185 85 257 c 0,8,9
 85 327 85 327 135.5 376.5 c 128,-1,10
 186 426 186 426 256 426 c 0,0,1
233 234 m 1,11,12
 229 240 229 240 229 240 c 1,13,-1
 190 279 l 2,14,15
 182 287 182 287 172 287.5 c 128,-1,16
 162 288 162 288 154 281 c 0,17,18
 136 264 136 264 155 245 c 0,19,20
 175 224 175 224 215 184 c 0,21,22
 234 167 234 167 251 184 c 0,23,24
 287 219 287 219 357 291 c 0,25,26
 363 296 363 296 365 305 c 0,27,28
 369 323 369 323 352 331 c 0,29,30
 335 338 335 338 323 326 c 0,31,32
 309 312 309 312 280.5 283.5 c 128,-1,33
 252 255 252 255 238 240 c 0,34,35
 236 239 236 239 233 234 c 1,11,12
EndSplineSet
Validated: 33
EndChar

StartChar: sliders
Encoding: 38 38 116
Width: 512
GlyphClass: 2
Flags: W
LayerCount: 2
Fore
SplineSet
64 117.333007812 m 1,0,-1
 192 117.333007812 l 1,1,-1
 192 74.6669921875 l 1,2,-1
 64 74.6669921875 l 1,3,-1
 64 117.333007812 l 1,0,-1
64 373.333007812 m 1,4,-1
 277.333007812 373.333007812 l 1,5,-1
 277.333007812 330.666992188 l 1,6,-1
 64 330.666992188 l 1,7,-1
 64 373.333007812 l 1,4,-1
277.333007812 32 m 1,8,-1
 234.666992188 32 l 1,9,-1
 234.666992188 160 l 1,10,-1
 277.333007812 160 l 1,11,-1
 277.333007812 117.333007812 l 1,12,-1
 448 117.333007812 l 1,13,-1
 448 74.6669921875 l 1,14,-1
 277.333007812 74.6669921875 l 1,15,-1
 277.333007812 32 l 1,8,-1
149.333007812 288 m 1,16,-1
 192 288 l 1,17,-1
 192 160 l 1,18,-1
 149.333007812 160 l 1,19,-1
 149.333007812 202.666992188 l 1,20,-1
 64 202.666992188 l 1,21,-1
 64 245.333007812 l 1,22,-1
 149.333007812 245.333007812 l 1,23,-1
 149.333007812 288 l 1,16,-1
448 202.666992188 m 1,24,-1
 234.666992188 202.666992188 l 1,25,-1
 234.666992188 245.333007812 l 1,26,-1
 448 245.333007812 l 1,27,-1
 448 202.666992188 l 1,24,-1
320 288 m 1,28,-1
 320 416 l 1,29,-1
 362.666992188 416 l 1,30,-1
 362.666992188 373.333007812 l 1,31,-1
 448 373.333007812 l 1,32,-1
 448 330.666992188 l 1,33,-1
 362.666992188 330.666992188 l 1,34,-1
 362.666992188 288 l 1,35,-1
 320 288 l 1,28,-1
EndSplineSet
Validated: 1
EndChar

StartChar: polyline
Encoding: 57371 57371 117
Width: 512
GlyphClass: 2
Flags: W
LayerCount: 2
Fore
SplineSet
150 90 m 0,0,1
 153 90 153 90 155 89 c 0,2,3
 160 88 160 88 167 91 c 0,4,5
 172 93 172 93 174 100 c 0,6,7
 176 105 176 105 172 111 c 128,-1,8
 168 117 168 117 163 118 c 0,9,10
 161 119 161 119 158 119 c 0,11,12
 151 121 151 121 146 118 c 128,-1,13
 141 115 141 115 139 109 c 0,14,15
 137 102 137 102 141 97 c 0,16,17
 145 91 145 91 150 90 c 0,0,1
95 126 m 0,18,19
 96 125 96 125 97 123.5 c 128,-1,20
 98 122 98 122 98 121 c 2,21,-1
 99 120 l 1,22,-1
 100 120 l 1,23,24
 100 118 100 118 102 118 c 0,25,26
 107 113 107 113 112 113 c 0,27,28
 114 113 114 113 118 115 c 0,29,30
 122 115 122 115 123 118 c 0,31,32
 127 124 127 124 127 128 c 0,33,34
 127 135 127 135 123 139 c 2,35,-1
 119 143 l 1,36,-1
 122 140 l 1,37,-1
 121 141 l 2,38,39
 118 146 118 146 112 148 c 0,40,41
 109 150 109 150 106 148 c 0,42,43
 102 148 102 148 100 146 c 0,44,45
 94 142 94 142 93 137 c 128,-1,46
 92 132 92 132 95 126 c 0,18,19
80 190 m 2,47,-1
 80 182 l 2,48,49
 80 175 80 175 84 171 c 0,50,51
 89 166 89 166 95 167 c 0,52,53
 110 167 110 167 110 182 c 2,54,-1
 110 190 l 2,55,56
 110 197 110 197 105 200 c 0,57,58
 102 205 102 205 95 205 c 0,59,60
 80 203 80 203 80 190 c 2,47,-1
102 277 m 0,61,62
 95 263 95 263 90 245 c 0,63,64
 86 230 86 230 100 226 c 0,65,66
 114 224 114 224 119 237 c 0,67,68
 122 251 122 251 128 262 c 0,69,70
 134 276 134 276 122 282 c 0,71,72
 118 285 118 285 111 283.5 c 128,-1,73
 104 282 104 282 102 277 c 0,61,62
161 359 m 0,74,75
 140 338 140 338 128 321 c 0,76,77
 124 316 124 316 126 310 c 128,-1,78
 128 304 128 304 133 301 c 0,79,80
 145 294 145 294 153 306 c 0,81,82
 161 317 161 317 182 338 c 0,83,84
 193 348 193 348 182 359 c 0,85,86
 172 369 172 369 161 359 c 0,74,75
265 296 m 0,87,88
 251 290 251 290 246 275.5 c 128,-1,89
 241 261 241 261 245 246 c 0,90,91
 251 214 251 214 288 212 c 0,92,93
 318 209 318 209 340 238 c 0,94,95
 358 265 358 265 348 300 c 0,96,97
 337 332 337 332 308 347 c 0,98,99
 277 362 277 362 245 351 c 0,100,101
 216 342 216 342 197.5 317.5 c 128,-1,102
 179 293 179 293 176 262 c 0,103,104
 174 234 174 234 186 206.5 c 128,-1,105
 198 179 198 179 221 162 c 0,106,107
 272 121 272 121 340 139 c 0,108,109
 400 156 400 156 432.5 214 c 128,-1,110
 465 272 465 272 449 332 c 0,111,112
 434 389 434 389 377 413 c 0,113,114
 321 435 321 435 249 410 c 0,115,116
 236 406 236 406 218 397 c 0,117,118
 205 391 205 391 213 377 c 0,119,120
 220 365 220 365 233 372 c 0,121,122
 287 398 287 398 337 392 c 0,123,124
 360 390 360 390 379 378 c 0,125,126
 384 376 384 376 388 372 c 0,127,128
 390 372 390 372 390 370 c 0,129,130
 394 368 394 368 395 366 c 0,131,132
 396 365 396 365 397.5 364 c 128,-1,133
 399 363 399 363 400 361.5 c 128,-1,134
 401 360 401 360 402 359 c 2,135,136
 402 359 402 359 404 356 c 0,137,138
 405 355 405 355 407 352 c 2,139,-1
 413 343 l 2,140,141
 415 339 415 339 415 337 c 1,142,143
 416 337 416 337 416 335 c 2,144,-1
 417 334 l 1,145,146
 422 322 422 322 423 309 c 2,147,-1
 423 308 l 2,148,149
 424 307 424 307 424 305 c 2,150,-1
 424 299 l 1,151,-1
 424 284 l 2,152,153
 422 270 422 270 420 261 c 0,154,155
 414 238 414 238 400 218 c 0,156,157
 398 214 398 214 396 213 c 2,158,-1
 396 212 l 1,159,-1
 394 210 l 2,160,161
 390 203 390 203 386 201 c 0,162,163
 385 200 385 200 384 198.5 c 128,-1,164
 383 197 383 197 381 195.5 c 128,-1,165
 379 194 379 194 378 193 c 2,166,-1
 374 189 l 1,167,-1
 373 189 l 1,168,-1
 370 186 l 2,169,170
 352 173 352 173 329 167 c 0,171,172
 316 164 316 164 306 164 c 0,173,174
 296 163 296 163 283 165 c 0,175,176
 257 170 257 170 240 184 c 2,177,-1
 233 191 l 2,178,179
 228 194 228 194 225 199 c 2,180,-1
 224 200 l 2,181,182
 224 201 224 201 223 202 c 128,-1,183
 222 203 222 203 220 207 c 0,184,185
 216 213 216 213 214 217 c 2,186,-1
 214 218 l 2,187,188
 213 220 213 220 213 220 c 2,189,190
 211 222 211 222 211 225 c 0,191,192
 208 231 208 231 208 237 c 0,193,194
 207 238 207 238 207 242 c 0,195,196
 207 244 207 244 206 245 c 2,197,-1
 206 257 l 2,198,199
 206 258 206 258 206.5 260 c 128,-1,200
 207 262 207 262 207 263 c 2,201,-1
 207 266 l 2,202,203
 209 274 209 274 210 277 c 0,204,205
 210 278 210 278 210.5 279.5 c 128,-1,206
 211 281 211 281 212 282 c 2,207,208
 212 282 212 282 212 284 c 2,209,-1
 213 285 l 2,210,211
 214 287 214 287 216 290.5 c 128,-1,212
 218 294 218 294 219 296 c 0,213,214
 221 298 221 298 222 300 c 2,215,-1
 224 302 l 1,216,-1
 233 311 l 2,217,218
 234 312 234 312 234 312 c 2,219,220
 236 312 236 312 236 313 c 0,221,222
 237 314 237 314 241 316 c 0,223,224
 246 319 246 319 251 321 c 0,225,226
 262 325 262 325 273 325 c 0,227,228
 278 325 278 325 280 324 c 2,229,230
 280 324 280 324 283 324 c 0,231,232
 284 324 284 324 285.5 323.5 c 128,-1,233
 287 323 287 323 288 322 c 2,234,-1
 289 322 l 2,235,236
 290 321 290 321 291 321 c 2,237,-1
 292 320 l 2,238,239
 296 319 296 319 302 315 c 0,240,241
 304 313 304 313 305 313 c 0,242,243
 306 311 306 311 309 308 c 0,244,245
 311 306 311 306 311 305 c 1,246,247
 311 306 311 306 312 305 c 0,248,249
 312 304 312 304 313 302.5 c 128,-1,250
 314 301 314 301 315 300 c 128,-1,251
 316 299 316 299 317 297.5 c 128,-1,252
 318 296 318 296 318 295 c 2,253,-1
 318 294 l 1,254,-1
 318 292 l 1,255,-1
 319 290 l 2,256,257
 319 289 319 289 319.5 287.5 c 128,-1,258
 320 286 320 286 321 285 c 2,259,-1
 321 281 l 1,260,-1
 322 281 l 1,261,-1
 322 274 l 1,262,-1
 322 272 l 2,263,264
 322 270 322 270 321 270 c 1,265,266
 321 266 321 266 320 264 c 2,267,-1
 320 263 l 2,268,269
 319 262 319 262 319 261 c 0,270,271
 318 260 318 260 317 258.5 c 128,-1,272
 316 257 316 257 316 256 c 2,273,-1
 316 255 l 1,274,-1
 315 254 l 1,275,-1
 314 253 l 2,276,277
 313 252 313 252 311 249 c 2,278,-1
 310 248 l 2,279,280
 308 247 308 247 308 247 c 2,281,282
 307 246 307 246 305.5 245 c 128,-1,283
 304 244 304 244 303 244 c 0,284,285
 302 243 302 243 301 243 c 2,286,-1
 300 242 l 2,287,288
 299 242 299 242 297 241.5 c 128,-1,289
 295 241 295 241 294 241 c 256,290,291
 293 241 293 241 292 241 c 2,292,-1
 288 241 l 2,293,294
 287 242 287 242 284 242 c 2,295,-1
 283 243 l 2,296,297
 279 245 279 245 278 246 c 2,298,-1
 277 247 l 1,299,-1
 276 248 l 2,300,301
 275 249 275 249 275 250 c 2,302,-1
 274 252 l 1,303,-1
 274 254 l 1,304,-1
 274 256 l 1,305,-1
 273 258 l 1,306,-1
 274 259 l 2,307,308
 274 260 274 260 274 261 c 0,309,310
 274 263 274 263 275 264 c 2,311,-1
 275 265 l 1,312,-1
 276 266 l 1,313,-1
 277 267 l 1,314,-1
 276 267 l 1,315,316
 277 268 277 268 278 269 c 2,317,-1
 279 269 l 1,318,-1
 281 270 l 2,319,320
 286 272 286 272 287.5 279 c 128,-1,321
 289 286 289 286 286 290 c 0,322,323
 278 303 278 303 265 296 c 0,87,88
EndSplineSet
Validated: 37
EndChar

StartChar: source
Encoding: 57372 57372 118
Width: 512
GlyphClass: 2
Flags: W
LayerCount: 2
Fore
SplineSet
397 222 m 0,0,1
 367 222 367 222 345 203 c 128,-1,2
 323 184 323 184 321 155 c 1,3,4
 279 164 279 164 262 215 c 0,5,6
 239 284 239 284 172 284 c 0,7,8
 165 284 165 284 162 283 c 2,9,-1
 159 283 l 1,10,-1
 157 283 l 1,11,-1
 155 281 l 1,12,13
 132 268 132 268 113 268 c 0,14,15
 93 268 93 268 78.5 282.5 c 128,-1,16
 64 297 64 297 64 317 c 128,-1,17
 64 337 64 337 78.5 351 c 128,-1,18
 93 365 93 365 113 365 c 128,-1,19
 133 365 133 365 147.5 351 c 128,-1,20
 162 337 162 337 162 317 c 2,21,-1
 162 309 l 1,22,-1
 162 307 l 1,23,-1
 164 306 l 1,24,-1
 345 305 l 1,25,-1
 347 306 l 1,26,-1
 348 308 l 1,27,-1
 348 317 l 2,28,29
 348 337 348 337 362.5 351 c 128,-1,30
 377 365 377 365 397 365 c 128,-1,31
 417 365 417 365 431.5 351 c 128,-1,32
 446 337 446 337 446 317 c 128,-1,33
 446 297 446 297 431.5 282.5 c 128,-1,34
 417 268 417 268 397 268 c 0,35,36
 382 268 382 268 367 278 c 2,37,-1
 366 279 l 1,38,-1
 365 279 l 2,39,40
 364 279 364 279 364 278.5 c 128,-1,41
 364 278 364 278 363 278 c 2,42,-1
 349 259 l 2,43,44
 349 258 349 258 348.5 258 c 128,-1,45
 348 258 348 258 348 257 c 0,46,47
 349 256 349 256 349 255 c 0,48,49
 371 239 371 239 397 239 c 0,50,51
 429 239 429 239 452 261.5 c 128,-1,52
 475 284 475 284 475 316 c 128,-1,53
 475 348 475 348 452 370.5 c 128,-1,54
 429 393 429 393 397 393 c 0,55,56
 366 393 366 393 344 375 c 128,-1,57
 322 357 322 357 320 328 c 1,58,-1
 189 328 l 1,59,60
 187 357 187 357 165 375.5 c 128,-1,61
 143 394 143 394 113 394 c 0,62,63
 81 394 81 394 58 371.5 c 128,-1,64
 35 349 35 349 35 317 c 128,-1,65
 35 285 35 285 58 262.5 c 128,-1,66
 81 240 81 240 113 240 c 0,67,68
 144 240 144 240 167 255 c 1,69,-1
 171 255 l 2,70,71
 217 255 217 255 234 206 c 0,72,73
 235 202 235 202 237.5 196.5 c 128,-1,74
 240 191 240 191 248.5 177.5 c 128,-1,75
 257 164 257 164 267.5 154 c 128,-1,76
 278 144 278 144 296 135.5 c 128,-1,77
 314 127 314 127 335 127 c 2,78,-1
 347 127 l 1,79,-1
 349 128 l 2,80,81
 350 129 350 129 350 130 c 0,82,83
 349 146 349 146 349 148 c 0,84,85
 349 167 349 167 363 180 c 128,-1,86
 377 193 377 193 397 193 c 128,-1,87
 417 193 417 193 431.5 179 c 128,-1,88
 446 165 446 165 446 145 c 128,-1,89
 446 125 446 125 431.5 111 c 128,-1,90
 417 97 417 97 397 97 c 0,91,92
 380 97 380 97 367 107 c 1,93,-1
 366 107 l 1,94,-1
 365 107 l 2,95,96
 364 107 364 107 363 106 c 2,97,-1
 349 88 l 1,98,-1
 349 86 l 2,99,100
 349 84 349 84 350 84 c 0,101,102
 371 68 371 68 397 68 c 0,103,104
 429 68 429 68 452 90.5 c 128,-1,105
 475 113 475 113 475 145 c 128,-1,106
 475 177 475 177 452 199.5 c 128,-1,107
 429 222 429 222 397 222 c 0,0,1
EndSplineSet
Validated: 9
EndChar

StartChar: playback-play
Encoding: 57373 57373 119
Width: 512
GlyphClass: 2
Flags: W
LayerCount: 2
Fore
SplineSet
128 416 m 1,0,-1
 384 256 l 1,1,-1
 128 96 l 1,2,-1
 128 416 l 1,0,-1
EndSplineSet
Validated: 513
EndChar

StartChar: stop-square
Encoding: 57374 57374 120
Width: 512
GlyphClass: 2
Flags: W
LayerCount: 2
Fore
SplineSet
384 128 m 1,0,-1
 128 128 l 1,1,-1
 128 384 l 1,2,-1
 384 384 l 1,3,-1
 384 128 l 1,0,-1
EndSplineSet
Validated: 513
EndChar

StartChar: avatar-t-pose
Encoding: 57375 57375 121
Width: 512
GlyphClass: 2
Flags: W
LayerCount: 2
Fore
SplineSet
274 70 m 1,0,-1
 273 70 l 2,1,2
 264 69 264 69 261.5 71.5 c 128,-1,3
 259 74 259 74 259 82 c 2,4,-1
 259 217 l 1,5,-1
 250 217 l 1,6,-1
 251 77 l 2,7,8
 250 69 250 69 242 69 c 2,9,-1
 235 69 l 1,10,-1
 219 257 l 1,11,-1
 219 323 l 1,12,13
 218 322 218 322 201 322.5 c 128,-1,14
 184 323 184 323 175 324 c 0,15,16
 168 324 168 324 136.5 324.5 c 128,-1,17
 105 325 105 325 96 325 c 0,18,19
 84 325 84 325 78 335 c 0,20,21
 76 339 76 339 74 341 c 1,22,23
 82 342 82 342 96 342 c 0,24,25
 194 348 194 348 196 355 c 1,26,27
 210 365 210 365 232 365 c 0,28,29
 263 365 263 365 278 364 c 0,30,31
 282 364 282 364 286.5 364 c 128,-1,32
 291 364 291 364 295.5 363.5 c 128,-1,33
 300 363 300 363 305 361 c 128,-1,34
 310 359 310 359 315 354 c 0,35,36
 337 343 337 343 438 343 c 0,37,38
 439 343 439 343 439 342 c 0,39,40
 433 325 433 325 414 326 c 0,41,42
 332 323 332 323 287 325 c 1,43,44
 288 315 288 315 288.5 292.5 c 128,-1,45
 289 270 289 270 289 259 c 0,46,47
 283 200 283 200 274 70 c 1,0,-1
261 442 m 1,48,49
 276 436 276 436 274 410 c 0,50,51
 274 407 274 407 273.5 402.5 c 128,-1,52
 273 398 273 398 273 396 c 0,53,54
 270 378 270 378 253 378 c 0,55,56
 235 378 235 378 233 396 c 0,57,58
 232 399 232 399 231.5 406 c 128,-1,59
 231 413 231 413 231 416 c 0,60,61
 229 428 229 428 242 431 c 0,62,63
 252 434 252 434 261 442 c 1,48,49
EndSplineSet
Validated: 545
EndChar

